EncodeSans-Regular.ufo
<glyph name="exclam" format="2">
  <advance width="501.1212121212121"/>
  <unicode hex="0021"/>
  <outline>
    <contour>
      <point x="200.28787878787878" y="371.6363636363636" type="line"/>
      <point x="302.1212121212121" y="371.6363636363636" type="line"/>
      <point x="335.5" y="917.3030303030303" type="line"/>
      <point x="335.5" y="1480.0" type="line"/>
      <point x="165.62121212121212" y="1480.0" type="line"/>
      <point x="165.62121212121212" y="917.3030303030303" type="line"/>
    </contour>
    <contour>
      <point x="250.56060606060606" y="-12.575757575757576" type="curve" smooth="yes"/>
      <point x="319.27272727272725" y="-12.575757575757576"/>
      <point x="365.6212121212121" y="29.71212121212121"/>
      <point x="365.6212121212121" y="94.24242424242425" type="curve" smooth="yes"/>
      <point x="365.6212121212121" y="158.77272727272725"/>
      <point x="320.3030303030303" y="202.54545454545456"/>
      <point x="250.56060606060606" y="202.54545454545456" type="curve" smooth="yes"/>
      <point x="180.8181818181818" y="202.54545454545456"/>
      <point x="135.5" y="159.8030303030303"/>
      <point x="135.5" y="94.24242424242425" type="curve" smooth="yes"/>
      <point x="135.5" y="28.68181818181818"/>
      <point x="181.84848484848484" y="-12.575757575757576"/>
    </contour>
  </outline>
</glyph>
<glyph name="numbersign" format="2">
  <advance width="1156.6666666666667"/>
  <unicode hex="0023"/>
  <outline>
    <contour>
      <point x="624.7272727272727" y="0.0" type="line"/>
      <point x="756.4090909090909" y="0.0" type="line"/>
      <point x="910.4090909090909" y="1480.0" type="line"/>
      <point x="778.7272727272727" y="1480.0" type="line"/>
    </contour>
    <contour>
      <point x="100.0" y="456.9090909090909" type="line"/>
      <point x="1056.6666666666667" y="456.9090909090909" type="line"/>
      <point x="1056.6666666666667" y="587.3030303030303" type="line"/>
      <point x="100.0" y="587.3030303030303" type="line"/>
    </contour>
    <contour>
      <point x="246.25757575757575" y="0.0" type="line"/>
      <point x="377.93939393939394" y="0.0" type="line"/>
      <point x="531.939393939394" y="1480.0" type="line"/>
      <point x="400.25757575757575" y="1480.0" type="line"/>
    </contour>
    <contour>
      <point x="100.0" y="892.6969696969697" type="line"/>
      <point x="1056.6666666666667" y="892.6969696969697" type="line"/>
      <point x="1056.6666666666667" y="1023.0909090909091" type="line"/>
      <point x="100.0" y="1023.0909090909091" type="line"/>
    </contour>
  </outline>
</glyph>
<glyph name="dollar" format="2">
  <advance width="1062.5454545454545"/>
  <unicode hex="0024"/>
  <outline>
    <contour>
      <point x="459.1212121212121" y="-18.515151515151516" type="curve" smooth="yes"/>
      <point x="796.8787878787879" y="-18.515151515151516"/>
      <point x="988.6212121212121" y="134.07575757575756"/>
      <point x="988.6212121212121" y="400.8636363636364" type="curve" smooth="yes"/>
      <point x="988.6212121212121" y="615.3333333333334"/>
      <point x="864.2424242424242" y="739.4848484848485"/>
      <point x="590.5151515151515" y="808.5151515151515" type="curve" smooth="yes"/>
      <point x="510.4848484848485" y="829.1515151515151" type="line" smooth="yes"/>
      <point x="309.6515151515151" y="882.1666666666666"/>
      <point x="238.13636363636363" y="952.4545454545455"/>
      <point x="238.13636363636363" y="1097.7121212121212" type="curve" smooth="yes"/>
      <point x="238.13636363636363" y="1263.878787878788"/>
      <point x="351.04545454545456" y="1360.6515151515152"/>
      <point x="610.060606060606" y="1360.6515151515152" type="curve" smooth="yes"/>
      <point x="714.060606060606" y="1360.6515151515152"/>
      <point x="822.7878787878788" y="1346.1363636363637"/>
      <point x="923.9242424242425" y="1315.4545454545455" type="curve"/>
      <point x="923.9242424242425" y="1455.3181818181818" type="line"/>
      <point x="831.8939393939394" y="1483.2575757575758"/>
      <point x="715.2878787878788" y="1498.5151515151515"/>
      <point x="605.0454545454545" y="1498.5151515151515" type="curve" smooth="yes"/>
      <point x="251.37878787878788" y="1498.5151515151515"/>
      <point x="73.92424242424242" y="1343.0454545454545"/>
      <point x="73.92424242424242" y="1088.8181818181818" type="curve" smooth="yes"/>
      <point x="73.92424242424242" y="875.0909090909091"/>
      <point x="198.8181818181818" y="749.939393939394"/>
      <point x="450.71212121212125" y="685.6818181818181" type="curve" smooth="yes"/>
      <point x="530.7424242424242" y="665.0454545454545" type="line" smooth="yes"/>
      <point x="743.439393939394" y="609.2575757575758"/>
      <point x="824.4090909090909" y="541.1666666666666"/>
      <point x="824.4090909090909" y="390.90909090909093" type="curve" smooth="yes"/>
      <point x="824.4090909090909" y="213.57575757575756"/>
      <point x="708.8484848484849" y="119.34848484848484"/>
      <point x="460.030303030303" y="119.34848484848484" type="curve" smooth="yes"/>
      <point x="352.3939393939394" y="119.34848484848484"/>
      <point x="221.39393939393938" y="138.4090909090909"/>
      <point x="97.13636363636364" y="179.37878787878788" type="curve"/>
      <point x="97.13636363636364" y="39.515151515151516" type="line"/>
      <point x="211.74242424242425" y="0.7727272727272725"/>
      <point x="344.0151515151515" y="-18.515151515151516"/>
    </contour>
    <contour>
      <point x="456.74242424242425" y="-240.0" type="line"/>
      <point x="607.2878787878788" y="-240.0" type="line"/>
      <point x="607.2878787878788" y="28.03030303030303" type="line"/>
      <point x="456.74242424242425" y="20.606060606060606" type="line"/>
    </contour>
    <contour>
      <point x="456.74242424242425" y="1464.5454545454545" type="line"/>
      <point x="607.2878787878788" y="1464.5454545454545" type="line"/>
      <point x="607.2878787878788" y="1720.0" type="line"/>
      <point x="456.74242424242425" y="1720.0" type="line"/>
    </contour>
  </outline>
</glyph>
<glyph name="ampersand" format="2">
  <advance width="1495.8181818181818"/>
  <unicode hex="0026"/>
  <outline>
    <contour>
      <point x="1415.6666666666667" y="-20.0" type="line"/>
      <point x="1495.8181818181818" y="99.74242424242424" type="line"/>
      <point x="699.969696969697" y="703.7272727272727" type="line" smooth="yes"/>
      <point x="505.43939393939394" y="858.1212121212121"/>
      <point x="456.3636363636364" y="944.8939393939394"/>
      <point x="456.3636363636364" y="1074.1363636363637" type="curve" smooth="yes"/>
      <point x="456.3636363636364" y="1257.621212121212"/>
      <point x="563.6515151515151" y="1360.6515151515152"/>
      <point x="825.7727272727273" y="1360.6515151515152" type="curve" smooth="yes"/>
      <point x="908.4848484848485" y="1360.6515151515152"/>
      <point x="987.6363636363636" y="1351.1363636363637"/>
      <point x="1062.3181818181818" y="1331.4545454545455" type="curve"/>
      <point x="1062.3181818181818" y="1471.3181818181818" type="line"/>
      <point x="992.1969696969697" y="1488.030303030303"/>
      <point x="910.8787878787879" y="1498.5151515151515"/>
      <point x="818.9848484848485" y="1498.5151515151515" type="curve" smooth="yes"/>
      <point x="464.3787878787879" y="1498.5151515151515"/>
      <point x="292.1515151515151" y="1343.2424242424242"/>
      <point x="292.1515151515151" y="1075.969696969697" type="curve" smooth="yes"/>
      <point x="292.1515151515151" y="904.9242424242424"/>
      <point x="366.3181818181818" y="776.2575757575758"/>
      <point x="619.8181818181819" y="583.9848484848485" type="curve" smooth="yes"/>
    </contour>
    <contour>
      <point x="678.2727272727273" y="-18.0" type="curve" smooth="yes"/>
      <point x="1043.6363636363637" y="-18.0"/>
      <point x="1259.2424242424242" y="169.6818181818182"/>
      <point x="1259.2424242424242" y="528.6515151515151" type="curve" smooth="yes"/>
      <point x="1259.2424242424242" y="614.7575757575758"/>
      <point x="1246.7575757575758" y="710.1818181818181"/>
      <point x="1220.3333333333333" y="797.6060606060606" type="curve"/>
      <point x="1081.8181818181818" y="797.6060606060606" type="line"/>
      <point x="1108.9848484848485" y="710.1818181818181"/>
      <point x="1123.9545454545455" y="612.7575757575758"/>
      <point x="1123.9545454545455" y="527.6212121212121" type="curve" smooth="yes"/>
      <point x="1123.9545454545455" y="232.65151515151516"/>
      <point x="959.8484848484849" y="107.75757575757575"/>
      <point x="692.8939393939394" y="107.75757575757575" type="curve" smooth="yes"/>
      <point x="425.56060606060606" y="107.75757575757575"/>
      <point x="301.6363636363636" y="232.86363636363637"/>
      <point x="301.6363636363636" y="419.8484848484849" type="curve" smooth="yes"/>
      <point x="301.6363636363636" y="559.469696969697"/>
      <point x="367.56060606060606" y="662.469696969697"/>
      <point x="500.45454545454544" y="729.2575757575758" type="curve"/>
      <point x="415.3181818181818" y="811.2424242424242" type="line"/>
      <point x="242.72727272727272" y="736.2878787878788"/>
      <point x="137.93939393939394" y="593.0909090909091"/>
      <point x="137.93939393939394" y="403.030303030303" type="curve" smooth="yes"/>
      <point x="137.93939393939394" y="152.45454545454547"/>
      <point x="319.72727272727275" y="-18.0"/>
    </contour>
  </outline>
</glyph>
<glyph name="quotesingle" format="2">
  <advance width="418.969696969697"/>
  <unicode hex="0027"/>
  <outline>
    <contour>
      <point x="161.15151515151516" y="915.3030303030303" type="line"/>
      <point x="257.8181818181818" y="915.3030303030303" type="line"/>
      <point x="292.5" y="1616.0" type="line"/>
      <point x="126.46969696969697" y="1616.0" type="line"/>
    </contour>
  </outline>
</glyph>
<glyph name="parenleft" format="2">
  <advance width="658.969696969697"/>
  <unicode hex="0028"/>
  <outline>
    <contour>
      <point x="466.8939393939394" y="-440.0" type="curve"/>
      <point x="639.1363636363636" y="-440.0" type="line"/>
      <point x="392.8787878787879" y="-130.83333333333334"/>
      <point x="290.8787878787879" y="209.5"/>
      <point x="290.8787878787879" y="588.0" type="curve" smooth="yes"/>
      <point x="290.8787878787879" y="966.5"/>
      <point x="392.8787878787879" y="1306.8333333333333"/>
      <point x="639.1363636363636" y="1616.0" type="curve"/>
      <point x="466.8939393939394" y="1616.0" type="line"/>
      <point x="227.83333333333334" y="1323.0151515151515"/>
      <point x="125.37878787878788" y="971.9848484848485"/>
      <point x="125.37878787878788" y="588.0" type="curve" smooth="yes"/>
      <point x="125.37878787878788" y="204.0151515151515"/>
      <point x="227.83333333333334" y="-147.0151515151515"/>
    </contour>
  </outline>
</glyph>
<glyph name="parenright" format="2">
  <advance width="658.969696969697"/>
  <unicode hex="0029"/>
  <outline>
    <contour>
      <point x="19.833333333333336" y="-440.0" type="curve"/>
      <point x="192.07575757575756" y="-440.0" type="line"/>
      <point x="431.1363636363636" y="-147.0151515151515"/>
      <point x="533.5909090909091" y="204.0151515151515"/>
      <point x="533.5909090909091" y="588.0" type="curve" smooth="yes"/>
      <point x="533.5909090909091" y="971.9848484848485"/>
      <point x="431.1363636363636" y="1323.0151515151515"/>
      <point x="192.07575757575756" y="1616.0" type="curve"/>
      <point x="19.833333333333336" y="1616.0" type="line"/>
      <point x="266.0909090909091" y="1306.8333333333333"/>
      <point x="368.0909090909091" y="966.5"/>
      <point x="368.0909090909091" y="588.0" type="curve" smooth="yes"/>
      <point x="368.0909090909091" y="209.5"/>
      <point x="266.0909090909091" y="-130.83333333333334"/>
    </contour>
  </outline>
</glyph>
<glyph name="asterisk" format="2">
  <advance width="918.4848484848485"/>
  <unicode hex="002A"/>
  <outline>
    <contour>
      <point x="519.2424242424242" y="1182.5" type="line"/>
      <point x="713.3787878787879" y="1222.2575757575758" type="line"/>
      <point x="888.4848484848485" y="1278.7121212121212" type="line"/>
      <point x="851.7424242424242" y="1390.4848484848485" type="line"/>
      <point x="678.1212121212121" y="1333.7727272727273" type="line"/>
      <point x="495.07575757575756" y="1250.1060606060605" type="line"/>
      <point x="518.2878787878788" y="1449.7272727272727" type="line"/>
      <point x="518.2878787878788" y="1616.0" type="line"/>
      <point x="400.1969696969697" y="1616.0" type="line"/>
      <point x="400.1969696969697" y="1449.7272727272727" type="line"/>
      <point x="423.4090909090909" y="1250.1060606060605" type="line"/>
      <point x="240.36363636363637" y="1333.7727272727273" type="line"/>
      <point x="66.74242424242425" y="1390.4848484848485" type="line"/>
      <point x="30.0" y="1278.7121212121212" type="line"/>
      <point x="205.1060606060606" y="1222.2575757575758" type="line"/>
      <point x="399.24242424242425" y="1182.5" type="line"/>
      <point x="264.6666666666667" y="1035.2575757575758" type="line"/>
      <point x="163.07575757575756" y="896.6969696969697" type="line"/>
      <point x="258.8636363636364" y="827.0151515151515" type="line"/>
      <point x="360.45454545454544" y="965.3181818181819" type="line"/>
      <point x="459.24242424242425" y="1142.9242424242425" type="line"/>
      <point x="558.030303030303" y="965.3181818181819" type="line"/>
      <point x="659.6212121212121" y="827.0151515151515" type="line"/>
      <point x="755.4090909090909" y="896.6969696969697" type="line"/>
      <point x="653.8181818181819" y="1035.2575757575758" type="line"/>
    </contour>
  </outline>
</glyph>
<glyph name="plus" format="2">
  <advance width="1075.909090909091"/>
  <unicode hex="002B"/>
  <outline>
    <contour>
      <point x="469.6969696969697" y="356.3636363636364" type="line"/>
      <point x="606.2121212121212" y="356.3636363636364" type="line"/>
      <point x="606.2121212121212" y="695.030303030303" type="line"/>
      <point x="927.1969696969697" y="695.030303030303" type="line"/>
      <point x="927.1969696969697" y="824.969696969697" type="line"/>
      <point x="606.2121212121212" y="824.969696969697" type="line"/>
      <point x="606.2121212121212" y="1163.6363636363637" type="line"/>
      <point x="469.6969696969697" y="1163.6363636363637" type="line"/>
      <point x="469.6969696969697" y="824.969696969697" type="line"/>
      <point x="148.71212121212122" y="824.969696969697" type="line"/>
      <point x="148.71212121212122" y="695.030303030303" type="line"/>
      <point x="469.6969696969697" y="695.030303030303" type="line"/>
    </contour>
  </outline>
</glyph>
<glyph name="comma" format="2">
  <advance width="461.1212121212121"/>
  <unicode hex="002C"/>
  <outline>
    <contour>
      <point x="150.16666666666666" y="-315.45454545454544" type="curve"/>
      <point x="244.65151515151516" y="-315.45454545454544" type="line"/>
      <point x="303.25757575757575" y="-209.0909090909091"/>
      <point x="345.1060606060606" y="-74.48484848484848"/>
      <point x="345.1060606060606" y="63.68181818181819" type="curve" smooth="yes"/>
      <point x="345.1060606060606" y="163.34848484848484"/>
      <point x="301.5909090909091" y="209.24242424242425"/>
      <point x="227.53030303030303" y="209.24242424242425" type="curve" smooth="yes"/>
      <point x="159.33333333333334" y="209.24242424242425"/>
      <point x="115.5" y="166.24242424242425"/>
      <point x="115.5" y="99.07575757575758" type="curve" smooth="yes"/>
      <point x="115.5" y="31.196969696969695"/>
      <point x="162.36363636363637" y="-12.575757575757576"/>
      <point x="230.56060606060606" y="-12.575757575757576" type="curve" smooth="yes"/>
      <point x="252.86363636363637" y="-12.575757575757576" type="line"/>
      <point x="224.9090909090909" y="22.303030303030305" type="line"/>
      <point x="224.9090909090909" y="-87.93939393939394"/>
      <point x="196.9848484848485" y="-191.15151515151516"/>
    </contour>
  </outline>
</glyph>
<glyph name="hyphen" format="2">
  <advance width="838.6969696969697"/>
  <unicode hex="002D"/>
  <outline>
    <contour>
      <point x="148.71212121212122" y="494.77272727272725" type="line"/>
      <point x="689.9848484848485" y="494.77272727272725" type="line"/>
      <point x="689.9848484848485" y="630.3787878787879" type="line"/>
      <point x="148.71212121212122" y="630.3787878787879" type="line"/>
    </contour>
  </outline>
</glyph>
<glyph name="period" format="2">
  <advance width="461.1212121212121"/>
  <unicode hex="002E"/>
  <outline>
    <contour>
      <point x="230.56060606060606" y="-12.575757575757576" type="curve" smooth="yes"/>
      <point x="299.27272727272725" y="-12.575757575757576"/>
      <point x="345.6212121212121" y="30.742424242424242"/>
      <point x="345.6212121212121" y="97.5909090909091" type="curve" smooth="yes"/>
      <point x="345.6212121212121" y="164.43939393939394"/>
      <point x="300.3030303030303" y="209.24242424242425"/>
      <point x="230.56060606060606" y="209.24242424242425" type="curve" smooth="yes"/>
      <point x="160.8181818181818" y="209.24242424242425"/>
      <point x="115.5" y="165.46969696969697"/>
      <point x="115.5" y="97.5909090909091" type="curve" smooth="yes"/>
      <point x="115.5" y="29.71212121212121"/>
      <point x="161.84848484848484" y="-12.575757575757576"/>
    </contour>
  </outline>
</glyph>
<glyph name="slash" format="2">
  <advance width="616.4242424242425"/>
  <unicode hex="002F"/>
  <outline>
    <contour>
      <point x="0.0" y="-240.0" type="line"/>
      <point x="158.89393939393938" y="-240.0" type="line"/>
      <point x="616.4242424242425" y="1616.0" type="line"/>
      <point x="457.530303030303" y="1616.0" type="line"/>
    </contour>
  </outline>
</glyph>
<glyph name="zero" format="2">
  <advance width="1249.2575757575758"/>
  <unicode hex="0030"/>
  <note>
600
</note>
  <outline>
    <contour>
      <point x="624.5" y="-18.515151515151516" type="curve" smooth="yes"/>
      <point x="936.030303030303" y="-18.515151515151516"/>
      <point x="1133.878787878788" y="189.84848484848484"/>
      <point x="1133.878787878788" y="740.0" type="curve" smooth="yes"/>
      <point x="1133.878787878788" y="1290.1515151515152"/>
      <point x="939.0" y="1498.5151515151515"/>
      <point x="624.5" y="1498.5151515151515" type="curve" smooth="yes"/>
      <point x="310.0" y="1498.5151515151515"/>
      <point x="115.37878787878788" y="1290.1515151515152"/>
      <point x="115.37878787878788" y="740.0" type="curve" smooth="yes"/>
      <point x="115.37878787878788" y="189.84848484848484"/>
      <point x="312.969696969697" y="-18.515151515151516"/>
    </contour>
    <contour>
      <point x="624.7575757575758" y="120.89393939393939" type="curve" smooth="yes"/>
      <point x="413.0909090909091" y="120.89393939393939"/>
      <point x="278.04545454545456" y="263.1818181818182"/>
      <point x="278.04545454545456" y="742.969696969697" type="curve" smooth="yes"/>
      <point x="278.04545454545456" y="1216.8181818181818"/>
      <point x="413.6060606060606" y="1359.1060606060605"/>
      <point x="624.7575757575758" y="1359.1060606060605" type="curve" smooth="yes"/>
      <point x="835.6515151515151" y="1359.1060606060605"/>
      <point x="971.2121212121212" y="1216.8181818181818"/>
      <point x="971.2121212121212" y="737.030303030303" type="curve" smooth="yes"/>
      <point x="971.2121212121212" y="263.1818181818182"/>
      <point x="835.6515151515151" y="120.89393939393939"/>
    </contour>
  </outline>
</glyph>
<glyph name="one" format="2">
  <advance width="730.9545454545455"/>
  <unicode hex="0031"/>
  <outline>
    <contour>
      <point x="389.54545454545456" y="0.0" type="line"/>
      <point x="551.8181818181818" y="0.0" type="line"/>
      <point x="551.8181818181818" y="1484.5151515151515" type="line"/>
      <point x="448.5151515151515" y="1484.5151515151515" type="line"/>
      <point x="24.545454545454547" y="1179.1363636363637" type="line"/>
      <point x="24.545454545454547" y="1018.939393939394" type="line"/>
      <point x="448.5151515151515" y="1322.8333333333333" type="line"/>
      <point x="389.54545454545456" y="1361.3030303030303" type="line"/>
    </contour>
  </outline>
</glyph>
<glyph name="two" format="2">
  <advance width="986.4848484848485"/>
  <unicode hex="0032"/>
  <outline>
    <contour>
      <point x="60.04545454545455" y="0.0" type="line"/>
      <point x="922.6666666666666" y="0.0" type="line"/>
      <point x="922.6666666666666" y="138.95454545454544" type="line"/>
      <point x="228.9090909090909" y="138.95454545454544" type="line"/>
      <point x="242.07575757575756" y="93.57575757575758" type="line"/>
      <point x="618.2878787878788" y="589.969696969697" type="line" smooth="yes"/>
      <point x="785.8787878787879" y="808.5151515151515"/>
      <point x="842.0757575757575" y="945.8333333333334"/>
      <point x="842.8181818181818" y="1103.939393939394" type="curve" smooth="yes"/>
      <point x="844.3030303030303" y="1378.3333333333333"/>
      <point x="675.9090909090909" y="1498.5151515151515"/>
      <point x="377.0151515151515" y="1498.5151515151515" type="curve" smooth="yes"/>
      <point x="256.469696969697" y="1498.5151515151515"/>
      <point x="128.5909090909091" y="1476.4848484848485"/>
      <point x="42.53030303030303" y="1442.030303030303" type="curve"/>
      <point x="42.53030303030303" y="1302.1666666666667" type="line"/>
      <point x="139.43939393939394" y="1340.3636363636363"/>
      <point x="247.87878787878788" y="1360.6515151515152"/>
      <point x="364.3939393939394" y="1360.6515151515152" type="curve" smooth="yes"/>
      <point x="575.8030303030303" y="1360.6515151515152"/>
      <point x="680.8636363636364" y="1281.9242424242425"/>
      <point x="680.8636363636364" y="1091.121212121212" type="curve" smooth="yes"/>
      <point x="680.8636363636364" y="965.6060606060606"/>
      <point x="627.9848484848485" y="844.2272727272727"/>
      <point x="483.54545454545456" y="653.030303030303" type="curve" smooth="yes"/>
      <point x="60.04545454545455" y="89.19696969696969" type="line"/>
    </contour>
  </outline>
</glyph>
<glyph name="three" format="2">
  <advance width="1012.2727272727273"/>
  <unicode hex="0033"/>
  <outline>
    <contour>
      <point x="409.07575757575756" y="-18.515151515151516" type="curve" smooth="yes"/>
      <point x="760.9242424242425" y="-18.515151515151516"/>
      <point x="940.7121212121212" y="136.34848484848484"/>
      <point x="940.7121212121212" y="399.6969696969697" type="curve" smooth="yes"/>
      <point x="940.7121212121212" y="613.5454545454545"/>
      <point x="809.6363636363636" y="746.8787878787879"/>
      <point x="568.0909090909091" y="778.3939393939394" type="curve"/>
      <point x="567.3484848484849" y="756.0" type="line"/>
      <point x="768.9545454545455" y="797.4545454545455"/>
      <point x="891.969696969697" y="932.1060606060606"/>
      <point x="891.969696969697" y="1123.1515151515152" type="curve" smooth="yes"/>
      <point x="891.969696969697" y="1361.3939393939395"/>
      <point x="728.6666666666666" y="1498.5151515151515"/>
      <point x="423.9848484848485" y="1498.5151515151515" type="curve" smooth="yes"/>
      <point x="306.3484848484849" y="1498.5151515151515"/>
      <point x="180.24242424242425" y="1478.4848484848485"/>
      <point x="86.6969696969697" y="1444.2575757575758" type="curve"/>
      <point x="86.6969696969697" y="1312.121212121212" type="line"/>
      <point x="190.63636363636363" y="1349.8333333333333"/>
      <point x="300.8484848484849" y="1367.8636363636363"/>
      <point x="411.1060606060606" y="1367.8636363636363" type="curve" smooth="yes"/>
      <point x="624.5909090909091" y="1367.8636363636363"/>
      <point x="733.6212121212121" y="1278.5454545454545"/>
      <point x="733.6212121212121" y="1112.590909090909" type="curve" smooth="yes"/>
      <point x="733.6212121212121" y="928.3939393939394"/>
      <point x="599.1818181818182" y="825.4242424242424"/>
      <point x="333.8333333333333" y="825.4242424242424" type="curve" smooth="yes"/>
      <point x="237.36363636363637" y="825.4242424242424" type="line"/>
      <point x="237.36363636363637" y="693.4848484848485" type="line"/>
      <point x="414.2878787878788" y="693.4848484848485" type="line" smooth="yes"/>
      <point x="670.4242424242424" y="693.4848484848485"/>
      <point x="784.1666666666666" y="587.060606060606"/>
      <point x="784.1666666666666" y="406.9090909090909" type="curve" smooth="yes"/>
      <point x="784.1666666666666" y="214.62121212121212"/>
      <point x="658.4848484848485" y="112.13636363636364"/>
      <point x="404.92424242424244" y="112.13636363636364" type="curve" smooth="yes"/>
      <point x="292.8030303030303" y="112.13636363636364"/>
      <point x="166.33333333333334" y="132.13636363636363"/>
      <point x="51.84848484848485" y="169.78787878787878" type="curve"/>
      <point x="51.84848484848485" y="37.65151515151515" type="line"/>
      <point x="160.96969696969697" y="0.9696969696969697"/>
      <point x="285.0909090909091" y="-18.515151515151516"/>
    </contour>
  </outline>
</glyph>
<glyph name="four" format="2">
  <advance width="1181.060606060606"/>
  <unicode hex="0034"/>
  <outline>
    <contour>
      <point x="47.81818181818182" y="354.8939393939394" type="line"/>
      <point x="1139.9545454545455" y="354.8939393939394" type="line"/>
      <point x="1139.9545454545455" y="487.4090909090909" type="line"/>
      <point x="187.9848484848485" y="487.4090909090909" type="line"/>
      <point x="211.1969696969697" y="443.6363636363636" type="line"/>
      <point x="784.6212121212121" y="1480.0" type="line"/>
      <point x="622.0757575757576" y="1480.0" type="line"/>
      <point x="47.81818181818182" y="445.1212121212121" type="line"/>
    </contour>
    <contour>
      <point x="780.6060606060606" y="0.0" type="line"/>
      <point x="930.5151515151515" y="0.0" type="line"/>
      <point x="930.5151515151515" y="980.0" type="line"/>
      <point x="801.3030303030303" y="980.0" type="line"/>
      <point x="780.6060606060606" y="487.4090909090909" type="line"/>
    </contour>
  </outline>
</glyph>
<glyph name="five" format="2">
  <advance width="1022.560606060606"/>
  <unicode hex="0035"/>
  <outline>
    <contour>
      <point x="436.07575757575756" y="-18.515151515151516" type="curve" smooth="yes"/>
      <point x="783.6060606060606" y="-18.515151515151516"/>
      <point x="966.1969696969697" y="134.12121212121212"/>
      <point x="966.4545454545455" y="418.3939393939394" type="curve" smooth="yes"/>
      <point x="966.7121212121212" y="689.3484848484849"/>
      <point x="792.6212121212121" y="828.2424242424242"/>
      <point x="374.1060606060606" y="852.7575757575758" type="curve" smooth="yes"/>
      <point x="188.07575757575756" y="863.5" type="line"/>
      <point x="290.8181818181818" y="792.5151515151515" type="line"/>
      <point x="333.5" y="1414.2424242424242" type="line"/>
      <point x="259.6060606060606" y="1347.7424242424242" type="line"/>
      <point x="905.2272727272727" y="1347.7424242424242" type="line"/>
      <point x="905.2272727272727" y="1480.0" type="line"/>
      <point x="182.9848484848485" y="1480.0" type="line"/>
      <point x="133.21212121212122" y="734.1363636363636" type="line"/>
      <point x="319.24242424242425" y="723.3939393939394" type="line" smooth="yes"/>
      <point x="686.4848484848485" y="701.9090909090909"/>
      <point x="809.6515151515151" y="609.5909090909091"/>
      <point x="809.6515151515151" y="415.07575757575756" type="curve" smooth="yes"/>
      <point x="809.6515151515151" y="214.9090909090909"/>
      <point x="686.1969696969697" y="113.16666666666667"/>
      <point x="432.6666666666667" y="113.16666666666667" type="curve" smooth="yes"/>
      <point x="316.8333333333333" y="113.16666666666667"/>
      <point x="190.36363636363637" y="134.16666666666669"/>
      <point x="78.10606060606061" y="171.33333333333331" type="curve"/>
      <point x="78.10606060606061" y="39.196969696969695" type="line"/>
      <point x="185.0" y="2.484848484848485"/>
      <point x="310.6060606060606" y="-18.515151515151516"/>
    </contour>
  </outline>
</glyph>
<glyph name="six" format="2">
  <advance width="1150.6969696969697"/>
  <unicode hex="0036"/>
  <outline>
    <contour>
      <point x="641.1818181818182" y="-18.515151515151516" type="curve" smooth="yes"/>
      <point x="904.3181818181818" y="-18.515151515151516"/>
      <point x="1090.560606060606" y="131.62121212121212"/>
      <point x="1090.560606060606" y="419.42424242424244" type="curve" smooth="yes"/>
      <point x="1090.560606060606" y="712.439393939394"/>
      <point x="902.3181818181818" y="850.6666666666666"/>
      <point x="634.030303030303" y="850.6666666666666" type="curve" smooth="yes"/>
      <point x="486.1818181818182" y="850.6666666666666"/>
      <point x="336.8181818181818" y="798.0151515151515"/>
      <point x="252.93939393939394" y="710.6515151515151" type="curve"/>
      <point x="252.93939393939394" y="575.1060606060606" type="line"/>
      <point x="340.0151515151515" y="680.4848484848485"/>
      <point x="486.43939393939394" y="723.3636363636364"/>
      <point x="608.1363636363636" y="723.3636363636364" type="curve" smooth="yes"/>
      <point x="808.4848484848485" y="723.3636363636364"/>
      <point x="938.3939393939394" y="629.560606060606"/>
      <point x="938.3939393939394" y="414.1060606060606" type="curve" smooth="yes"/>
      <point x="938.3939393939394" y="200.9090909090909"/>
      <point x="811.7424242424242" y="109.30303030303031"/>
      <point x="642.439393939394" y="109.30303030303031" type="curve" smooth="yes"/>
      <point x="426.8636363636364" y="109.30303030303031"/>
      <point x="286.0151515151515" y="241.4090909090909"/>
      <point x="286.0151515151515" y="673.969696969697" type="curve" smooth="yes"/>
      <point x="286.0151515151515" y="730.7878787878788" type="line" smooth="yes"/>
      <point x="286.0151515151515" y="1178.439393939394"/>
      <point x="446.33333333333337" y="1365.8030303030303"/>
      <point x="757.560606060606" y="1365.8030303030303" type="curve" smooth="yes"/>
      <point x="846.0" y="1365.8030303030303"/>
      <point x="942.2878787878788" y="1352.2878787878788"/>
      <point x="1022.1818181818182" y="1320.5454545454545" type="curve"/>
      <point x="1022.1818181818182" y="1454.7424242424242" type="line"/>
      <point x="943.2878787878788" y="1486.5151515151515"/>
      <point x="846.9090909090909" y="1498.5151515151515"/>
      <point x="752.3787878787879" y="1498.5151515151515" type="curve" smooth="yes"/>
      <point x="349.2121212121212" y="1498.5151515151515"/>
      <point x="125.86363636363636" y="1250.2727272727273"/>
      <point x="125.86363636363636" y="692.0" type="curve" smooth="yes"/>
      <point x="125.86363636363636" y="172.75757575757575"/>
      <point x="333.8030303030303" y="-18.515151515151516"/>
    </contour>
  </outline>
</glyph>
<glyph name="seven" format="2">
  <advance width="939.9090909090909"/>
  <unicode hex="0037"/>
  <outline>
    <contour>
      <point x="170.46969696969697" y="0.0" type="line"/>
      <point x="339.030303030303" y="0.0" type="line"/>
      <point x="881.4242424242425" y="1390.8030303030303" type="line"/>
      <point x="881.4242424242425" y="1480.0" type="line"/>
      <point x="11.742424242424242" y="1480.0" type="line"/>
      <point x="11.742424242424242" y="1341.0454545454545" type="line"/>
      <point x="770.3636363636364" y="1341.0454545454545" type="line"/>
      <point x="722.8484848484849" y="1392.2878787878788" type="line"/>
    </contour>
  </outline>
</glyph>
<glyph name="eight" format="2">
  <advance width="1249.2575757575758"/>
  <unicode hex="0038"/>
  <outline>
    <contour>
      <point x="633.1818181818182" y="-18.515151515151516" type="curve" smooth="yes"/>
      <point x="966.3484848484849" y="-18.515151515151516"/>
      <point x="1149.0454545454545" y="142.8181818181818"/>
      <point x="1149.0454545454545" y="381.1666666666667" type="curve" smooth="yes"/>
      <point x="1149.0454545454545" y="593.7121212121212"/>
      <point x="1026.1666666666667" y="718.1212121212121"/>
      <point x="681.4848484848485" y="803.6212121212121" type="curve" smooth="yes"/>
      <point x="388.43939393939394" y="874.6818181818181"/>
      <point x="304.6060606060606" y="959.4848484848485"/>
      <point x="304.6060606060606" y="1118.439393939394" type="curve" smooth="yes"/>
      <point x="304.6060606060606" y="1275.0151515151515"/>
      <point x="412.8636363636364" y="1374.560606060606"/>
      <point x="625.969696969697" y="1374.560606060606" type="curve" smooth="yes"/>
      <point x="834.6969696969697" y="1374.560606060606"/>
      <point x="955.1212121212121" y="1283.0151515151515"/>
      <point x="955.1212121212121" y="1113.409090909091" type="curve" smooth="yes"/>
      <point x="955.1212121212121" y="959.6515151515151"/>
      <point x="877.1969696969697" y="864.1818181818181"/>
      <point x="693.0909090909091" y="785.8181818181819" type="curve"/>
      <point x="807.4545454545455" y="736.0151515151515" type="line"/>
      <point x="1003.6969696969697" y="813.5909090909091"/>
      <point x="1100.909090909091" y="948.5909090909091"/>
      <point x="1100.909090909091" y="1125.4848484848485" type="curve" smooth="yes"/>
      <point x="1100.909090909091" y="1356.5151515151515"/>
      <point x="923.8636363636364" y="1498.5151515151515"/>
      <point x="628.0" y="1498.5151515151515" type="curve" smooth="yes"/>
      <point x="321.3636363636364" y="1498.5151515151515"/>
      <point x="146.57575757575756" y="1347.5"/>
      <point x="146.57575757575756" y="1112.8333333333333" type="curve" smooth="yes"/>
      <point x="146.57575757575756" y="897.1212121212121"/>
      <point x="272.77272727272725" y="760.8181818181819"/>
      <point x="617.6818181818182" y="678.1515151515151" type="curve" smooth="yes"/>
      <point x="900.4090909090909" y="610.1818181818181"/>
      <point x="992.560606060606" y="533.0"/>
      <point x="992.560606060606" y="371.27272727272725" type="curve" smooth="yes"/>
      <point x="992.560606060606" y="201.95454545454544"/>
      <point x="867.1969696969697" y="105.43939393939394"/>
      <point x="634.1818181818182" y="105.43939393939394" type="curve" smooth="yes"/>
      <point x="382.8636363636364" y="105.43939393939394"/>
      <point x="255.43939393939394" y="204.9848484848485"/>
      <point x="255.43939393939394" y="385.59090909090907" type="curve" smooth="yes"/>
      <point x="255.43939393939394" y="541.030303030303"/>
      <point x="354.21212121212125" y="666.8939393939394"/>
      <point x="541.2121212121212" y="721.3181818181819" type="curve"/>
      <point x="418.6969696969697" y="771.8333333333334" type="line"/>
      <point x="218.0909090909091" y="705.5757575757576"/>
      <point x="99.18181818181819" y="561.6969696969697"/>
      <point x="99.18181818181819" y="370.969696969697" type="curve" smooth="yes"/>
      <point x="99.18181818181819" y="127.95454545454545"/>
      <point x="280.72727272727275" y="-18.515151515151516"/>
    </contour>
  </outline>
</glyph>
<glyph name="nine" format="2">
  <advance width="1150.6969696969697"/>
  <unicode hex="0039"/>
  <outline>
    <contour>
      <point x="509.5151515151515" y="1498.5151515151515" type="curve" smooth="yes"/>
      <point x="246.37878787878788" y="1498.5151515151515"/>
      <point x="60.13636363636364" y="1348.378787878788"/>
      <point x="60.13636363636364" y="1060.5757575757575" type="curve" smooth="yes"/>
      <point x="60.13636363636364" y="767.560606060606"/>
      <point x="248.37878787878788" y="629.3333333333334"/>
      <point x="516.6666666666666" y="629.3333333333334" type="curve" smooth="yes"/>
      <point x="664.5151515151515" y="629.3333333333334"/>
      <point x="813.8787878787879" y="681.9848484848485"/>
      <point x="897.7575757575758" y="769.3484848484849" type="curve"/>
      <point x="897.7575757575758" y="904.8939393939394" type="line"/>
      <point x="810.6818181818182" y="799.5151515151515"/>
      <point x="664.2575757575758" y="756.6363636363636"/>
      <point x="542.560606060606" y="756.6363636363636" type="curve" smooth="yes"/>
      <point x="342.21212121212125" y="756.6363636363636"/>
      <point x="212.3030303030303" y="850.439393939394"/>
      <point x="212.3030303030303" y="1065.8939393939395" type="curve" smooth="yes"/>
      <point x="212.3030303030303" y="1279.090909090909"/>
      <point x="338.95454545454544" y="1370.6969696969697"/>
      <point x="508.25757575757575" y="1370.6969696969697" type="curve" smooth="yes"/>
      <point x="723.8333333333334" y="1370.6969696969697"/>
      <point x="864.6818181818182" y="1238.590909090909"/>
      <point x="864.6818181818182" y="806.030303030303" type="curve" smooth="yes"/>
      <point x="864.6818181818182" y="749.2121212121212" type="line" smooth="yes"/>
      <point x="864.6818181818182" y="301.56060606060606"/>
      <point x="704.3636363636364" y="114.19696969696969"/>
      <point x="393.1363636363636" y="114.19696969696969" type="curve" smooth="yes"/>
      <point x="304.6969696969697" y="114.19696969696969"/>
      <point x="208.4090909090909" y="127.7121212121212"/>
      <point x="128.5151515151515" y="159.45454545454547" type="curve"/>
      <point x="128.5151515151515" y="25.257575757575758" type="line"/>
      <point x="207.4090909090909" y="-6.515151515151516"/>
      <point x="303.7878787878788" y="-18.515151515151516"/>
      <point x="398.3181818181818" y="-18.515151515151516" type="curve" smooth="yes"/>
      <point x="801.4848484848485" y="-18.515151515151516"/>
      <point x="1024.8333333333333" y="229.72727272727272"/>
      <point x="1024.8333333333333" y="788.0" type="curve" smooth="yes"/>
      <point x="1024.8333333333333" y="1307.2424242424242"/>
      <point x="816.8939393939394" y="1498.5151515151515"/>
    </contour>
  </outline>
</glyph>
<glyph name="colon" format="2">
  <advance width="461.1212121212121"/>
  <unicode hex="003A"/>
  <outline>
    <contour>
      <point x="230.56060606060606" y="-12.575757575757576" type="curve" smooth="yes"/>
      <point x="299.27272727272725" y="-12.575757575757576"/>
      <point x="345.6212121212121" y="30.742424242424242"/>
      <point x="345.6212121212121" y="97.5909090909091" type="curve" smooth="yes"/>
      <point x="345.6212121212121" y="164.43939393939394"/>
      <point x="300.3030303030303" y="209.24242424242425"/>
      <point x="230.56060606060606" y="209.24242424242425" type="curve" smooth="yes"/>
      <point x="160.8181818181818" y="209.24242424242425"/>
      <point x="115.5" y="165.46969696969697"/>
      <point x="115.5" y="97.5909090909091" type="curve" smooth="yes"/>
      <point x="115.5" y="29.71212121212121"/>
      <point x="161.84848484848484" y="-12.575757575757576"/>
    </contour>
    <contour>
      <point x="230.56060606060606" y="875.9090909090909" type="curve" smooth="yes"/>
      <point x="299.27272727272725" y="875.9090909090909"/>
      <point x="345.6212121212121" y="919.2272727272727"/>
      <point x="345.6212121212121" y="986.0757575757576" type="curve" smooth="yes"/>
      <point x="345.6212121212121" y="1052.9242424242425"/>
      <point x="300.3030303030303" y="1097.7272727272727"/>
      <point x="230.56060606060606" y="1097.7272727272727" type="curve" smooth="yes"/>
      <point x="160.8181818181818" y="1097.7272727272727"/>
      <point x="115.5" y="1053.9545454545455"/>
      <point x="115.5" y="986.0757575757576" type="curve" smooth="yes"/>
      <point x="115.5" y="918.1969696969697"/>
      <point x="161.84848484848484" y="875.9090909090909"/>
    </contour>
  </outline>
</glyph>
<glyph name="semicolon" format="2">
  <advance width="461.1212121212121"/>
  <unicode hex="003B"/>
  <outline>
    <contour>
      <point x="150.16666666666666" y="-315.45454545454544" type="curve"/>
      <point x="244.65151515151516" y="-315.45454545454544" type="line"/>
      <point x="303.25757575757575" y="-209.0909090909091"/>
      <point x="345.1060606060606" y="-74.48484848484848"/>
      <point x="345.1060606060606" y="63.68181818181819" type="curve" smooth="yes"/>
      <point x="345.1060606060606" y="163.34848484848484"/>
      <point x="301.5909090909091" y="209.24242424242425"/>
      <point x="227.53030303030303" y="209.24242424242425" type="curve" smooth="yes"/>
      <point x="159.33333333333334" y="209.24242424242425"/>
      <point x="115.5" y="166.24242424242425"/>
      <point x="115.5" y="99.07575757575758" type="curve" smooth="yes"/>
      <point x="115.5" y="31.196969696969695"/>
      <point x="162.36363636363637" y="-12.575757575757576"/>
      <point x="230.56060606060606" y="-12.575757575757576" type="curve" smooth="yes"/>
      <point x="252.86363636363637" y="-12.575757575757576" type="line"/>
      <point x="224.9090909090909" y="22.303030303030305" type="line"/>
      <point x="224.9090909090909" y="-87.93939393939394"/>
      <point x="196.9848484848485" y="-191.15151515151516"/>
    </contour>
    <contour>
      <point x="230.56060606060606" y="875.9090909090909" type="curve" smooth="yes"/>
      <point x="299.27272727272725" y="875.9090909090909"/>
      <point x="345.6212121212121" y="919.2272727272727"/>
      <point x="345.6212121212121" y="986.0757575757576" type="curve" smooth="yes"/>
      <point x="345.6212121212121" y="1052.9242424242425"/>
      <point x="300.3030303030303" y="1097.7272727272727"/>
      <point x="230.56060606060606" y="1097.7272727272727" type="curve" smooth="yes"/>
      <point x="160.8181818181818" y="1097.7272727272727"/>
      <point x="115.5" y="1053.9545454545455"/>
      <point x="115.5" y="986.0757575757576" type="curve" smooth="yes"/>
      <point x="115.5" y="918.1969696969697"/>
      <point x="161.84848484848484" y="875.9090909090909"/>
    </contour>
  </outline>
</glyph>
<glyph name="less" format="2">
  <advance width="1075.909090909091"/>
  <unicode hex="003C"/>
  <outline>
    <contour>
      <point x="927.1969696969697" y="359.6363636363636" type="line"/>
      <point x="927.1969696969697" y="495.5151515151515" type="line"/>
      <point x="254.6969696969697" y="774.8333333333334" type="line"/>
      <point x="254.6969696969697" y="746.4545454545455" type="line"/>
      <point x="927.1969696969697" y="1024.4848484848485" type="line"/>
      <point x="927.1969696969697" y="1160.3636363636363" type="line"/>
      <point x="148.71212121212122" y="831.8484848484849" type="line"/>
      <point x="148.71212121212122" y="688.1515151515151" type="line"/>
    </contour>
  </outline>
</glyph>
<glyph name="equal" format="2">
  <advance width="1075.909090909091"/>
  <unicode hex="003D"/>
  <outline>
    <contour>
      <point x="148.71212121212122" y="891.969696969697" type="line"/>
      <point x="927.1969696969697" y="891.969696969697" type="line"/>
      <point x="927.1969696969697" y="1021.9090909090909" type="line"/>
      <point x="148.71212121212122" y="1021.9090909090909" type="line"/>
    </contour>
    <contour>
      <point x="148.71212121212122" y="498.0909090909091" type="line"/>
      <point x="927.1969696969697" y="498.0909090909091" type="line"/>
      <point x="927.1969696969697" y="628.030303030303" type="line"/>
      <point x="148.71212121212122" y="628.030303030303" type="line"/>
    </contour>
  </outline>
</glyph>
<glyph name="greater" format="2">
  <advance width="1075.909090909091"/>
  <unicode hex="003E"/>
  <outline>
    <contour>
      <point x="148.71212121212122" y="359.6363636363636" type="line"/>
      <point x="927.1969696969697" y="688.1515151515151" type="line"/>
      <point x="927.1969696969697" y="831.8484848484849" type="line"/>
      <point x="148.71212121212122" y="1160.3636363636363" type="line"/>
      <point x="148.71212121212122" y="1024.4848484848485" type="line"/>
      <point x="821.2121212121212" y="746.4545454545455" type="line"/>
      <point x="821.2121212121212" y="774.8333333333334" type="line"/>
      <point x="148.71212121212122" y="495.5151515151515" type="line"/>
    </contour>
  </outline>
</glyph>
<glyph name="question" format="2">
  <advance width="903.7424242424242"/>
  <unicode hex="003F"/>
  <outline>
    <contour>
      <point x="354.8484848484849" y="359.75757575757575" type="line"/>
      <point x="456.6818181818182" y="359.75757575757575" type="line"/>
      <point x="471.57575757575756" y="682.4242424242424" type="line"/>
      <point x="739.1818181818182" y="783.0"/>
      <point x="844.6363636363636" y="910.3181818181819"/>
      <point x="844.6363636363636" y="1121.8636363636363" type="curve" smooth="yes"/>
      <point x="844.6363636363636" y="1361.3939393939395"/>
      <point x="681.3333333333334" y="1498.5151515151515"/>
      <point x="376.6515151515151" y="1498.5151515151515" type="curve" smooth="yes"/>
      <point x="259.0151515151515" y="1498.5151515151515"/>
      <point x="132.9090909090909" y="1478.4848484848485"/>
      <point x="39.36363636363637" y="1444.2575757575758" type="curve"/>
      <point x="39.36363636363637" y="1309.5454545454545" type="line"/>
      <point x="143.3030303030303" y="1347.2575757575758"/>
      <point x="253.0" y="1365.2878787878788"/>
      <point x="362.5151515151515" y="1365.2878787878788" type="curve" smooth="yes"/>
      <point x="577.2575757575758" y="1365.2878787878788"/>
      <point x="686.2878787878788" y="1276.7424242424242"/>
      <point x="686.2878787878788" y="1112.0757575757575" type="curve" smooth="yes"/>
      <point x="686.2878787878788" y="950.1818181818181"/>
      <point x="600.2424242424242" y="850.8333333333334"/>
      <point x="327.1363636363636" y="766.8333333333334" type="curve"/>
    </contour>
    <contour>
      <point x="405.8939393939394" y="-12.575757575757576" type="curve" smooth="yes"/>
      <point x="476.0909090909091" y="-12.575757575757576"/>
      <point x="520.9545454545455" y="31.196969696969695"/>
      <point x="520.9545454545455" y="94.24242424242425" type="curve" smooth="yes"/>
      <point x="520.9545454545455" y="158.77272727272725"/>
      <point x="475.6363636363636" y="202.54545454545456"/>
      <point x="405.8939393939394" y="202.54545454545456" type="curve" smooth="yes"/>
      <point x="336.1515151515151" y="202.54545454545456"/>
      <point x="290.8333333333333" y="159.8030303030303"/>
      <point x="290.8333333333333" y="94.24242424242425" type="curve" smooth="yes"/>
      <point x="290.8333333333333" y="30.166666666666664"/>
      <point x="337.1818181818182" y="-12.575757575757576"/>
    </contour>
  </outline>
</glyph>
<glyph name="at" format="2">
  <advance width="1916.2272727272727"/>
  <unicode hex="0040"/>
  <outline>
    <contour>
      <point x="1005.2272727272727" y="-460.0" type="curve" smooth="yes"/>
      <point x="1145.0151515151515" y="-460.0"/>
      <point x="1282.030303030303" y="-439.030303030303"/>
      <point x="1401.4545454545455" y="-404.5151515151515" type="curve"/>
      <point x="1401.4545454545455" y="-285.5151515151515" type="line"/>
      <point x="1265.9242424242425" y="-323.74242424242425"/>
      <point x="1141.3030303030303" y="-342.4848484848485"/>
      <point x="1005.2272727272727" y="-342.4848484848485" type="curve" smooth="yes"/>
      <point x="493.8939393939394" y="-342.4848484848485"/>
      <point x="239.1969696969697" y="-102.22727272727273"/>
      <point x="239.1969696969697" y="522.969696969697" type="curve" smooth="yes"/>
      <point x="239.1969696969697" y="1137.7727272727273"/>
      <point x="492.4090909090909" y="1380.4848484848485"/>
      <point x="964.5151515151515" y="1380.4848484848485" type="curve" smooth="yes"/>
      <point x="1436.1363636363635" y="1380.4848484848485"/>
      <point x="1685.1515151515152" y="1142.8030303030303"/>
      <point x="1686.1818181818182" y="560.6969696969697" type="curve" smooth="yes"/>
      <point x="1686.9545454545455" y="211.65151515151516"/>
      <point x="1589.8939393939395" y="99.0"/>
      <point x="1481.6818181818182" y="99.0" type="curve" smooth="yes"/>
      <point x="1399.7575757575758" y="99.0"/>
      <point x="1359.590909090909" y="144.07575757575756"/>
      <point x="1359.590909090909" y="256.3939393939394" type="curve" smooth="yes"/>
      <point x="1359.590909090909" y="711.9090909090909" type="line" smooth="yes"/>
      <point x="1359.590909090909" y="1001.1818181818181"/>
      <point x="1217.8636363636365" y="1096.5151515151515"/>
      <point x="947.9090909090909" y="1096.5151515151515" type="curve" smooth="yes"/>
      <point x="848.1818181818182" y="1096.5151515151515"/>
      <point x="728.4848484848485" y="1078.7424242424242"/>
      <point x="637.5" y="1045.7121212121212" type="curve"/>
      <point x="636.9848484848485" y="914.6060606060606" type="line"/>
      <point x="737.8939393939394" y="950.5757575757576"/>
      <point x="845.469696969697" y="965.8636363636364"/>
      <point x="927.3030303030303" y="965.8636363636364" type="curve" smooth="yes"/>
      <point x="1109.1515151515152" y="965.8636363636364"/>
      <point x="1202.469696969697" y="911.469696969697"/>
      <point x="1202.469696969697" y="716.8030303030303" type="curve" smooth="yes"/>
      <point x="1202.469696969697" y="239.57575757575756" type="line"/>
      <point x="1127.6969696969697" y="144.36363636363637"/>
      <point x="1023.469696969697" y="106.66666666666666"/>
      <point x="929.6515151515151" y="106.66666666666666" type="curve" smooth="yes"/>
      <point x="795.2121212121212" y="106.66666666666666"/>
      <point x="722.7121212121212" y="170.0151515151515"/>
      <point x="722.7121212121212" y="293.8636363636364" type="curve" smooth="yes"/>
      <point x="722.7121212121212" y="412.06060606060606"/>
      <point x="794.6363636363636" y="474.469696969697"/>
      <point x="957.8181818181818" y="492.8333333333333" type="curve" smooth="yes"/>
      <point x="1258.469696969697" y="526.1060606060606" type="line"/>
      <point x="1246.1060606060605" y="630.7424242424242" type="line"/>
      <point x="947.2272727272727" y="597.469696969697" type="line" smooth="yes"/>
      <point x="678.8939393939394" y="570.530303030303"/>
      <point x="560.6212121212121" y="467.09090909090907"/>
      <point x="560.6212121212121" y="277.8181818181818" type="curve" smooth="yes"/>
      <point x="560.6212121212121" y="92.21212121212122"/>
      <point x="685.969696969697" y="-17.545454545454547"/>
      <point x="889.560606060606" y="-17.545454545454547" type="curve" smooth="yes"/>
      <point x="1018.6969696969697" y="-17.545454545454547"/>
      <point x="1138.121212121212" y="31.81818181818182"/>
      <point x="1205.3333333333333" y="127.54545454545455" type="curve"/>
      <point x="1217.4242424242425" y="127.54545454545455" type="line"/>
      <point x="1250.590909090909" y="37.13636363636364"/>
      <point x="1328.530303030303" y="-17.545454545454547"/>
      <point x="1453.2121212121212" y="-17.545454545454547" type="curve" smooth="yes"/>
      <point x="1655.3030303030303" y="-17.545454545454547"/>
      <point x="1810.1060606060605" y="145.93939393939394"/>
      <point x="1810.8484848484848" y="567.2121212121212" type="curve" smooth="yes"/>
      <point x="1811.590909090909" y="1199.1969696969697"/>
      <point x="1508.439393939394" y="1498.0"/>
      <point x="964.5151515151515" y="1498.0" type="curve" smooth="yes"/>
      <point x="420.8484848484849" y="1498.0"/>
      <point x="105.37878787878788" y="1199.1969696969697"/>
      <point x="105.37878787878788" y="520.0" type="curve" smooth="yes"/>
      <point x="105.37878787878788" y="-163.65151515151516"/>
      <point x="423.07575757575756" y="-459.25757575757575"/>
    </contour>
  </outline>
</glyph>
<glyph name="A" format="2">
  <advance width="1348.8484848484848"/>
  <unicode hex="0041"/>
  <note>
520
</note>
  <anchor x="675.1666666666666" y="0.0" name="bottom"/>
  <anchor x="1320.348484848485" y="0.0" name="ogonek"/>
  <anchor x="674.9090909090909" y="1520.0" name="top"/>
  <outline>
    <contour>
      <point x="28.5" y="0.0" type="line"/>
      <point x="190.87878787878788" y="0.0" type="line"/>
      <point x="686.7121212121212" y="1402.6515151515152" type="line"/>
      <point x="659.1060606060606" y="1402.6515151515152" type="line"/>
      <point x="1155.4545454545455" y="0.0" type="line"/>
      <point x="1320.348484848485" y="0.0" type="line"/>
      <point x="788.5151515151515" y="1480.0" type="line"/>
      <point x="560.3333333333334" y="1480.0" type="line"/>
    </contour>
    <contour>
      <point x="306.92424242424244" y="479.3181818181818" type="line"/>
      <point x="1041.1515151515152" y="479.3181818181818" type="line"/>
      <point x="1003.1212121212121" y="615.8939393939394" type="line"/>
      <point x="345.2121212121212" y="615.8939393939394" type="line"/>
    </contour>
  </outline>
</glyph>
<glyph name="B" format="2">
  <advance width="1258.7575757575758"/>
  <unicode hex="0042"/>
  <anchor x="644.8636363636364" y="0.0" name="bottom"/>
  <anchor x="644.8636363636364" y="1480.0" name="top"/>
  <outline>
    <contour>
      <point x="534.2727272727273" y="-12.575757575757576" type="curve" smooth="yes"/>
      <point x="1006.0757575757576" y="-12.575757575757576"/>
      <point x="1186.090909090909" y="132.6060606060606"/>
      <point x="1186.090909090909" y="402.469696969697" type="curve" smooth="yes"/>
      <point x="1186.090909090909" y="606.530303030303"/>
      <point x="1073.7121212121212" y="742.969696969697"/>
      <point x="842.439393939394" y="770.2272727272727" type="curve"/>
      <point x="840.2121212121212" y="756.0" type="line"/>
      <point x="1055.2272727272727" y="789.2575757575758"/>
      <point x="1143.8636363636365" y="929.8484848484849"/>
      <point x="1143.8636363636365" y="1101.2424242424242" type="curve" smooth="yes"/>
      <point x="1143.8636363636365" y="1366.4242424242425"/>
      <point x="974.2727272727273" y="1495.5454545454545"/>
      <point x="575.5454545454545" y="1495.5454545454545" type="curve" smooth="yes"/>
      <point x="422.16666666666663" y="1495.5454545454545"/>
      <point x="290.8939393939394" y="1480.1969696969697"/>
      <point x="169.13636363636363" y="1455.1060606060605" type="curve"/>
      <point x="169.13636363636363" y="10.772727272727273" type="line"/>
      <point x="294.6818181818182" y="-5.257575757575758"/>
      <point x="415.6969696969697" y="-12.575757575757576"/>
    </contour>
    <contour>
      <point x="567.1818181818181" y="116.27272727272728" type="curve" smooth="yes"/>
      <point x="480.0909090909091" y="116.27272727272728"/>
      <point x="406.3939393939394" y="119.5"/>
      <point x="328.5757575757576" y="129.6969696969697" type="curve"/>
      <point x="328.5757575757576" y="1345.7575757575758" type="line"/>
      <point x="403.07575757575756" y="1359.2121212121212"/>
      <point x="481.3181818181818" y="1366.6969696969697"/>
      <point x="590.2575757575758" y="1366.6969696969697" type="curve" smooth="yes"/>
      <point x="878.1515151515151" y="1366.6969696969697"/>
      <point x="988.3181818181819" y="1288.060606060606"/>
      <point x="988.3181818181819" y="1095.060606060606" type="curve" smooth="yes"/>
      <point x="988.3181818181819" y="914.4545454545455"/>
      <point x="885.3484848484849" y="824.9090909090909"/>
      <point x="618.5" y="824.9090909090909" type="curve" smooth="yes"/>
      <point x="305.8787878787879" y="824.9090909090909" type="line"/>
      <point x="305.8787878787879" y="693.7424242424242" type="line"/>
      <point x="647.0454545454545" y="693.7424242424242" type="line" smooth="yes"/>
      <point x="912.7272727272727" y="693.7424242424242"/>
      <point x="1031.6060606060605" y="602.4545454545455"/>
      <point x="1031.6060606060605" y="407.3636363636364" type="curve" smooth="yes"/>
      <point x="1031.6060606060605" y="211.3030303030303"/>
      <point x="917.4090909090909" y="116.27272727272728"/>
    </contour>
  </outline>
</glyph>
<glyph name="F" format="2">
  <advance width="1125.0"/>
  <unicode hex="0046"/>
  <outline>
    <contour>
      <point x="169.13636363636363" y="0.0" type="line"/>
      <point x="331.4090909090909" y="0.0" type="line"/>
      <point x="331.4090909090909" y="1341.1060606060605" type="line"/>
      <point x="1077.3181818181818" y="1341.1060606060605" type="line"/>
      <point x="1077.3181818181818" y="1480.0" type="line"/>
      <point x="169.13636363636363" y="1480.0" type="line"/>
    </contour>
    <contour>
      <point x="282.969696969697" y="677.5151515151515" type="line"/>
      <point x="979.7424242424242" y="677.5151515151515" type="line"/>
      <point x="979.7424242424242" y="816.4090909090909" type="line"/>
      <point x="282.969696969697" y="816.4090909090909" type="line"/>
    </contour>
  </outline>
</glyph>
<glyph name="H" format="2">
  <advance width="1444.878787878788"/>
  <unicode hex="0048"/>
  <anchor x="722.6969696969697" y="0.0" name="bottom"/>
  <anchor x="722.6969696969697" y="1158.2878787878788" name="center"/>
  <anchor x="722.6969696969697" y="1520.0" name="top"/>
  <anchor x="39.71212121212121" y="1480.0" name="topleft"/>
  <outline>
    <contour>
      <point x="169.13636363636363" y="0.0" type="line"/>
      <point x="331.4090909090909" y="0.0" type="line"/>
      <point x="331.4090909090909" y="686.0151515151515" type="line"/>
      <point x="1113.469696969697" y="686.0151515151515" type="line"/>
      <point x="1113.469696969697" y="0.0" type="line"/>
      <point x="1275.7424242424242" y="0.0" type="line"/>
      <point x="1275.7424242424242" y="1480.0" type="line"/>
      <point x="1113.469696969697" y="1480.0" type="line"/>
      <point x="1113.469696969697" y="832.8939393939394" type="line"/>
      <point x="331.4090909090909" y="832.8939393939394" type="line"/>
      <point x="331.4090909090909" y="1480.0" type="line"/>
      <point x="169.13636363636363" y="1480.0" type="line"/>
    </contour>
  </outline>
</glyph>
<glyph name="I" format="2">
  <advance width="500.54545454545456"/>
  <unicode hex="0049"/>
  <anchor x="250.0151515151515" y="0.0" name="bottom"/>
  <anchor x="331.4090909090909" y="0.0" name="ogonek"/>
  <anchor x="250.27272727272728" y="1520.0" name="top"/>
  <outline>
    <contour>
      <point x="169.13636363636363" y="0.0" type="line"/>
      <point x="331.4090909090909" y="0.0" type="line"/>
      <point x="331.4090909090909" y="1480.0" type="line"/>
      <point x="169.13636363636363" y="1480.0" type="line"/>
    </contour>
  </outline>
</glyph>
<glyph name="J" format="2">
  <advance width="500.54545454545456"/>
  <unicode hex="004A"/>
  <anchor x="370.0151515151515" y="0.0" name="bottom"/>
  <anchor x="250.53030303030303" y="1520.0" name="top"/>
  <outline>
    <contour>
      <point x="98.22727272727272" y="-343.6060606060606" type="line"/>
      <point x="263.57575757575756" y="-140.45454545454547"/>
      <point x="323.24242424242425" y="34.36363636363636"/>
      <point x="331.4090909090909" y="270.25757575757575" type="curve"/>
      <point x="331.4090909090909" y="1480.0" type="line"/>
      <point x="169.65151515151516" y="1480.0" type="line"/>
      <point x="169.65151515151516" y="290.6363636363636" type="line" smooth="yes"/>
      <point x="169.65151515151516" y="59.39393939393939"/>
      <point x="118.0909090909091" y="-97.78787878787878"/>
      <point x="-8.727272727272727" y="-270.74242424242425" type="curve"/>
    </contour>
  </outline>
</glyph>
<glyph name="K" format="2">
  <advance width="1236.8333333333333"/>
  <unicode hex="004B"/>
  <anchor x="645.6212121212121" y="0.0" name="bottom"/>
  <anchor x="643.3030303030303" y="1480.0" name="top"/>
  <outline>
    <contour>
      <point x="1076.5757575757575" y="0.0" type="line"/>
      <point x="1259.969696969697" y="0.0" type="line"/>
      <point x="659.3939393939394" y="784.3030303030303" type="line"/>
      <point x="657.3333333333333" y="738.1515151515151" type="line"/>
      <point x="1217.7121212121212" y="1480.0" type="line"/>
      <point x="1039.6666666666667" y="1480.0" type="line"/>
      <point x="494.43939393939394" y="756.4545454545455" type="line"/>
    </contour>
    <contour>
      <point x="169.13636363636363" y="0.0" type="line"/>
      <point x="331.4090909090909" y="0.0" type="line"/>
      <point x="331.4090909090909" y="1480.0" type="line"/>
      <point x="169.13636363636363" y="1480.0" type="line"/>
    </contour>
    <contour>
      <point x="304.59090909090907" y="686.0151515151515" type="line"/>
      <point x="569.3484848484849" y="686.0151515151515" type="line"/>
      <point x="569.3484848484849" y="832.1515151515151" type="line"/>
      <point x="304.59090909090907" y="832.1515151515151" type="line"/>
    </contour>
  </outline>
</glyph>
<glyph name="L" format="2">
  <advance width="1071.3030303030303"/>
  <unicode hex="004C"/>
  <anchor x="615.1060606060606" y="0.0" name="bottom"/>
  <anchor x="699.4848484848485" y="1616.0" name="caronalt"/>
  <anchor x="775.939393939394" y="809.5454545454545" name="periodcentered"/>
  <anchor x="251.3030303030303" y="794.6060606060606" name="slash"/>
  <anchor x="251.3030303030303" y="1520.0" name="top"/>
  <outline>
    <contour>
      <point x="169.13636363636363" y="0.0" type="line"/>
      <point x="1059.590909090909" y="0.0" type="line"/>
      <point x="1059.590909090909" y="140.95454545454544" type="line"/>
      <point x="331.4090909090909" y="140.95454545454544" type="line"/>
      <point x="331.4090909090909" y="1480.0" type="line"/>
      <point x="169.13636363636363" y="1480.0" type="line"/>
    </contour>
  </outline>
</glyph>
<glyph name="M" format="2">
  <advance width="1760.0"/>
  <unicode hex="004D"/>
  <anchor x="887.469696969697" y="0.0" name="bottom"/>
  <anchor x="887.469696969697" y="1480.0" name="top"/>
  <outline>
    <contour>
      <point x="173.13636363636363" y="0.0" type="line"/>
      <point x="326.1969696969697" y="0.0" type="line"/>
      <point x="326.1969696969697" y="1339.060606060606" type="line"/>
      <point x="273.5151515151515" y="1339.060606060606" type="line"/>
      <point x="806.969696969697" y="205.15151515151516" type="line"/>
      <point x="953.030303030303" y="205.15151515151516" type="line"/>
      <point x="1480.1060606060605" y="1339.060606060606" type="line"/>
      <point x="1433.8030303030303" y="1339.060606060606" type="line"/>
      <point x="1433.8030303030303" y="0.0" type="line"/>
      <point x="1586.8636363636365" y="0.0" type="line"/>
      <point x="1586.8636363636365" y="1480.0" type="line"/>
      <point x="1394.409090909091" y="1480.0" type="line"/>
      <point x="866.0" y="330.9090909090909" type="line"/>
      <point x="900.5757575757576" y="330.9090909090909" type="line"/>
      <point x="365.5909090909091" y="1480.0" type="line"/>
      <point x="173.13636363636363" y="1480.0" type="line"/>
    </contour>
  </outline>
</glyph>
<glyph name="P" format="2">
  <advance width="1232.6818181818182"/>
  <unicode hex="0050"/>
  <outline>
    <contour>
      <point x="169.13636363636363" y="0.0" type="line"/>
      <point x="331.4090909090909" y="0.0" type="line"/>
      <point x="331.4090909090909" y="493.969696969697" type="line"/>
      <point x="399.3333333333333" y="488.030303030303"/>
      <point x="456.8333333333333" y="485.2878787878788"/>
      <point x="525.7878787878788" y="485.2878787878788" type="curve" smooth="yes"/>
      <point x="949.0757575757575" y="485.2878787878788"/>
      <point x="1143.2121212121212" y="662.1515151515151"/>
      <point x="1143.2121212121212" y="991.030303030303" type="curve" smooth="yes"/>
      <point x="1143.2121212121212" y="1339.6515151515152"/>
      <point x="939.3939393939394" y="1495.5454545454545"/>
      <point x="548.8030303030303" y="1495.5454545454545" type="curve" smooth="yes"/>
      <point x="411.3484848484849" y="1495.5454545454545"/>
      <point x="291.6666666666667" y="1481.4848484848485"/>
      <point x="169.13636363636363" y="1458.1666666666667" type="curve"/>
    </contour>
    <contour>
      <point x="529.0454545454545" y="616.7121212121212" type="curve" smooth="yes"/>
      <point x="456.0909090909091" y="616.7121212121212"/>
      <point x="395.3939393939394" y="620.1969696969697"/>
      <point x="331.4090909090909" y="628.9090909090909" type="curve"/>
      <point x="331.4090909090909" y="1345.7272727272727" type="line"/>
      <point x="401.27272727272725" y="1357.6666666666667"/>
      <point x="473.07575757575756" y="1364.121212121212"/>
      <point x="559.6212121212121" y="1364.121212121212" type="curve" smooth="yes"/>
      <point x="843.9545454545455" y="1364.121212121212"/>
      <point x="981.8333333333334" y="1251.060606060606"/>
      <point x="981.8333333333334" y="988.2878787878788" type="curve" smooth="yes"/>
      <point x="981.8333333333334" y="736.1060606060606"/>
      <point x="846.9242424242424" y="616.7121212121212"/>
    </contour>
  </outline>
</glyph>
<glyph name="Q" format="2">
  <advance width="1439.090909090909"/>
  <unicode hex="0051"/>
  <outline>
    <contour>
      <point x="1283.5757575757575" y="-229.96969696969697" type="curve"/>
      <point x="1309.5454545454545" y="-94.93939393939394" type="line"/>
      <point x="1089.1060606060605" y="-74.33333333333333"/>
      <point x="846.8030303030303" y="-33.24242424242425"/>
      <point x="658.3636363636364" y="46.65151515151515" type="curve"/>
      <point x="624.7272727272727" y="2.045454545454545" type="line"/>
      <point x="1091.4545454545455" y="-55.166666666666664"/>
      <point x="1333.7121212121212" y="211.87878787878788"/>
      <point x="1333.7121212121212" y="740.0" type="curve" smooth="yes"/>
      <point x="1333.7121212121212" y="1278.121212121212"/>
      <point x="1086.969696969697" y="1498.5151515151515"/>
      <point x="719.5454545454545" y="1498.5151515151515" type="curve" smooth="yes"/>
      <point x="352.1212121212121" y="1498.5151515151515"/>
      <point x="105.37878787878788" y="1274.1818181818182"/>
      <point x="105.37878787878788" y="737.4242424242424" type="curve" smooth="yes"/>
      <point x="105.37878787878788" y="146.83333333333334"/>
      <point x="372.3484848484849" y="-119.24242424242425"/>
    </contour>
    <contour>
      <point x="719.5454545454545" y="120.34848484848484" type="curve" smooth="yes"/>
      <point x="449.24242424242425" y="120.34848484848484"/>
      <point x="273.1969696969697" y="280.92424242424244"/>
      <point x="273.1969696969697" y="745.030303030303" type="curve" smooth="yes"/>
      <point x="273.1969696969697" y="1198.560606060606"/>
      <point x="450.530303030303" y="1359.6515151515152"/>
      <point x="719.5454545454545" y="1359.6515151515152" type="curve" smooth="yes"/>
      <point x="988.560606060606" y="1359.6515151515152"/>
      <point x="1165.8939393939395" y="1197.7878787878788"/>
      <point x="1165.8939393939395" y="734.969696969697" type="curve" smooth="yes"/>
      <point x="1165.8939393939395" y="282.21212121212125"/>
      <point x="989.3333333333333" y="120.34848484848484"/>
    </contour>
  </outline>
</glyph>
<glyph name="V" format="2">
  <advance width="1314.0"/>
  <unicode hex="0056"/>
  <outline>
    <contour>
      <point x="539.1666666666666" y="0.0" type="line"/>
      <point x="774.8333333333334" y="0.0" type="line"/>
      <point x="1302.9242424242425" y="1480.0" type="line"/>
      <point x="1141.7727272727273" y="1480.0" type="line"/>
      <point x="643.2727272727273" y="74.25757575757575" type="line"/>
      <point x="679.3636363636364" y="74.25757575757575" type="line"/>
      <point x="183.1818181818182" y="1480.0" type="line"/>
      <point x="11.075757575757576" y="1480.0" type="line"/>
    </contour>
  </outline>
</glyph>
<glyph name="W" format="2">
  <advance width="2115.530303030303"/>
  <unicode hex="0057"/>
  <anchor x="1058.878787878788" y="0.0" name="bottom"/>
  <anchor x="1058.878787878788" y="1520.0" name="top"/>
  <outline>
    <contour>
      <point x="472.3787878787879" y="0.0" type="line"/>
      <point x="684.8636363636364" y="0.0" type="line"/>
      <point x="1081.3333333333333" y="1376.878787878788" type="line"/>
      <point x="1039.090909090909" y="1376.878787878788" type="line"/>
      <point x="1430.6666666666667" y="0.0" type="line"/>
      <point x="1643.151515151515" y="0.0" type="line"/>
      <point x="2059.9545454545455" y="1480.0" type="line"/>
      <point x="1903.378787878788" y="1480.0" type="line"/>
      <point x="1513.939393939394" y="77.86363636363636" type="line"/>
      <point x="1551.3181818181818" y="77.86363636363636" type="line"/>
      <point x="1157.1666666666667" y="1480.0" type="line"/>
      <point x="965.8030303030303" y="1480.0" type="line"/>
      <point x="567.5" y="77.86363636363636" type="line"/>
      <point x="607.7121212121212" y="77.86363636363636" type="line"/>
      <point x="221.5909090909091" y="1480.0" type="line"/>
      <point x="54.833333333333336" y="1480.0" type="line"/>
    </contour>
  </outline>
</glyph>
<glyph name="X" format="2">
  <advance width="1278.409090909091"/>
  <unicode hex="0058"/>
  <outline>
    <contour>
      <point x="1079.909090909091" y="0.0" type="line"/>
      <point x="1266.1060606060605" y="0.0" type="line"/>
      <point x="734.4242424242424" y="756.2424242424242" type="line"/>
      <point x="639.3333333333334" y="879.4090909090909" type="line"/>
      <point x="216.03030303030303" y="1480.0" type="line"/>
      <point x="29.803030303030305" y="1480.0" type="line"/>
      <point x="542.2121212121212" y="754.2121212121212" type="line"/>
      <point x="637.3030303030303" y="631.0757575757576" type="line"/>
    </contour>
    <contour>
      <point x="10.530303030303031" y="0.0" type="line"/>
      <point x="193.95454545454544" y="0.0" type="line"/>
      <point x="637.3030303030303" y="631.0757575757576" type="line"/>
      <point x="734.4242424242424" y="756.2424242424242" type="line"/>
      <point x="1244.5151515151515" y="1480.0" type="line"/>
      <point x="1063.121212121212" y="1480.0" type="line"/>
      <point x="639.3333333333334" y="879.4090909090909" type="line"/>
      <point x="542.2121212121212" y="754.2121212121212" type="line"/>
    </contour>
  </outline>
</glyph>
<glyph name="Z" format="2">
  <advance width="1152.969696969697"/>
  <unicode hex="005A"/>
  <anchor x="576.2121212121212" y="0.0" name="bottom"/>
  <anchor x="577.2424242424242" y="1520.0" name="top"/>
  <outline>
    <contour>
      <point x="61.71212121212121" y="0.0" type="line"/>
      <point x="1091.2575757575758" y="0.0" type="line"/>
      <point x="1091.2575757575758" y="139.46969696969697" type="line"/>
      <point x="239.8181818181818" y="139.46969696969697" type="line"/>
      <point x="250.2121212121212" y="101.07575757575756" type="line"/>
      <point x="1079.7727272727273" y="1389.2575757575758" type="line"/>
      <point x="1079.7727272727273" y="1480.0" type="line"/>
      <point x="73.1969696969697" y="1480.0" type="line"/>
      <point x="73.1969696969697" y="1340.530303030303" type="line"/>
      <point x="901.6666666666666" y="1340.530303030303" type="line"/>
      <point x="891.2727272727273" y="1378.9242424242425" type="line"/>
      <point x="61.71212121212121" y="90.74242424242424" type="line"/>
    </contour>
  </outline>
</glyph>
<glyph name="bracketleft" format="2">
  <advance width="658.969696969697"/>
  <unicode hex="005B"/>
  <outline>
    <contour>
      <point x="189.13636363636363" y="-440.0" type="line"/>
      <point x="692.7878787878788" y="-440.0" type="line"/>
      <point x="692.7878787878788" y="-307.4848484848485" type="line"/>
      <point x="349.0909090909091" y="-307.4848484848485" type="line"/>
      <point x="349.0909090909091" y="1483.4848484848485" type="line"/>
      <point x="695.3636363636364" y="1483.4848484848485" type="line"/>
      <point x="695.3636363636364" y="1616.0" type="line"/>
      <point x="189.13636363636363" y="1616.0" type="line"/>
    </contour>
  </outline>
</glyph>
<glyph name="backslash" format="2">
  <advance width="619.3939393939394"/>
  <unicode hex="005C"/>
  <outline>
    <contour>
      <point x="459.0151515151515" y="-240.0" type="line"/>
      <point x="619.3939393939394" y="-240.0" type="line"/>
      <point x="160.37878787878788" y="1616.0" type="line"/>
      <point x="0.0" y="1616.0" type="line"/>
    </contour>
  </outline>
</glyph>
<glyph name="bracketright" format="2">
  <advance width="658.969696969697"/>
  <unicode hex="005D"/>
  <outline>
    <contour>
      <point x="-33.81818181818182" y="-440.0" type="line"/>
      <point x="469.8333333333333" y="-440.0" type="line"/>
      <point x="469.8333333333333" y="1616.0" type="line"/>
      <point x="-36.39393939393939" y="1616.0" type="line"/>
      <point x="-36.39393939393939" y="1483.4848484848485" type="line"/>
      <point x="309.8787878787879" y="1483.4848484848485" type="line"/>
      <point x="309.8787878787879" y="-307.4848484848485" type="line"/>
      <point x="-33.81818181818182" y="-307.4848484848485" type="line"/>
    </contour>
  </outline>
</glyph>
<glyph name="asciicircum" format="2">
  <advance width="1156.6666666666667"/>
  <unicode hex="005E"/>
  <outline>
    <contour>
      <point x="95.96969696969697" y="740.0" type="line"/>
      <point x="259.7121212121212" y="740.0" type="line"/>
      <point x="604.7424242424242" y="1395.0454545454545" type="line"/>
      <point x="551.9242424242424" y="1395.0454545454545" type="line"/>
      <point x="896.9545454545455" y="740.0" type="line"/>
      <point x="1060.6969696969697" y="740.0" type="line"/>
      <point x="662.7121212121212" y="1480.0" type="line"/>
      <point x="492.469696969697" y="1480.0" type="line"/>
    </contour>
  </outline>
</glyph>
<glyph name="underscore" format="2">
  <advance width="1122.4848484848485"/>
  <unicode hex="005F"/>
  <outline>
    <contour>
      <point x="92.42424242424242" y="-132.77272727272728" type="line"/>
      <point x="1030.060606060606" y="-132.77272727272728" type="line"/>
      <point x="1030.060606060606" y="-0.25757575757575757" type="line"/>
      <point x="92.42424242424242" y="-0.25757575757575757" type="line"/>
    </contour>
  </outline>
</glyph>
<glyph name="grave" format="2">
  <advance width="1051.5151515151515"/>
  <unicode hex="0060"/>
  <anchor x="525.7575757575758" y="1200.0" name="_top"/>
  <anchor x="525.7575757575758" y="1581.7575757575758" name="top"/>
  <outline>
    <contour>
      <point x="452.030303030303" y="1252.6666666666667" type="line"/>
      <point x="599.4848484848485" y="1252.6666666666667" type="line"/>
      <point x="385.04545454545456" y="1616.0" type="line"/>
      <point x="211.74242424242425" y="1616.0" type="line"/>
    </contour>
  </outline>
</glyph>
<glyph name="b" format="2">
  <advance width="1129.2121212121212"/>
  <unicode hex="0062"/>
  <anchor x="567.8787878787879" y="0.0" name="bottom"/>
  <anchor x="231.3030303030303" y="1616.0" name="top"/>
  <outline>
    <contour>
      <point x="485.6818181818182" y="-18.772727272727273" type="curve" smooth="yes"/>
      <point x="846.1363636363636" y="-19.03030303030303"/>
      <point x="1035.378787878788" y="170.46969696969697"/>
      <point x="1035.378787878788" y="563.3484848484849" type="curve" smooth="yes"/>
      <point x="1035.378787878788" y="957.3636363636364"/>
      <point x="847.2575757575758" y="1101.6666666666667"/>
      <point x="620.7121212121212" y="1101.6666666666667" type="curve" smooth="yes"/>
      <point x="489.3484848484849" y="1101.6666666666667"/>
      <point x="386.21212121212125" y="1048.530303030303"/>
      <point x="320.5" y="973.2424242424242" type="curve"/>
      <point x="311.1515151515151" y="973.2424242424242" type="line"/>
      <point x="311.1515151515151" y="1616.0" type="line"/>
      <point x="151.1969696969697" y="1616.0" type="line"/>
      <point x="151.1969696969697" y="30.18181818181818" type="line"/>
      <point x="252.13636363636363" y="-2.2272727272727275"/>
      <point x="372.7121212121212" y="-18.772727272727273"/>
    </contour>
    <contour>
      <point x="498.1818181818182" y="111.62121212121212" type="curve" smooth="yes"/>
      <point x="427.8030303030303" y="111.62121212121212"/>
      <point x="359.42424242424244" y="122.3030303030303"/>
      <point x="311.1515151515151" y="136.46969696969697" type="curve"/>
      <point x="311.1515151515151" y="838.0909090909091" type="line"/>
      <point x="375.1060606060606" y="924.1363636363636"/>
      <point x="474.78787878787875" y="964.060606060606"/>
      <point x="573.6969696969697" y="964.060606060606" type="curve" smooth="yes"/>
      <point x="744.8333333333334" y="964.060606060606"/>
      <point x="872.1969696969697" y="872.7121212121212"/>
      <point x="872.1969696969697" y="548.9090909090909" type="curve" smooth="yes"/>
      <point x="872.1969696969697" y="238.24242424242425"/>
      <point x="742.8333333333334" y="111.62121212121212"/>
    </contour>
  </outline>
</glyph>
<glyph name="f" format="2">
  <advance width="716.7121212121212"/>
  <unicode hex="0066"/>
  <outline>
    <contour>
      <point x="223.15151515151516" y="0.0" type="line"/>
      <point x="382.3333333333333" y="0.0" type="line"/>
      <point x="382.3333333333333" y="1256.0757575757575" type="line" smooth="yes"/>
      <point x="382.3333333333333" y="1432.378787878788"/>
      <point x="463.3484848484849" y="1501.4848484848485"/>
      <point x="632.6212121212121" y="1501.4848484848485" type="curve" smooth="yes"/>
      <point x="677.2424242424242" y="1501.4848484848485"/>
      <point x="719.6060606060606" y="1497.2575757575758"/>
      <point x="764.5151515151515" y="1489.5454545454545" type="curve"/>
      <point x="764.5151515151515" y="1624.0" type="line"/>
      <point x="716.939393939394" y="1632.0"/>
      <point x="665.4545454545455" y="1636.0"/>
      <point x="617.3030303030303" y="1636.0" type="curve" smooth="yes"/>
      <point x="357.7878787878788" y="1636.0"/>
      <point x="223.15151515151516" y="1502.1060606060605"/>
      <point x="223.15151515151516" y="1248.6969696969697" type="curve" smooth="yes"/>
    </contour>
    <contour>
      <point x="18.606060606060606" y="952.6363636363636" type="line"/>
      <point x="722.939393939394" y="952.6363636363636" type="line"/>
      <point x="722.939393939394" y="1085.1515151515152" type="line"/>
      <point x="18.606060606060606" y="1085.1515151515152" type="line"/>
    </contour>
  </outline>
</glyph>
<glyph name="g" format="2">
  <advance width="1129.2121212121212"/>
  <unicode hex="0067"/>
  <anchor x="577.469696969697" y="-440.0" name="bottom"/>
  <anchor x="584.6818181818181" y="1200.0" name="top"/>
  <outline>
    <contour>
      <point x="482.74242424242425" y="-460.0" type="curve" smooth="yes"/>
      <point x="812.0151515151515" y="-460.0"/>
      <point x="978.0151515151515" y="-319.06060606060606"/>
      <point x="978.0151515151515" y="33.43939393939394" type="curve" smooth="yes"/>
      <point x="978.0151515151515" y="1052.7121212121212" type="line"/>
      <point x="880.8787878787879" y="1083.6060606060605"/>
      <point x="756.5" y="1101.6666666666667"/>
      <point x="643.7878787878788" y="1101.6666666666667" type="curve" smooth="yes"/>
      <point x="283.07575757575756" y="1101.409090909091"/>
      <point x="93.83333333333333" y="910.3636363636364"/>
      <point x="93.83333333333333" y="520.5757575757576" type="curve" smooth="yes"/>
      <point x="93.83333333333333" y="130.6818181818182"/>
      <point x="283.75757575757575" y="-13.878787878787879"/>
      <point x="508.5" y="-13.878787878787879" type="curve" smooth="yes"/>
      <point x="639.8636363636364" y="-13.878787878787879"/>
      <point x="743.0" y="39.25757575757576"/>
      <point x="808.7121212121212" y="114.54545454545455" type="curve"/>
      <point x="818.060606060606" y="114.54545454545455" type="line"/>
      <point x="818.060606060606" y="8.86363636363636" type="line" smooth="yes"/>
      <point x="818.060606060606" y="-239.33333333333331"/>
      <point x="708.3636363636364" y="-328.3181818181818"/>
      <point x="474.21212121212125" y="-328.3181818181818" type="curve" smooth="yes"/>
      <point x="379.1212121212121" y="-328.3181818181818"/>
      <point x="275.6212121212121" y="-312.57575757575756"/>
      <point x="162.95454545454547" y="-276.8636363636364" type="curve"/>
      <point x="162.95454545454547" y="-411.3181818181818" type="line"/>
      <point x="261.06060606060606" y="-443.8030303030303"/>
      <point x="383.21212121212125" y="-460.0"/>
    </contour>
    <contour>
      <point x="555.5151515151515" y="122.95454545454545" type="curve" smooth="yes"/>
      <point x="383.8636363636364" y="122.95454545454545"/>
      <point x="257.0151515151515" y="214.04545454545453"/>
      <point x="257.0151515151515" y="535.530303030303" type="curve" smooth="yes"/>
      <point x="257.0151515151515" y="844.6515151515151"/>
      <point x="387.92424242424244" y="971.2727272727273"/>
      <point x="631.030303030303" y="971.2727272727273" type="curve" smooth="yes"/>
      <point x="701.4090909090909" y="971.2727272727273"/>
      <point x="769.7878787878788" y="961.3333333333334"/>
      <point x="818.060606060606" y="948.9090909090909" type="curve"/>
      <point x="818.060606060606" y="248.92424242424244" type="line"/>
      <point x="754.1060606060606" y="162.87878787878788"/>
      <point x="652.939393939394" y="122.95454545454545"/>
    </contour>
  </outline>
</glyph>
<glyph name="i" format="2">
  <advance width="462.6060606060606"/>
  <unicode hex="0069"/>
  <anchor x="231.3030303030303" y="1200.0" name="_top"/>
  <anchor x="231.3030303030303" y="0.0" name="bottom"/>
  <anchor x="311.4090909090909" y="0.0" name="ogonek"/>
  <anchor x="231.3030303030303" y="1200.0" name="top"/>
  <outline>
    <contour>
      <point x="151.1969696969697" y="0.0" type="line"/>
      <point x="311.4090909090909" y="0.0" type="line"/>
      <point x="311.4090909090909" y="1085.1515151515152" type="line"/>
      <point x="151.1969696969697" y="1085.1515151515152" type="line"/>
    </contour>
    <contour>
      <point x="231.3030303030303" y="1320.8484848484848" type="curve" smooth="yes"/>
      <point x="303.3636363636364" y="1320.8484848484848"/>
      <point x="342.75757575757575" y="1358.2424242424242"/>
      <point x="342.75757575757575" y="1420.969696969697" type="curve" smooth="yes"/>
      <point x="342.75757575757575" y="1483.6969696969697"/>
      <point x="303.3636363636364" y="1522.5757575757575"/>
      <point x="231.3030303030303" y="1522.5757575757575" type="curve" smooth="yes"/>
      <point x="159.24242424242425" y="1522.5757575757575"/>
      <point x="119.84848484848484" y="1483.6969696969697"/>
      <point x="119.84848484848484" y="1420.969696969697" type="curve" smooth="yes"/>
      <point x="119.84848484848484" y="1358.2424242424242"/>
      <point x="159.24242424242425" y="1320.8484848484848"/>
    </contour>
  </outline>
</glyph>
<glyph name="j" format="2">
  <advance width="462.6060606060606"/>
  <unicode hex="006A"/>
  <anchor x="230.0151515151515" y="1204.4545454545455" name="_top"/>
  <anchor x="230.0151515151515" y="1204.4545454545455" name="top"/>
  <outline>
    <contour>
      <point x="79.25757575757575" y="-464.1212121212121" type="line"/>
      <point x="243.83333333333331" y="-260.969696969697"/>
      <point x="311.4090909090909" y="-79.24242424242425"/>
      <point x="311.4090909090909" y="178.92424242424244" type="curve" smooth="yes"/>
      <point x="311.4090909090909" y="1085.1515151515152" type="line"/>
      <point x="151.1969696969697" y="1085.1515151515152" type="line"/>
      <point x="151.1969696969697" y="169.6060606060606" type="line" smooth="yes"/>
      <point x="151.1969696969697" y="-61.63636363636364"/>
      <point x="99.63636363636364" y="-218.8181818181818"/>
      <point x="-27.181818181818183" y="-391.77272727272725" type="curve"/>
    </contour>
    <contour>
      <point x="230.0151515151515" y="1325.3030303030303" type="curve" smooth="yes"/>
      <point x="302.07575757575756" y="1325.3030303030303"/>
      <point x="341.469696969697" y="1362.6969696969697"/>
      <point x="341.469696969697" y="1425.4242424242425" type="curve" smooth="yes"/>
      <point x="341.469696969697" y="1488.1515151515152"/>
      <point x="302.07575757575756" y="1527.030303030303"/>
      <point x="230.0151515151515" y="1527.030303030303" type="curve" smooth="yes"/>
      <point x="157.95454545454547" y="1527.030303030303"/>
      <point x="118.56060606060606" y="1488.1515151515152"/>
      <point x="118.56060606060606" y="1425.4242424242425" type="curve" smooth="yes"/>
      <point x="118.56060606060606" y="1362.6969696969697"/>
      <point x="157.95454545454547" y="1325.3030303030303"/>
    </contour>
  </outline>
</glyph>
<glyph name="k" format="2">
  <advance width="1038.3939393939395"/>
  <unicode hex="006B"/>
  <anchor x="557.1212121212121" y="0.0" name="bottom"/>
  <anchor x="231.3030303030303" y="1616.0" name="top"/>
  <outline>
    <contour>
      <point x="879.0151515151515" y="0.0" type="line"/>
      <point x="1060.090909090909" y="0.0" type="line"/>
      <point x="610.5" y="580.2575757575758" type="line"/>
      <point x="610.5" y="535.5909090909091" type="line"/>
      <point x="1026.8030303030303" y="1085.1515151515152" type="line"/>
      <point x="849.0454545454545" y="1085.1515151515152" type="line"/>
      <point x="443.3484848484849" y="555.6060606060606" type="line"/>
    </contour>
    <contour>
      <point x="291.030303030303" y="488.57575757575756" type="line"/>
      <point x="511.8484848484849" y="488.57575757575756" type="line"/>
      <point x="511.8484848484849" y="622.6363636363636" type="line"/>
      <point x="291.030303030303" y="622.6363636363636" type="line"/>
    </contour>
    <contour>
      <point x="151.1969696969697" y="0.0" type="line"/>
      <point x="311.1515151515151" y="0.0" type="line"/>
      <point x="311.1515151515151" y="1616.0" type="line"/>
      <point x="151.1969696969697" y="1616.0" type="line"/>
    </contour>
  </outline>
</glyph>
<glyph name="l" format="2">
  <advance width="462.3484848484849"/>
  <unicode hex="006C"/>
  <anchor x="231.04545454545456" y="0.0" name="bottom"/>
  <anchor x="423.42424242424244" y="1616.0" name="caronalt"/>
  <anchor x="501.3181818181818" y="794.0" name="periodcentered"/>
  <anchor x="231.3030303030303" y="714.0" name="slash"/>
  <anchor x="231.3030303030303" y="1616.0" name="top"/>
  <outline>
    <contour>
      <point x="151.1969696969697" y="0.0" type="line"/>
      <point x="311.1515151515151" y="0.0" type="line"/>
      <point x="311.1515151515151" y="1616.0" type="line"/>
      <point x="151.1969696969697" y="1616.0" type="line"/>
    </contour>
  </outline>
</glyph>
<glyph name="m" format="2">
  <advance width="1695.1060606060605"/>
  <unicode hex="006D"/>
  <anchor x="857.1666666666666" y="0.0" name="bottom"/>
  <anchor x="857.1666666666666" y="1200.0" name="top"/>
  <outline>
    <contour>
      <point x="151.1969696969697" y="0.0" type="line"/>
      <point x="311.1515151515151" y="0.0" type="line"/>
      <point x="311.1515151515151" y="809.9090909090909" type="line"/>
      <point x="380.95454545454544" y="917.3787878787879"/>
      <point x="488.57575757575756" y="959.1666666666666"/>
      <point x="577.9242424242424" y="959.1666666666666" type="curve" smooth="yes"/>
      <point x="697.3181818181818" y="959.1666666666666"/>
      <point x="778.0909090909091" y="897.5"/>
      <point x="778.0909090909091" y="710.6969696969697" type="curve" smooth="yes"/>
      <point x="778.0909090909091" y="0.0" type="line"/>
      <point x="935.7272727272727" y="0.0" type="line"/>
      <point x="935.7272727272727" y="721.4848484848485" type="line" smooth="yes"/>
      <point x="935.7272727272727" y="1000.6515151515151"/>
      <point x="802.7424242424242" y="1101.6666666666667"/>
      <point x="621.7575757575758" y="1101.6666666666667" type="curve" smooth="yes"/>
      <point x="500.92424242424244" y="1101.6666666666667"/>
      <point x="390.530303030303" y="1054.9545454545455"/>
      <point x="307.8787878787879" y="961.8484848484849" type="curve"/>
      <point x="297.3030303030303" y="961.8484848484849" type="line"/>
      <point x="285.6363636363636" y="1085.1515151515152" type="line"/>
      <point x="151.1969696969697" y="1085.1515151515152" type="line"/>
    </contour>
    <contour>
      <point x="1396.1515151515152" y="0.0" type="line"/>
      <point x="1555.848484848485" y="0.0" type="line"/>
      <point x="1555.848484848485" y="717.6212121212121" type="line" smooth="yes"/>
      <point x="1555.848484848485" y="1000.1363636363636"/>
      <point x="1417.3484848484848" y="1101.6666666666667"/>
      <point x="1228.9848484848485" y="1101.6666666666667" type="curve" smooth="yes"/>
      <point x="1110.1515151515152" y="1101.6666666666667"/>
      <point x="974.2727272727273" y="1054.1515151515152"/>
      <point x="869.3939393939394" y="916.7121212121212" type="curve"/>
      <point x="909.3030303030303" y="787.6363636363636" type="line"/>
      <point x="980.3636363636364" y="917.3787878787879"/>
      <point x="1099.8333333333333" y="959.1666666666666"/>
      <point x="1190.7272727272727" y="959.1666666666666" type="curve" smooth="yes"/>
      <point x="1310.6060606060605" y="959.1666666666666"/>
      <point x="1396.1515151515152" y="897.5"/>
      <point x="1396.1515151515152" y="710.6969696969697" type="curve" smooth="yes"/>
    </contour>
  </outline>
</glyph>
<glyph name="p" format="2">
  <advance width="1129.2121212121212"/>
  <unicode hex="0070"/>
  <outline>
    <contour>
      <point x="151.1969696969697" y="-440.0" type="line"/>
      <point x="311.1515151515151" y="-440.0" type="line"/>
      <point x="311.1515151515151" y="-5.121212121212121" type="line"/>
      <point x="362.9090909090909" y="-12.318181818181818"/>
      <point x="426.83333333333337" y="-18.772727272727273"/>
      <point x="488.04545454545456" y="-18.772727272727273" type="curve" smooth="yes"/>
      <point x="846.1060606060606" y="-18.772727272727273"/>
      <point x="1035.378787878788" y="171.5"/>
      <point x="1035.378787878788" y="562.8333333333334" type="curve" smooth="yes"/>
      <point x="1035.378787878788" y="959.939393939394"/>
      <point x="842.3939393939394" y="1101.6666666666667"/>
      <point x="608.0151515151515" y="1101.6666666666667" type="curve" smooth="yes"/>
      <point x="478.27272727272725" y="1101.6666666666667"/>
      <point x="373.6212121212121" y="1045.9545454545455"/>
      <point x="308.9090909090909" y="965.6969696969697" type="curve"/>
      <point x="299.07575757575756" y="965.6969696969697" type="line"/>
      <point x="287.43939393939394" y="1085.1515151515152" type="line"/>
      <point x="151.1969696969697" y="1085.1515151515152" type="line"/>
    </contour>
    <contour>
      <point x="490.0151515151515" y="111.87878787878788" type="curve" smooth="yes"/>
      <point x="428.57575757575756" y="111.87878787878788"/>
      <point x="359.42424242424244" y="119.5909090909091"/>
      <point x="311.1515151515151" y="131.0151515151515" type="curve"/>
      <point x="311.1515151515151" y="830.0909090909091" type="line"/>
      <point x="374.8484848484849" y="923.6212121212121"/>
      <point x="474.8181818181818" y="964.3181818181818"/>
      <point x="571.7878787878788" y="964.3181818181818" type="curve" smooth="yes"/>
      <point x="744.5757575757576" y="964.3181818181818"/>
      <point x="872.1969696969697" y="872.969696969697"/>
      <point x="872.1969696969697" y="548.6515151515151" type="curve" smooth="yes"/>
      <point x="872.1969696969697" y="238.5"/>
      <point x="742.8333333333334" y="111.87878787878788"/>
    </contour>
  </outline>
</glyph>
<glyph name="q" format="2">
  <advance width="1129.2121212121212"/>
  <unicode hex="0071"/>
  <outline>
    <contour>
      <point x="818.060606060606" y="-440.0" type="line"/>
      <point x="978.0151515151515" y="-440.0" type="line"/>
      <point x="978.0151515151515" y="1052.7121212121212" type="line"/>
      <point x="880.8787878787879" y="1083.6060606060605"/>
      <point x="756.5" y="1101.6666666666667"/>
      <point x="643.530303030303" y="1101.6666666666667" type="curve" smooth="yes"/>
      <point x="283.07575757575756" y="1101.6666666666667"/>
      <point x="93.83333333333333" y="912.4242424242424"/>
      <point x="93.83333333333333" y="519.5454545454545" type="curve" smooth="yes"/>
      <point x="93.83333333333333" y="125.53030303030303"/>
      <point x="281.95454545454544" y="-18.772727272727273"/>
      <point x="508.5" y="-18.772727272727273" type="curve" smooth="yes"/>
      <point x="639.8636363636364" y="-18.772727272727273"/>
      <point x="743.0" y="34.36363636363637"/>
      <point x="808.7121212121212" y="109.65151515151516" type="curve"/>
      <point x="818.060606060606" y="109.65151515151516" type="line"/>
    </contour>
    <contour>
      <point x="555.5151515151515" y="118.83333333333333" type="curve" smooth="yes"/>
      <point x="384.3787878787879" y="118.83333333333333"/>
      <point x="257.0151515151515" y="210.1818181818182"/>
      <point x="257.0151515151515" y="533.9848484848485" type="curve" smooth="yes"/>
      <point x="257.0151515151515" y="844.6515151515151"/>
      <point x="387.92424242424244" y="971.2727272727273"/>
      <point x="630.7727272727273" y="971.2727272727273" type="curve" smooth="yes"/>
      <point x="701.4090909090909" y="971.2727272727273"/>
      <point x="769.7878787878788" y="961.3333333333334"/>
      <point x="818.060606060606" y="948.9090909090909" type="curve"/>
      <point x="818.060606060606" y="244.8030303030303" type="line"/>
      <point x="754.1060606060606" y="158.75757575757575"/>
      <point x="652.939393939394" y="118.83333333333333"/>
    </contour>
  </outline>
</glyph>
<glyph name="v" format="2">
  <advance width="1057.590909090909"/>
  <unicode hex="0076"/>
  <anchor x="529.9090909090909" y="0.0" name="bottom"/>
  <anchor x="529.9090909090909" y="1200.0" name="top"/>
  <outline>
    <contour>
      <point x="426.0151515151515" y="0.0" type="line"/>
      <point x="631.3181818181818" y="0.0" type="line"/>
      <point x="1042.121212121212" y="1085.1515151515152" type="line"/>
      <point x="880.7727272727273" y="1085.1515151515152" type="line"/>
      <point x="523.2272727272727" y="115.33333333333334" type="line"/>
      <point x="543.2878787878788" y="115.33333333333334" type="line"/>
      <point x="185.74242424242425" y="1085.1515151515152" type="line"/>
      <point x="15.46969696969697" y="1085.1515151515152" type="line"/>
    </contour>
  </outline>
</glyph>
<glyph name="x" format="2">
  <advance width="1008.7424242424242"/>
  <unicode hex="0078"/>
  <anchor x="505.4848484848485" y="0.0" name="bottom"/>
  <anchor x="505.74242424242425" y="1200.0" name="top"/>
  <outline>
    <contour>
      <point x="812.5151515151515" y="0.0" type="line"/>
      <point x="995.6212121212121" y="0.0" type="line"/>
      <point x="599.5454545454545" y="549.3484848484849" type="line"/>
      <point x="506.77272727272725" y="665.1363636363636" type="line"/>
      <point x="205.71212121212122" y="1085.1515151515152" type="line"/>
      <point x="22.606060606060606" y="1085.1515151515152" type="line"/>
      <point x="409.1666666666667" y="546.5757575757576" type="line"/>
      <point x="503.22727272727275" y="432.04545454545456" type="line"/>
    </contour>
    <contour>
      <point x="15.606060606060606" y="0.0" type="line"/>
      <point x="194.62121212121212" y="0.0" type="line"/>
      <point x="503.22727272727275" y="432.04545454545456" type="line"/>
      <point x="599.5454545454545" y="549.3484848484849" type="line"/>
      <point x="985.3333333333334" y="1085.1515151515152" type="line"/>
      <point x="807.8030303030303" y="1085.1515151515152" type="line"/>
      <point x="506.77272727272725" y="665.1363636363636" type="line"/>
      <point x="409.1666666666667" y="546.5757575757576" type="line"/>
    </contour>
  </outline>
</glyph>
<glyph name="y" format="2">
  <advance width="1057.590909090909"/>
  <unicode hex="0079"/>
  <anchor x="814.9545454545455" y="0.0" name="bottom"/>
  <anchor x="529.9090909090909" y="1200.0" name="top"/>
  <outline>
    <contour>
      <point x="304.6666666666667" y="-440.0" type="line"/>
      <point x="464.75757575757575" y="-440.0" type="line"/>
      <point x="1042.121212121212" y="1085.1515151515152" type="line"/>
      <point x="880.7727272727273" y="1085.1515151515152" type="line"/>
      <point x="523.2272727272727" y="115.33333333333334" type="line"/>
      <point x="472.22727272727275" y="0.0" type="line"/>
    </contour>
    <contour>
      <point x="426.0151515151515" y="0.0" type="line"/>
      <point x="578.9545454545455" y="0.0" type="line"/>
      <point x="185.74242424242425" y="1085.1515151515152" type="line"/>
      <point x="15.46969696969697" y="1085.1515151515152" type="line"/>
    </contour>
  </outline>
</glyph>
<glyph name="z" format="2">
  <advance width="919.090909090909"/>
  <unicode hex="007A"/>
  <anchor x="464.1060606060606" y="0.0" name="bottom"/>
  <anchor x="464.1060606060606" y="1200.0" name="top"/>
  <outline>
    <contour>
      <point x="62.54545454545455" y="0.0" type="line"/>
      <point x="864.6666666666666" y="0.0" type="line"/>
      <point x="864.6666666666666" y="132.5151515151515" type="line"/>
      <point x="238.96969696969697" y="132.5151515151515" type="line"/>
      <point x="238.96969696969697" y="95.4090909090909" type="line"/>
      <point x="853.1818181818182" y="985.9090909090909" type="line"/>
      <point x="853.1818181818182" y="1085.1515151515152" type="line"/>
      <point x="74.03030303030303" y="1085.1515151515152" type="line"/>
      <point x="74.03030303030303" y="952.6363636363636" type="line"/>
      <point x="676.7575757575758" y="952.6363636363636" type="line"/>
      <point x="676.7575757575758" y="989.7424242424242" type="line"/>
      <point x="62.54545454545455" y="99.24242424242425" type="line"/>
    </contour>
  </outline>
</glyph>
<glyph name="braceleft" format="2">
  <advance width="698.969696969697"/>
  <unicode hex="007B"/>
  <outline>
    <contour>
      <point x="595.530303030303" y="-460.0" type="curve" smooth="yes"/>
      <point x="648.030303030303" y="-460.0"/>
      <point x="698.4090909090909" y="-455.4848484848485"/>
      <point x="735.3636363636364" y="-448.969696969697" type="curve"/>
      <point x="735.3636363636364" y="-324.4545454545455" type="line"/>
      <point x="612.6515151515151" y="-324.4545454545455" type="line" smooth="yes"/>
      <point x="463.21212121212125" y="-324.4545454545455"/>
      <point x="389.0909090909091" y="-262.07575757575756"/>
      <point x="389.0909090909091" y="-112.4090909090909" type="curve" smooth="yes"/>
      <point x="389.0909090909091" y="383.1818181818182" type="line" smooth="yes"/>
      <point x="389.0909090909091" y="534.6363636363636"/>
      <point x="327.1212121212121" y="615.9090909090909"/>
      <point x="180.6969696969697" y="635.2121212121212" type="curve"/>
      <point x="180.6969696969697" y="613.939393939394" type="line"/>
      <point x="327.1212121212121" y="633.2424242424242"/>
      <point x="389.0909090909091" y="714.5151515151515"/>
      <point x="389.0909090909091" y="865.969696969697" type="curve" smooth="yes"/>
      <point x="389.0909090909091" y="1288.409090909091" type="line" smooth="yes"/>
      <point x="389.0909090909091" y="1438.0757575757575"/>
      <point x="463.21212121212125" y="1500.4545454545455"/>
      <point x="612.6515151515151" y="1500.4545454545455" type="curve" smooth="yes"/>
      <point x="735.3636363636364" y="1500.4545454545455" type="line"/>
      <point x="735.3636363636364" y="1624.969696969697" type="line"/>
      <point x="698.4090909090909" y="1631.4848484848485"/>
      <point x="648.030303030303" y="1636.0"/>
      <point x="595.530303030303" y="1636.0" type="curve" smooth="yes"/>
      <point x="353.1818181818182" y="1636.0"/>
      <point x="229.13636363636363" y="1518.9545454545455"/>
      <point x="229.13636363636363" y="1287.3333333333333" type="curve" smooth="yes"/>
      <point x="229.13636363636363" y="857.0" type="line" smooth="yes"/>
      <point x="229.13636363636363" y="742.2575757575758"/>
      <point x="171.77272727272728" y="690.8333333333334"/>
      <point x="64.45454545454545" y="690.8333333333334" type="curve" smooth="yes"/>
      <point x="35.803030303030305" y="690.8333333333334" type="line"/>
      <point x="35.803030303030305" y="558.3181818181819" type="line"/>
      <point x="64.45454545454545" y="558.3181818181819" type="line" smooth="yes"/>
      <point x="171.77272727272728" y="558.3181818181819"/>
      <point x="229.13636363636363" y="506.8939393939394"/>
      <point x="229.13636363636363" y="392.1515151515151" type="curve" smooth="yes"/>
      <point x="229.13636363636363" y="-111.33333333333334" type="line" smooth="yes"/>
      <point x="229.13636363636363" y="-342.95454545454544"/>
      <point x="353.1818181818182" y="-460.0"/>
    </contour>
  </outline>
</glyph>
<glyph name="bar" format="2">
  <advance width="486.6363636363636"/>
  <unicode hex="007C"/>
  <outline>
    <contour>
      <point x="169.13636363636363" y="-440.0" type="line"/>
      <point x="317.5" y="-440.0" type="line"/>
      <point x="317.5" y="1616.0" type="line"/>
      <point x="169.13636363636363" y="1616.0" type="line"/>
    </contour>
  </outline>
</glyph>
<glyph name="braceright" format="2">
  <advance width="698.969696969697"/>
  <unicode hex="007D"/>
  <outline>
    <contour>
      <point x="103.43939393939394" y="-460.0" type="curve" smooth="yes"/>
      <point x="345.7878787878788" y="-460.0"/>
      <point x="469.8333333333333" y="-342.95454545454544"/>
      <point x="469.8333333333333" y="-111.33333333333334" type="curve" smooth="yes"/>
      <point x="469.8333333333333" y="392.1515151515151" type="line" smooth="yes"/>
      <point x="469.8333333333333" y="506.8939393939394"/>
      <point x="527.1969696969697" y="558.3181818181819"/>
      <point x="634.5151515151515" y="558.3181818181819" type="curve" smooth="yes"/>
      <point x="663.1666666666666" y="558.3181818181819" type="line"/>
      <point x="663.1666666666666" y="690.8333333333334" type="line"/>
      <point x="634.5151515151515" y="690.8333333333334" type="line" smooth="yes"/>
      <point x="527.1969696969697" y="690.8333333333334"/>
      <point x="469.8333333333333" y="742.2575757575758"/>
      <point x="469.8333333333333" y="857.0" type="curve" smooth="yes"/>
      <point x="469.8333333333333" y="1287.3333333333333" type="line" smooth="yes"/>
      <point x="469.8333333333333" y="1518.9545454545455"/>
      <point x="345.7878787878788" y="1636.0"/>
      <point x="103.43939393939394" y="1636.0" type="curve" smooth="yes"/>
      <point x="50.93939393939394" y="1636.0"/>
      <point x="0.5606060606060606" y="1631.4848484848485"/>
      <point x="-36.39393939393939" y="1624.969696969697" type="curve"/>
      <point x="-36.39393939393939" y="1500.4545454545455" type="line"/>
      <point x="86.31818181818181" y="1500.4545454545455" type="line" smooth="yes"/>
      <point x="235.75757575757575" y="1500.4545454545455"/>
      <point x="309.8787878787879" y="1438.0757575757575"/>
      <point x="309.8787878787879" y="1288.409090909091" type="curve" smooth="yes"/>
      <point x="309.8787878787879" y="865.969696969697" type="line" smooth="yes"/>
      <point x="309.8787878787879" y="714.5151515151515"/>
      <point x="372.6212121212121" y="633.2424242424242"/>
      <point x="518.2727272727273" y="613.939393939394" type="curve"/>
      <point x="518.2727272727273" y="635.2121212121212" type="line"/>
      <point x="372.6212121212121" y="615.9090909090909"/>
      <point x="309.8787878787879" y="534.6363636363636"/>
      <point x="309.8787878787879" y="383.1818181818182" type="curve" smooth="yes"/>
      <point x="309.8787878787879" y="-112.4090909090909" type="line" smooth="yes"/>
      <point x="309.8787878787879" y="-262.07575757575756"/>
      <point x="235.75757575757575" y="-324.4545454545455"/>
      <point x="86.31818181818181" y="-324.4545454545455" type="curve" smooth="yes"/>
      <point x="-36.39393939393939" y="-324.4545454545455" type="line"/>
      <point x="-36.39393939393939" y="-448.969696969697" type="line"/>
      <point x="0.5606060606060606" y="-455.4848484848485"/>
      <point x="50.93939393939394" y="-460.0"/>
    </contour>
  </outline>
</glyph>
<glyph name="asciitilde" format="2">
  <advance width="1075.909090909091"/>
  <unicode hex="007E"/>
  <outline>
    <contour>
      <point x="718.7121212121212" y="633.0909090909091" type="curve" smooth="yes"/>
      <point x="805.2121212121212" y="633.0909090909091"/>
      <point x="876.7575757575758" y="664.5757575757576"/>
      <point x="927.1969696969697" y="726.1818181818181" type="curve"/>
      <point x="927.1969696969697" y="870.0" type="line"/>
      <point x="865.9848484848485" y="796.4545454545455"/>
      <point x="799.6666666666666" y="761.4848484848485"/>
      <point x="718.2575757575758" y="761.4848484848485" type="curve" smooth="yes"/>
      <point x="607.0454545454545" y="761.4848484848485"/>
      <point x="497.43939393939394" y="878.0"/>
      <point x="357.1969696969697" y="878.0" type="curve" smooth="yes"/>
      <point x="270.6969696969697" y="878.0"/>
      <point x="199.15151515151516" y="846.5151515151515"/>
      <point x="148.71212121212122" y="784.9090909090909" type="curve"/>
      <point x="148.71212121212122" y="641.0909090909091" type="line"/>
      <point x="209.92424242424244" y="714.6363636363636"/>
      <point x="276.24242424242425" y="749.6060606060606"/>
      <point x="357.6515151515151" y="749.6060606060606" type="curve" smooth="yes"/>
      <point x="468.8636363636364" y="749.6060606060606"/>
      <point x="578.469696969697" y="633.0909090909091"/>
    </contour>
  </outline>
</glyph>
<glyph name="exclamdown" format="2">
  <advance width="501.1212121212121"/>
  <unicode hex="00A1"/>
  <outline>
    <contour>
      <point x="200.28787878787878" y="706.8181818181818" type="line"/>
      <point x="165.62121212121212" y="164.5" type="line"/>
      <point x="165.62121212121212" y="-380.0" type="line"/>
      <point x="335.5" y="-380.0" type="line"/>
      <point x="335.5" y="164.5" type="line"/>
      <point x="302.1212121212121" y="706.8181818181818" type="line"/>
    </contour>
    <contour>
      <point x="250.56060606060606" y="1097.7272727272727" type="curve" smooth="yes"/>
      <point x="181.84848484848484" y="1097.7272727272727"/>
      <point x="135.5" y="1055.439393939394"/>
      <point x="135.5" y="987.560606060606" type="curve" smooth="yes"/>
      <point x="135.5" y="919.6818181818182"/>
      <point x="180.8181818181818" y="875.9090909090909"/>
      <point x="250.56060606060606" y="875.9090909090909" type="curve" smooth="yes"/>
      <point x="320.3030303030303" y="875.9090909090909"/>
      <point x="365.6212121212121" y="920.7121212121212"/>
      <point x="365.6212121212121" y="987.560606060606" type="curve" smooth="yes"/>
      <point x="365.6212121212121" y="1054.409090909091"/>
      <point x="319.27272727272725" y="1097.7272727272727"/>
    </contour>
  </outline>
</glyph>
<glyph name="cent" format="2">
  <advance width="880.7121212121212"/>
  <unicode hex="00A2"/>
  <outline>
    <contour>
      <point x="574.3181818181819" y="-19.03030303030303" type="curve" smooth="yes"/>
      <point x="663.2424242424242" y="-19.03030303030303"/>
      <point x="752.8787878787879" y="-4.03030303030303"/>
      <point x="837.560606060606" y="25.90909090909091" type="curve"/>
      <point x="837.560606060606" y="161.39393939393938" type="line"/>
      <point x="741.6212121212121" y="130.0"/>
      <point x="666.5151515151515" y="117.03030303030303"/>
      <point x="597.030303030303" y="117.03030303030303" type="curve" smooth="yes"/>
      <point x="376.28787878787875" y="117.03030303030303"/>
      <point x="259.8484848484849" y="230.3181818181818"/>
      <point x="259.8484848484849" y="545.5454545454545" type="curve" smooth="yes"/>
      <point x="259.8484848484849" y="854.0"/>
      <point x="378.71212121212125" y="965.6060606060606"/>
      <point x="629.4242424242424" y="965.6060606060606" type="curve" smooth="yes"/>
      <point x="697.1666666666667" y="965.6060606060606"/>
      <point x="764.8484848484849" y="956.6363636363636"/>
      <point x="837.560606060606" y="938.469696969697" type="curve"/>
      <point x="837.560606060606" y="1073.9545454545455" type="line"/>
      <point x="765.5" y="1092.9242424242425"/>
      <point x="691.8939393939394" y="1101.6666666666667"/>
      <point x="615.6818181818182" y="1101.6666666666667" type="curve" smooth="yes"/>
      <point x="278.8939393939394" y="1101.6666666666667"/>
      <point x="93.83333333333333" y="935.6818181818181"/>
      <point x="93.83333333333333" y="541.8030303030303" type="curve" smooth="yes"/>
      <point x="93.83333333333333" y="148.9848484848485"/>
      <point x="265.8333333333333" y="-19.03030303030303"/>
    </contour>
    <contour>
      <point x="492.8636363636364" y="-240.0" type="line"/>
      <point x="633.1060606060606" y="-240.0" type="line"/>
      <point x="633.1060606060606" y="15.454545454545453" type="line"/>
      <point x="492.8636363636364" y="15.454545454545453" type="line"/>
    </contour>
    <contour>
      <point x="492.8636363636364" y="1069.6969696969697" type="line"/>
      <point x="633.1060606060606" y="1069.6969696969697" type="line"/>
      <point x="633.1060606060606" y="1325.1515151515152" type="line"/>
      <point x="492.8636363636364" y="1325.1515151515152" type="line"/>
    </contour>
  </outline>
</glyph>
<glyph name="sterling" format="2">
  <advance width="1266.560606060606"/>
  <unicode hex="00A3"/>
  <outline>
    <contour>
      <point x="297.5151515151515" y="55.696969696969695" type="line"/>
      <point x="456.1818181818182" y="55.696969696969695" type="line"/>
      <point x="456.1818181818182" y="1047.4545454545455" type="line" smooth="yes"/>
      <point x="456.1818181818182" y="1273.560606060606"/>
      <point x="580.060606060606" y="1360.6515151515152"/>
      <point x="839.5909090909091" y="1360.6515151515152" type="curve" smooth="yes"/>
      <point x="943.5909090909091" y="1360.6515151515152"/>
      <point x="1052.3181818181818" y="1346.1363636363637"/>
      <point x="1153.4545454545455" y="1315.4545454545455" type="curve"/>
      <point x="1153.4545454545455" y="1455.3181818181818" type="line"/>
      <point x="1061.4242424242425" y="1483.2575757575758"/>
      <point x="944.8181818181818" y="1498.5151515151515"/>
      <point x="833.8333333333334" y="1498.5151515151515" type="curve" smooth="yes"/>
      <point x="480.9090909090909" y="1498.5151515151515"/>
      <point x="297.5151515151515" y="1349.378787878788"/>
      <point x="297.5151515151515" y="1042.8181818181818" type="curve" smooth="yes"/>
    </contour>
    <contour>
      <point x="77.42424242424242" y="0.0" type="line"/>
      <point x="1193.7727272727273" y="0.0" type="line"/>
      <point x="1193.7727272727273" y="135.60606060606062" type="line"/>
      <point x="77.42424242424242" y="135.60606060606062" type="line"/>
    </contour>
    <contour>
      <point x="77.42424242424242" y="686.3181818181819" type="line"/>
      <point x="975.7272727272727" y="686.3181818181819" type="line"/>
      <point x="975.7272727272727" y="813.6818181818181" type="line"/>
      <point x="77.42424242424242" y="813.6818181818181" type="line"/>
    </contour>
  </outline>
</glyph>
<glyph name="yen" format="2">
  <advance width="1213.7121212121212"/>
  <unicode hex="00A5"/>
  <outline>
    <contour>
      <point x="526.3636363636364" y="0.0" type="line"/>
      <point x="688.6363636363636" y="0.0" type="line"/>
      <point x="688.6363636363636" y="724.0" type="line"/>
      <point x="653.1212121212121" y="603.3181818181819" type="line"/>
      <point x="1219.4545454545455" y="1480.0" type="line"/>
      <point x="1051.3636363636363" y="1480.0" type="line"/>
      <point x="583.2575757575758" y="758.8939393939394" type="line"/>
      <point x="638.3787878787879" y="758.8939393939394" type="line"/>
      <point x="169.9848484848485" y="1480.0" type="line"/>
      <point x="-9.09090909090909" y="1480.0" type="line"/>
      <point x="561.8787878787879" y="603.3181818181819" type="line"/>
      <point x="526.3636363636364" y="725.5454545454545" type="line"/>
    </contour>
    <contour>
      <point x="208.93939393939394" y="298.6212121212121" type="line"/>
      <point x="1006.060606060606" y="298.6212121212121" type="line"/>
      <point x="1006.060606060606" y="408.469696969697" type="line"/>
      <point x="208.93939393939394" y="408.469696969697" type="line"/>
    </contour>
    <contour>
      <point x="208.93939393939394" y="639.530303030303" type="line"/>
      <point x="1006.060606060606" y="639.530303030303" type="line"/>
      <point x="1006.060606060606" y="749.3787878787879" type="line"/>
      <point x="208.93939393939394" y="749.3787878787879" type="line"/>
    </contour>
  </outline>
</glyph>
<glyph name="section" format="2">
  <advance width="1014.6060606060606"/>
  <unicode hex="00A7"/>
  <outline>
    <contour>
      <point x="439.77272727272725" y="-19.03030303030303" type="curve" smooth="yes"/>
      <point x="723.0757575757576" y="-19.03030303030303"/>
      <point x="866.530303030303" y="102.18181818181819"/>
      <point x="866.530303030303" y="296.74242424242425" type="curve" smooth="yes"/>
      <point x="866.530303030303" y="447.6363636363636"/>
      <point x="785.969696969697" y="535.8333333333334"/>
      <point x="589.9242424242425" y="579.0" type="curve" smooth="yes"/>
      <point x="429.24242424242425" y="612.1515151515151" type="line" smooth="yes"/>
      <point x="302.6212121212121" y="640.0"/>
      <point x="256.8939393939394" y="701.8939393939394"/>
      <point x="256.8939393939394" y="792.8636363636364" type="curve" smooth="yes"/>
      <point x="256.8939393939394" y="856.8181818181819"/>
      <point x="286.0" y="912.060606060606"/>
      <point x="348.0151515151515" y="954.8636363636364" type="curve"/>
      <point x="254.5151515151515" y="1022.8484848484849" type="line"/>
      <point x="168.75757575757575" y="967.530303030303"/>
      <point x="118.54545454545455" y="885.469696969697"/>
      <point x="118.54545454545455" y="784.7121212121212" type="curve" smooth="yes"/>
      <point x="118.54545454545455" y="628.8636363636364"/>
      <point x="201.65151515151516" y="534.1212121212121"/>
      <point x="387.6666666666667" y="493.2121212121212" type="curve" smooth="yes"/>
      <point x="548.0909090909091" y="460.06060606060606" type="line" smooth="yes"/>
      <point x="667.7575757575758" y="433.75757575757575"/>
      <point x="715.6818181818181" y="385.8636363636364"/>
      <point x="715.6818181818181" y="286.3636363636364" type="curve" smooth="yes"/>
      <point x="715.6818181818181" y="171.21212121212122"/>
      <point x="635.939393939394" y="103.63636363636363"/>
      <point x="440.45454545454544" y="103.63636363636363" type="curve" smooth="yes"/>
      <point x="343.9848484848485" y="103.63636363636363"/>
      <point x="252.9090909090909" y="115.4090909090909"/>
      <point x="146.13636363636363" y="146.37878787878788" type="curve"/>
      <point x="146.13636363636363" y="22.227272727272727" type="line"/>
      <point x="238.57575757575756" y="-5.7727272727272725"/>
      <point x="337.93939393939394" y="-19.03030303030303"/>
    </contour>
    <contour>
      <point x="759.6515151515151" y="454.8030303030303" type="line"/>
      <point x="844.2727272727273" y="509.8939393939394"/>
      <point x="896.060606060606" y="590.7575757575758"/>
      <point x="896.060606060606" y="698.030303030303" type="curve" smooth="yes"/>
      <point x="896.060606060606" y="855.8787878787879"/>
      <point x="815.5" y="947.1060606060606"/>
      <point x="621.7727272727273" y="989.2424242424242" type="curve" smooth="yes"/>
      <point x="458.77272727272725" y="1021.8787878787879" type="line" smooth="yes"/>
      <point x="339.1060606060606" y="1048.1818181818182"/>
      <point x="296.3484848484849" y="1104.469696969697"/>
      <point x="296.3484848484849" y="1191.5757575757575" type="curve" smooth="yes"/>
      <point x="296.3484848484849" y="1293.0757575757575"/>
      <point x="370.6969696969697" y="1373.8484848484848"/>
      <point x="587.8030303030303" y="1373.8484848484848" type="curve" smooth="yes"/>
      <point x="670.3484848484849" y="1373.8484848484848"/>
      <point x="741.0151515151515" y="1365.8484848484848"/>
      <point x="828.9848484848485" y="1343.3939393939395" type="curve"/>
      <point x="828.9848484848485" y="1467.5454545454545" type="line"/>
      <point x="751.1818181818182" y="1486.5151515151515"/>
      <point x="668.4242424242425" y="1496.5151515151515"/>
      <point x="579.3030303030303" y="1496.5151515151515" type="curve" smooth="yes"/>
      <point x="280.1212121212121" y="1496.5151515151515"/>
      <point x="145.5" y="1365.3636363636363"/>
      <point x="145.5" y="1183.4242424242425" type="curve" smooth="yes"/>
      <point x="145.5" y="1037.1060606060605"/>
      <point x="228.0909090909091" y="944.6212121212121"/>
      <point x="419.5151515151515" y="902.939393939394" type="curve" smooth="yes"/>
      <point x="579.939393939394" y="869.7878787878788" type="line" smooth="yes"/>
      <point x="706.560606060606" y="841.939393939394"/>
      <point x="757.7121212121212" y="788.439393939394"/>
      <point x="757.7121212121212" y="686.3636363636364" type="curve" smooth="yes"/>
      <point x="757.7121212121212" y="616.6969696969697"/>
      <point x="727.5757575757576" y="564.7121212121212"/>
      <point x="662.3484848484849" y="523.1060606060606" type="curve"/>
    </contour>
  </outline>
</glyph>
<glyph name="dieresis" format="2">
  <advance width="1051.5151515151515"/>
  <unicode hex="00A8"/>
  <anchor x="525.7575757575758" y="1200.0" name="_top"/>
  <anchor x="525.7575757575758" y="1571.4545454545455" name="top"/>
  <outline>
    <contour>
      <point x="742.2424242424242" y="1322.6515151515152" type="curve" smooth="yes"/>
      <point x="805.8030303030303" y="1322.6515151515152"/>
      <point x="844.6818181818181" y="1360.0454545454545"/>
      <point x="844.6818181818181" y="1420.969696969697" type="curve" smooth="yes"/>
      <point x="844.6818181818181" y="1481.8939393939395"/>
      <point x="805.8030303030303" y="1520.7727272727273"/>
      <point x="742.2424242424242" y="1520.7727272727273" type="curve" smooth="yes"/>
      <point x="678.6818181818182" y="1520.7727272727273"/>
      <point x="639.8030303030303" y="1481.8939393939395"/>
      <point x="639.8030303030303" y="1420.969696969697" type="curve" smooth="yes"/>
      <point x="639.8030303030303" y="1360.0454545454545"/>
      <point x="678.6818181818182" y="1322.6515151515152"/>
    </contour>
    <contour>
      <point x="309.27272727272725" y="1322.6515151515152" type="curve" smooth="yes"/>
      <point x="372.83333333333337" y="1322.6515151515152"/>
      <point x="411.71212121212125" y="1360.0454545454545"/>
      <point x="411.71212121212125" y="1420.969696969697" type="curve" smooth="yes"/>
      <point x="411.71212121212125" y="1481.8939393939395"/>
      <point x="372.83333333333337" y="1520.7727272727273"/>
      <point x="309.27272727272725" y="1520.7727272727273" type="curve" smooth="yes"/>
      <point x="245.7121212121212" y="1520.7727272727273"/>
      <point x="206.83333333333334" y="1481.8939393939395"/>
      <point x="206.83333333333334" y="1420.969696969697" type="curve" smooth="yes"/>
      <point x="206.83333333333334" y="1360.0454545454545"/>
      <point x="245.7121212121212" y="1322.6515151515152"/>
    </contour>
  </outline>
</glyph>
<glyph name="copyright" format="2">
  <advance width="1701.8484848484848"/>
  <unicode hex="00A9"/>
  <outline>
    <contour>
      <point x="850.9242424242424" y="-22.0" type="curve" smooth="yes"/>
      <point x="1298.469696969697" y="-22.0"/>
      <point x="1596.469696969697" y="282.0"/>
      <point x="1596.469696969697" y="740.0" type="curve" smooth="yes"/>
      <point x="1596.469696969697" y="1198.0"/>
      <point x="1298.469696969697" y="1502.0"/>
      <point x="850.9242424242424" y="1502.0" type="curve" smooth="yes"/>
      <point x="403.3787878787879" y="1502.0"/>
      <point x="105.37878787878788" y="1198.0"/>
      <point x="105.37878787878788" y="740.0" type="curve" smooth="yes"/>
      <point x="105.37878787878788" y="282.0"/>
      <point x="403.3787878787879" y="-22.0"/>
    </contour>
    <contour>
      <point x="894.1969696969697" y="324.0" type="curve" smooth="yes"/>
      <point x="973.2272727272727" y="324.0"/>
      <point x="1045.2272727272727" y="336.0"/>
      <point x="1108.590909090909" y="362.90909090909093" type="curve"/>
      <point x="1108.590909090909" y="476.3030303030303" type="line"/>
      <point x="1027.621212121212" y="447.9090909090909"/>
      <point x="963.3484848484849" y="438.93939393939394"/>
      <point x="905.8636363636364" y="438.93939393939394" type="curve" smooth="yes"/>
      <point x="731.5" y="438.93939393939394"/>
      <point x="624.9545454545455" y="534.5151515151515"/>
      <point x="624.9545454545455" y="736.4545454545455" type="curve" smooth="yes"/>
      <point x="624.9545454545455" y="934.4545454545455"/>
      <point x="729.9545454545455" y="1029.060606060606"/>
      <point x="925.2878787878788" y="1029.060606060606" type="curve" smooth="yes"/>
      <point x="991.6818181818181" y="1029.060606060606"/>
      <point x="1047.1060606060605" y="1020.0909090909091"/>
      <point x="1108.590909090909" y="1004.1515151515151" type="curve"/>
      <point x="1108.590909090909" y="1117.5454545454545" type="line"/>
      <point x="1046.6515151515152" y="1136.0"/>
      <point x="986.1363636363636" y="1144.0"/>
      <point x="916.5909090909091" y="1144.0" type="curve" smooth="yes"/>
      <point x="648.469696969697" y="1144.0"/>
      <point x="494.22727272727275" y="994.969696969697"/>
      <point x="494.22727272727275" y="733.4848484848485" type="curve" smooth="yes"/>
      <point x="494.22727272727275" y="465.09090909090907"/>
      <point x="653.3787878787879" y="324.0"/>
    </contour>
    <contour>
      <point x="850.9242424242424" y="83.0909090909091" type="curve" smooth="yes"/>
      <point x="462.43939393939394" y="83.0909090909091"/>
      <point x="213.04545454545453" y="342.09090909090907"/>
      <point x="213.04545454545453" y="740.0" type="curve" smooth="yes"/>
      <point x="213.04545454545453" y="1137.909090909091"/>
      <point x="462.43939393939394" y="1396.909090909091"/>
      <point x="850.9242424242424" y="1396.909090909091" type="curve" smooth="yes"/>
      <point x="1239.409090909091" y="1396.909090909091"/>
      <point x="1488.8030303030303" y="1137.909090909091"/>
      <point x="1488.8030303030303" y="740.0" type="curve" smooth="yes"/>
      <point x="1488.8030303030303" y="342.09090909090907"/>
      <point x="1239.409090909091" y="83.0909090909091"/>
    </contour>
  </outline>
</glyph>
<glyph name="ordfeminine" format="2">
  <advance width="867.6666666666667"/>
  <unicode hex="00AA"/>
  <outline>
    <contour>
      <point x="346.07575757575756" y="594.969696969697" type="curve" smooth="yes"/>
      <point x="451.92424242424244" y="594.969696969697"/>
      <point x="550.030303030303" y="634.5909090909091"/>
      <point x="609.9090909090909" y="706.5909090909091" type="curve"/>
      <point x="618.7424242424242" y="706.5909090909091" type="line"/>
      <point x="630.4090909090909" y="610.0" type="line"/>
      <point x="755.6969696969697" y="610.0" type="line"/>
      <point x="755.6969696969697" y="1171.060606060606" type="line" smooth="yes"/>
      <point x="755.6969696969697" y="1414.2727272727273"/>
      <point x="635.4545454545455" y="1494.5757575757575"/>
      <point x="395.3636363636364" y="1494.5757575757575" type="curve" smooth="yes"/>
      <point x="308.95454545454544" y="1494.5757575757575"/>
      <point x="208.4848484848485" y="1481.090909090909"/>
      <point x="128.24242424242425" y="1454.6060606060605" type="curve"/>
      <point x="128.24242424242425" y="1335.2272727272727" type="line"/>
      <point x="213.4090909090909" y="1362.6515151515152"/>
      <point x="301.2121212121212" y="1375.3939393939395"/>
      <point x="372.7878787878788" y="1375.3939393939395" type="curve" smooth="yes"/>
      <point x="533.2121212121212" y="1375.3939393939395"/>
      <point x="607.469696969697" y="1331.5151515151515"/>
      <point x="607.469696969697" y="1185.939393939394" type="curve" smooth="yes"/>
      <point x="607.469696969697" y="805.4545454545455" type="line"/>
      <point x="546.6666666666666" y="735.3787878787879"/>
      <point x="465.530303030303" y="706.1666666666666"/>
      <point x="389.90909090909093" y="706.1666666666666" type="curve" smooth="yes"/>
      <point x="275.57575757575756" y="706.1666666666666"/>
      <point x="218.13636363636363" y="757.6060606060606"/>
      <point x="218.13636363636363" y="852.060606060606" type="curve" smooth="yes"/>
      <point x="218.13636363636363" y="941.2878787878788"/>
      <point x="275.54545454545456" y="990.5"/>
      <point x="416.21212121212125" y="1004.3787878787879" type="curve" smooth="yes"/>
      <point x="660.9545454545455" y="1027.6818181818182" type="line"/>
      <point x="646.1060606060606" y="1117.8484848484848" type="line"/>
      <point x="399.75757575757575" y="1094.030303030303" type="line" smooth="yes"/>
      <point x="166.43939393939394" y="1074.121212121212"/>
      <point x="68.74242424242425" y="989.030303030303"/>
      <point x="68.74242424242425" y="835.2424242424242" type="curve" smooth="yes"/>
      <point x="68.74242424242425" y="688.9242424242424"/>
      <point x="172.25757575757575" y="594.969696969697"/>
    </contour>
  </outline>
</glyph>
<glyph name="guillemetleft" format="2">
  <advance width="1006.9545454545455"/>
  <unicode hex="00AB"/>
  <outline>
    <contour>
      <point x="365.969696969697" y="137.42424242424244" type="line"/>
      <point x="531.6666666666666" y="137.42424242424244" type="line"/>
      <point x="277.72727272727275" y="562.5757575757576" type="line"/>
      <point x="531.6666666666666" y="987.7272727272727" type="line"/>
      <point x="365.969696969697" y="987.7272727272727" type="line"/>
      <point x="112.03030303030303" y="562.5757575757576" type="line"/>
    </contour>
    <contour>
      <point x="769.2272727272727" y="137.42424242424244" type="line"/>
      <point x="934.9242424242425" y="137.42424242424244" type="line"/>
      <point x="680.9848484848485" y="562.5757575757576" type="line"/>
      <point x="934.9242424242425" y="987.7272727272727" type="line"/>
      <point x="769.2272727272727" y="987.7272727272727" type="line"/>
      <point x="515.2878787878788" y="562.5757575757576" type="line"/>
    </contour>
  </outline>
</glyph>
<glyph name="logicalnot" format="2">
  <advance width="1333.4848484848485"/>
  <unicode hex="00AC"/>
  <outline>
    <contour>
      <point x="1057.7121212121212" y="194.06060606060606" type="line"/>
      <point x="1194.2272727272727" y="194.06060606060606" type="line"/>
      <point x="1194.2272727272727" y="824.969696969697" type="line"/>
      <point x="148.71212121212122" y="824.969696969697" type="line"/>
      <point x="148.71212121212122" y="695.030303030303" type="line"/>
      <point x="1057.7121212121212" y="695.030303030303" type="line"/>
    </contour>
  </outline>
</glyph>
<glyph name="softhyphen" format="2">
  <advance width="838.6969696969697"/>
  <unicode hex="00AD"/>
  <outline>
    <contour>
      <point x="148.71212121212122" y="494.77272727272725" type="line"/>
      <point x="689.9848484848485" y="494.77272727272725" type="line"/>
      <point x="689.9848484848485" y="630.3787878787879" type="line"/>
      <point x="148.71212121212122" y="630.3787878787879" type="line"/>
    </contour>
  </outline>
</glyph>
<glyph name="registered" format="2">
  <advance width="1502.3939393939395"/>
  <unicode hex="00AE"/>
  <outline>
    <contour>
      <point x="751.1969696969697" y="268.0" type="curve" smooth="yes"/>
      <point x="1113.1969696969697" y="268.0"/>
      <point x="1361.1969696969697" y="518.0"/>
      <point x="1361.1969696969697" y="882.0" type="curve" smooth="yes"/>
      <point x="1361.1969696969697" y="1246.0"/>
      <point x="1113.1969696969697" y="1498.0"/>
      <point x="751.1969696969697" y="1498.0" type="curve" smooth="yes"/>
      <point x="389.1969696969697" y="1498.0"/>
      <point x="141.1969696969697" y="1246.0"/>
      <point x="141.1969696969697" y="882.0" type="curve" smooth="yes"/>
      <point x="141.1969696969697" y="518.0"/>
      <point x="389.1969696969697" y="268.0"/>
    </contour>
    <contour>
      <point x="910.6515151515151" y="600.0" type="line"/>
      <point x="1013.9545454545455" y="600.0" type="line"/>
      <point x="844.1363636363636" y="849.6969696969697" type="line"/>
      <point x="757.3484848484849" y="823.6969696969697" type="line"/>
    </contour>
    <contour>
      <point x="751.1969696969697" y="357.1818181818182" type="curve" smooth="yes"/>
      <point x="438.6515151515151" y="357.1818181818182"/>
      <point x="234.95454545454544" y="563.9090909090909"/>
      <point x="234.95454545454544" y="882.0" type="curve" smooth="yes"/>
      <point x="234.95454545454544" y="1200.6060606060605"/>
      <point x="438.6515151515151" y="1408.8181818181818"/>
      <point x="751.1969696969697" y="1408.8181818181818" type="curve" smooth="yes"/>
      <point x="1063.7424242424242" y="1408.8181818181818"/>
      <point x="1267.439393939394" y="1200.6060606060605"/>
      <point x="1267.439393939394" y="882.0" type="curve" smooth="yes"/>
      <point x="1267.439393939394" y="563.9090909090909"/>
      <point x="1063.7424242424242" y="357.1818181818182"/>
    </contour>
    <contour>
      <point x="539.5909090909091" y="600.0" type="line"/>
      <point x="631.3484848484849" y="600.0" type="line"/>
      <point x="632.8939393939394" y="815.6969696969697" type="line"/>
      <point x="738.7424242424242" y="815.6969696969697" type="line" smooth="yes"/>
      <point x="905.3787878787879" y="815.6969696969697"/>
      <point x="987.8939393939394" y="881.1818181818181"/>
      <point x="987.8939393939394" y="1002.8484848484849" type="curve" smooth="yes"/>
      <point x="987.8939393939394" y="1124.5151515151515"/>
      <point x="903.3787878787879" y="1192.0"/>
      <point x="738.7424242424242" y="1192.0" type="curve" smooth="yes"/>
      <point x="539.5909090909091" y="1192.0" type="line"/>
    </contour>
    <contour>
      <point x="632.8939393939394" y="895.7272727272727" type="line"/>
      <point x="632.8939393939394" y="1111.969696969697" type="line"/>
      <point x="754.3484848484849" y="1111.969696969697" type="line" smooth="yes"/>
      <point x="849.8636363636364" y="1111.969696969697"/>
      <point x="897.1666666666666" y="1076.090909090909"/>
      <point x="897.1666666666666" y="1002.8484848484849" type="curve" smooth="yes"/>
      <point x="897.1666666666666" y="929.6060606060606"/>
      <point x="851.8636363636364" y="895.7272727272727"/>
      <point x="754.3484848484849" y="895.7272727272727" type="curve" smooth="yes"/>
    </contour>
  </outline>
</glyph>
<glyph name="macron" format="2">
  <advance width="1051.5151515151515"/>
  <unicode hex="00AF"/>
  <anchor x="525.7575757575758" y="1200.0" name="_top"/>
  <anchor x="525.7575757575758" y="1571.4545454545455" name="top"/>
  <outline>
    <contour>
      <point x="216.22727272727275" y="1368.5" type="line"/>
      <point x="835.2878787878788" y="1368.5" type="line"/>
      <point x="835.2878787878788" y="1476.1818181818182" type="line"/>
      <point x="216.22727272727275" y="1476.1818181818182" type="line"/>
    </contour>
  </outline>
</glyph>
<glyph name="degree" format="2">
  <advance width="979.3636363636364"/>
  <unicode hex="00B0"/>
  <outline>
    <contour>
      <point x="489.6818181818182" y="803.6666666666666" type="curve" smooth="yes"/>
      <point x="692.439393939394" y="803.6666666666666"/>
      <point x="838.1666666666666" y="949.8484848484849"/>
      <point x="838.1666666666666" y="1150.6060606060605" type="curve" smooth="yes"/>
      <point x="838.1666666666666" y="1351.3636363636363"/>
      <point x="692.439393939394" y="1497.030303030303"/>
      <point x="489.6818181818182" y="1497.030303030303" type="curve" smooth="yes"/>
      <point x="286.92424242424244" y="1497.030303030303"/>
      <point x="141.1969696969697" y="1351.3636363636363"/>
      <point x="141.1969696969697" y="1150.6060606060605" type="curve" smooth="yes"/>
      <point x="141.1969696969697" y="949.8484848484849"/>
      <point x="286.92424242424244" y="803.6666666666666"/>
    </contour>
    <contour>
      <point x="489.6818181818182" y="912.2272727272727" type="curve" smooth="yes"/>
      <point x="353.74242424242425" y="912.2272727272727"/>
      <point x="256.1060606060606" y="1004.3787878787879"/>
      <point x="256.1060606060606" y="1150.6060606060605" type="curve" smooth="yes"/>
      <point x="256.1060606060606" y="1297.090909090909"/>
      <point x="354.25757575757575" y="1388.469696969697"/>
      <point x="489.6818181818182" y="1388.469696969697" type="curve" smooth="yes"/>
      <point x="625.1060606060606" y="1388.469696969697"/>
      <point x="723.2575757575758" y="1297.090909090909"/>
      <point x="723.2575757575758" y="1150.6060606060605" type="curve" smooth="yes"/>
      <point x="723.2575757575758" y="1004.3787878787879"/>
      <point x="625.6212121212121" y="912.2272727272727"/>
    </contour>
  </outline>
</glyph>
<glyph name="plusminus" format="2">
  <advance width="1075.909090909091"/>
  <unicode hex="00B1"/>
  <outline>
    <contour>
      <point x="469.6969696969697" y="337.1212121212121" type="line"/>
      <point x="606.2121212121212" y="337.1212121212121" type="line"/>
      <point x="606.2121212121212" y="668.060606060606" type="line"/>
      <point x="927.1969696969697" y="668.060606060606" type="line"/>
      <point x="927.1969696969697" y="798.0" type="line"/>
      <point x="606.2121212121212" y="798.0" type="line"/>
      <point x="606.2121212121212" y="1128.939393939394" type="line"/>
      <point x="469.6969696969697" y="1128.939393939394" type="line"/>
      <point x="469.6969696969697" y="798.0" type="line"/>
      <point x="148.71212121212122" y="798.0" type="line"/>
      <point x="148.71212121212122" y="668.060606060606" type="line"/>
      <point x="469.6969696969697" y="668.060606060606" type="line"/>
    </contour>
    <contour>
      <point x="148.71212121212122" y="0.25757575757575757" type="line"/>
      <point x="927.1969696969697" y="0.25757575757575757" type="line"/>
      <point x="927.1969696969697" y="130.1969696969697" type="line"/>
      <point x="148.71212121212122" y="130.1969696969697" type="line"/>
    </contour>
  </outline>
</glyph>
<glyph name="acute" format="2">
  <advance width="1051.5151515151515"/>
  <unicode hex="00B4"/>
  <anchor x="525.7575757575758" y="1200.0" name="_top"/>
  <anchor x="525.7575757575758" y="1581.7575757575758" name="top"/>
  <outline>
    <contour>
      <point x="452.030303030303" y="1252.6666666666667" type="line"/>
      <point x="599.4848484848485" y="1252.6666666666667" type="line"/>
      <point x="839.7727272727273" y="1616.0" type="line"/>
      <point x="666.469696969697" y="1616.0" type="line"/>
    </contour>
  </outline>
</glyph>
<glyph name="micro" format="2">
  <advance width="1126.969696969697"/>
  <unicode hex="00B5"/>
  <outline>
    <contour>
      <point x="510.72727272727275" y="-18.257575757575758" type="curve" smooth="yes"/>
      <point x="625.8484848484849" y="-18.257575757575758"/>
      <point x="735.9090909090909" y="27.71212121212121"/>
      <point x="819.6060606060606" y="118.84848484848484" type="curve"/>
      <point x="829.6666666666666" y="118.84848484848484" type="line"/>
      <point x="841.3333333333334" y="0.0" type="line"/>
      <point x="975.7727272727273" y="0.0" type="line"/>
      <point x="975.7727272727273" y="1085.1515151515152" type="line"/>
      <point x="815.8181818181818" y="1085.1515151515152" type="line"/>
      <point x="815.8181818181818" y="269.04545454545456" type="line"/>
      <point x="738.7878787878788" y="166.03030303030303"/>
      <point x="618.2272727272727" y="124.24242424242425"/>
      <point x="521.2272727272727" y="124.24242424242425" type="curve" smooth="yes"/>
      <point x="389.43939393939394" y="124.24242424242425"/>
      <point x="299.21212121212125" y="186.16666666666666"/>
      <point x="299.21212121212125" y="372.0" type="curve" smooth="yes"/>
      <point x="299.21212121212125" y="529.2424242424242" type="line"/>
      <point x="211.03030303030303" y="529.2424242424242" type="line"/>
      <point x="211.03030303030303" y="364.75757575757575" type="line" smooth="yes"/>
      <point x="211.03030303030303" y="83.27272727272728"/>
      <point x="327.74242424242425" y="-18.257575757575758"/>
    </contour>
    <contour>
      <point x="139.25757575757575" y="-440.0" type="line"/>
      <point x="299.21212121212125" y="-440.0" type="line"/>
      <point x="299.21212121212125" y="1084.8939393939395" type="line"/>
      <point x="139.25757575757575" y="1084.8939393939395" type="line"/>
    </contour>
  </outline>
</glyph>
<glyph name="paragraph" format="2">
  <advance width="1232.6818181818182"/>
  <unicode hex="00B6"/>
  <outline>
    <contour>
      <point x="681.6363636363636" y="0.0" type="line"/>
      <point x="807.5909090909091" y="0.0" type="line"/>
      <point x="807.5909090909091" y="1480.0" type="line"/>
      <point x="726.530303030303" y="1489.2878787878788"/>
      <point x="632.439393939394" y="1495.5454545454545"/>
      <point x="535.9242424242424" y="1495.5454545454545" type="curve" smooth="yes"/>
      <point x="239.95454545454544" y="1495.5454545454545"/>
      <point x="89.46969696969697" y="1339.6515151515152"/>
      <point x="89.46969696969697" y="991.030303030303" type="curve" smooth="yes"/>
      <point x="89.46969696969697" y="662.1515151515151"/>
      <point x="232.0151515151515" y="485.2878787878788"/>
      <point x="546.1060606060606" y="485.2878787878788" type="curve" smooth="yes"/>
      <point x="596.0909090909091" y="485.2878787878788"/>
      <point x="635.8787878787879" y="487.77272727272725"/>
      <point x="681.6363636363636" y="492.969696969697" type="curve"/>
    </contour>
    <contour>
      <point x="937.5909090909091" y="0.0" type="line"/>
      <point x="1063.5454545454545" y="0.0" type="line"/>
      <point x="1063.5454545454545" y="1480.0" type="line"/>
      <point x="937.5909090909091" y="1480.0" type="line"/>
    </contour>
  </outline>
</glyph>
<glyph name="periodcentered" format="2">
  <advance width="461.1212121212121"/>
  <unicode hex="00B7"/>
  <anchor x="230.56060606060606" y="560.0" name="_periodcentered"/>
  <outline>
    <contour>
      <point x="230.56060606060606" y="448.3484848484849" type="curve" smooth="yes"/>
      <point x="299.27272727272725" y="448.3484848484849"/>
      <point x="345.6212121212121" y="491.6666666666667"/>
      <point x="345.6212121212121" y="558.5151515151515" type="curve" smooth="yes"/>
      <point x="345.6212121212121" y="625.3636363636364"/>
      <point x="300.3030303030303" y="670.1666666666666"/>
      <point x="230.56060606060606" y="670.1666666666666" type="curve" smooth="yes"/>
      <point x="160.8181818181818" y="670.1666666666666"/>
      <point x="115.5" y="626.3939393939394"/>
      <point x="115.5" y="558.5151515151515" type="curve" smooth="yes"/>
      <point x="115.5" y="490.6363636363636"/>
      <point x="161.84848484848484" y="448.3484848484849"/>
    </contour>
  </outline>
</glyph>
<glyph name="ordmasculine" format="2">
  <advance width="942.6363636363636"/>
  <unicode hex="00BA"/>
  <outline>
    <contour>
      <point x="471.3181818181818" y="594.969696969697" type="curve" smooth="yes"/>
      <point x="712.6515151515151" y="594.969696969697"/>
      <point x="867.6363636363636" y="738.560606060606"/>
      <point x="867.6363636363636" y="1046.2575757575758" type="curve" smooth="yes"/>
      <point x="867.6363636363636" y="1353.9545454545455"/>
      <point x="712.6515151515151" y="1494.5757575757575"/>
      <point x="471.3181818181818" y="1494.5757575757575" type="curve" smooth="yes"/>
      <point x="229.9848484848485" y="1494.5757575757575"/>
      <point x="75.0" y="1355.2424242424242"/>
      <point x="75.0" y="1046.2575757575758" type="curve" smooth="yes"/>
      <point x="75.0" y="737.2727272727273"/>
      <point x="229.9848484848485" y="594.969696969697"/>
    </contour>
    <contour>
      <point x="471.3181818181818" y="714.8939393939394" type="curve" smooth="yes"/>
      <point x="323.16666666666663" y="714.8939393939394"/>
      <point x="226.45454545454544" y="797.9242424242424"/>
      <point x="226.45454545454544" y="1046.2575757575758" type="curve" smooth="yes"/>
      <point x="226.45454545454544" y="1294.8484848484848"/>
      <point x="323.16666666666663" y="1374.6515151515152"/>
      <point x="471.3181818181818" y="1374.6515151515152" type="curve" smooth="yes"/>
      <point x="619.9848484848485" y="1374.6515151515152"/>
      <point x="716.1818181818182" y="1294.8484848484848"/>
      <point x="716.1818181818182" y="1046.2575757575758" type="curve" smooth="yes"/>
      <point x="716.1818181818182" y="797.9242424242424"/>
      <point x="619.9848484848485" y="714.8939393939394"/>
    </contour>
  </outline>
</glyph>
<glyph name="guillemetright" format="2">
  <advance width="1006.9545454545455"/>
  <unicode hex="00BB"/>
  <outline>
    <contour>
      <point x="72.03030303030303" y="137.42424242424244" type="line"/>
      <point x="237.72727272727272" y="137.42424242424244" type="line"/>
      <point x="491.66666666666663" y="562.5757575757576" type="line"/>
      <point x="237.72727272727272" y="987.7272727272727" type="line"/>
      <point x="72.03030303030303" y="987.7272727272727" type="line"/>
      <point x="325.969696969697" y="562.5757575757576" type="line"/>
    </contour>
    <contour>
      <point x="475.2878787878788" y="137.42424242424244" type="line"/>
      <point x="640.9848484848485" y="137.42424242424244" type="line"/>
      <point x="894.9242424242425" y="562.5757575757576" type="line"/>
      <point x="640.9848484848485" y="987.7272727272727" type="line"/>
      <point x="475.2878787878788" y="987.7272727272727" type="line"/>
      <point x="729.2272727272727" y="562.5757575757576" type="line"/>
    </contour>
  </outline>
</glyph>
<glyph name="onequarter" format="2">
  <advance width="1852.3636363636365"/>
  <unicode hex="00BC"/>
  <outline>
    <contour>
      <point x="369.2878787878788" y="638.5757575757576" type="line"/>
      <point x="503.0909090909091" y="638.5757575757576" type="line"/>
      <point x="503.0909090909091" y="1620.0" type="line"/>
      <point x="416.75757575757575" y="1620.0" type="line"/>
      <point x="137.93939393939394" y="1423.8333333333333" type="line"/>
      <point x="137.93939393939394" y="1296.969696969697" type="line"/>
      <point x="416.75757575757575" y="1493.1363636363637" type="line"/>
      <point x="369.2878787878788" y="1529.121212121212" type="line"/>
    </contour>
    <contour>
      <point x="139.84848484848484" y="616.0" type="line"/>
      <point x="720.7878787878788" y="616.0" type="line"/>
      <point x="720.7878787878788" y="730.2878787878788" type="line"/>
      <point x="139.84848484848484" y="730.2878787878788" type="line"/>
    </contour>
    <contour>
      <point x="460.0151515151515" y="-136.0" type="line"/>
      <point x="598.9090909090909" y="-136.0" type="line"/>
      <point x="1392.3484848484848" y="1616.0" type="line"/>
      <point x="1253.4545454545455" y="1616.0" type="line"/>
    </contour>
    <contour>
      <point x="1094.6363636363635" y="95.65151515151516" type="line"/>
      <point x="1826.909090909091" y="95.65151515151516" type="line"/>
      <point x="1826.909090909091" y="203.56060606060606" type="line"/>
      <point x="1207.878787878788" y="203.56060606060606" type="line"/>
      <point x="1224.969696969697" y="169.93939393939394" type="line"/>
      <point x="1584.121212121212" y="864.0" type="line"/>
      <point x="1454.8181818181818" y="864.0" type="line"/>
      <point x="1094.6363636363635" y="170.6818181818182" type="line"/>
    </contour>
    <contour>
      <point x="1568.6818181818182" y="-136.0" type="line"/>
      <point x="1689.409090909091" y="-136.0" type="line"/>
      <point x="1689.409090909091" y="526.0" type="line"/>
      <point x="1592.7878787878788" y="526.0" type="line"/>
      <point x="1568.6818181818182" y="203.56060606060606" type="line"/>
    </contour>
  </outline>
</glyph>
<glyph name="onehalf" format="2">
  <advance width="1852.3636363636365"/>
  <unicode hex="00BD"/>
  <outline>
    <contour>
      <point x="369.2878787878788" y="638.5757575757576" type="line"/>
      <point x="503.0909090909091" y="638.5757575757576" type="line"/>
      <point x="503.0909090909091" y="1620.0" type="line"/>
      <point x="416.75757575757575" y="1620.0" type="line"/>
      <point x="137.93939393939394" y="1423.8333333333333" type="line"/>
      <point x="137.93939393939394" y="1296.969696969697" type="line"/>
      <point x="416.75757575757575" y="1493.1363636363637" type="line"/>
      <point x="369.2878787878788" y="1529.121212121212" type="line"/>
    </contour>
    <contour>
      <point x="139.84848484848484" y="616.0" type="line"/>
      <point x="720.7878787878788" y="616.0" type="line"/>
      <point x="720.7878787878788" y="730.2878787878788" type="line"/>
      <point x="139.84848484848484" y="730.2878787878788" type="line"/>
    </contour>
    <contour>
      <point x="460.0151515151515" y="-136.0" type="line"/>
      <point x="598.9090909090909" y="-136.0" type="line"/>
      <point x="1392.3484848484848" y="1616.0" type="line"/>
      <point x="1253.4545454545455" y="1616.0" type="line"/>
    </contour>
    <contour>
      <point x="1153.8333333333333" y="-136.0" type="line"/>
      <point x="1765.7727272727273" y="-136.0" type="line"/>
      <point x="1765.7727272727273" y="-21.71212121212121" type="line"/>
      <point x="1299.1969696969697" y="-21.71212121212121" type="line"/>
      <point x="1305.848484848485" y="-57.90909090909091" type="line"/>
      <point x="1559.7272727272727" y="262.22727272727275" type="line" smooth="yes"/>
      <point x="1674.090909090909" y="405.40909090909093"/>
      <point x="1718.3181818181818" y="498.1818181818182"/>
      <point x="1719.060606060606" y="604.8636363636364" type="curve" smooth="yes"/>
      <point x="1719.8030303030303" y="794.1363636363636"/>
      <point x="1598.0151515151515" y="876.5151515151515"/>
      <point x="1383.2272727272727" y="876.5151515151515" type="curve" smooth="yes"/>
      <point x="1293.3939393939395" y="876.5151515151515"/>
      <point x="1204.9242424242425" y="863.2575757575758"/>
      <point x="1141.5757575757575" y="838.7727272727273" type="curve"/>
      <point x="1141.5757575757575" y="724.8030303030303" type="line"/>
      <point x="1208.0" y="750.2575757575758"/>
      <point x="1285.1515151515152" y="764.5454545454545"/>
      <point x="1367.8636363636363" y="764.5454545454545" type="curve" smooth="yes"/>
      <point x="1513.909090909091" y="764.5454545454545"/>
      <point x="1585.060606060606" y="713.2424242424242"/>
      <point x="1585.060606060606" y="593.1363636363636" type="curve" smooth="yes"/>
      <point x="1585.060606060606" y="512.7272727272727"/>
      <point x="1545.409090909091" y="434.969696969697"/>
      <point x="1447.3939393939395" y="311.1060606060606" type="curve" smooth="yes"/>
      <point x="1153.8333333333333" y="-62.74242424242424" type="line"/>
    </contour>
  </outline>
</glyph>
<glyph name="threequarters" format="2">
  <advance width="1852.3636363636365"/>
  <unicode hex="00BE"/>
  <outline>
    <contour>
      <point x="324.56060606060606" y="603.4848484848485" type="curve" smooth="yes"/>
      <point x="576.4242424242424" y="603.4848484848485"/>
      <point x="705.1212121212121" y="708.3181818181819"/>
      <point x="705.1212121212121" y="887.6363636363636" type="curve" smooth="yes"/>
      <point x="705.1212121212121" y="1031.030303030303"/>
      <point x="615.530303030303" y="1120.909090909091"/>
      <point x="453.3787878787879" y="1142.1666666666667" type="curve"/>
      <point x="453.3787878787879" y="1127.7424242424242" type="line"/>
      <point x="587.3333333333334" y="1156.1969696969697"/>
      <point x="671.3787878787879" y="1244.6515151515152"/>
      <point x="671.3787878787879" y="1371.7575757575758" type="curve" smooth="yes"/>
      <point x="671.3787878787879" y="1535.4242424242425"/>
      <point x="554.1666666666666" y="1628.5151515151515"/>
      <point x="333.72727272727275" y="1628.5151515151515" type="curve" smooth="yes"/>
      <point x="250.12121212121212" y="1628.5151515151515"/>
      <point x="157.87878787878788" y="1615.4848484848485"/>
      <point x="93.5909090909091" y="1592.2575757575758" type="curve"/>
      <point x="93.5909090909091" y="1483.6969696969697" type="line"/>
      <point x="165.53030303030303" y="1510.6666666666667"/>
      <point x="245.45454545454544" y="1522.6969696969697"/>
      <point x="320.93939393939394" y="1522.6969696969697" type="curve" smooth="yes"/>
      <point x="468.06060606060606" y="1522.6969696969697"/>
      <point x="541.9545454545455" y="1466.4848484848485"/>
      <point x="541.9545454545455" y="1361.5454545454545" type="curve" smooth="yes"/>
      <point x="541.9545454545455" y="1247.2727272727273"/>
      <point x="453.8181818181818" y="1182.6363636363637"/>
      <point x="279.3787878787879" y="1182.6363636363637" type="curve" smooth="yes"/>
      <point x="195.57575757575756" y="1182.6363636363637" type="line"/>
      <point x="195.57575757575756" y="1075.0454545454545" type="line"/>
      <point x="330.72727272727275" y="1075.0454545454545" type="line" smooth="yes"/>
      <point x="501.3787878787879" y="1075.0454545454545"/>
      <point x="576.9848484848485" y="1008.6969696969697"/>
      <point x="576.9848484848485" y="895.530303030303" type="curve" smooth="yes"/>
      <point x="576.9848484848485" y="774.1969696969697"/>
      <point x="492.6666666666667" y="709.560606060606"/>
      <point x="320.1818181818182" y="709.560606060606" type="curve" smooth="yes"/>
      <point x="242.15151515151516" y="709.560606060606"/>
      <point x="152.25757575757575" y="722.3030303030303"/>
      <point x="70.71212121212122" y="749.2424242424242" type="curve"/>
      <point x="70.71212121212122" y="640.6818181818181" type="line"/>
      <point x="148.83333333333334" y="615.969696969697"/>
      <point x="237.1818181818182" y="603.4848484848485"/>
    </contour>
    <contour>
      <point x="460.0151515151515" y="-136.0" type="line"/>
      <point x="598.9090909090909" y="-136.0" type="line"/>
      <point x="1392.3484848484848" y="1616.0" type="line"/>
      <point x="1253.4545454545455" y="1616.0" type="line"/>
    </contour>
    <contour>
      <point x="1094.6363636363635" y="95.65151515151516" type="line"/>
      <point x="1826.909090909091" y="95.65151515151516" type="line"/>
      <point x="1826.909090909091" y="203.56060606060606" type="line"/>
      <point x="1207.878787878788" y="203.56060606060606" type="line"/>
      <point x="1224.969696969697" y="169.93939393939394" type="line"/>
      <point x="1584.121212121212" y="864.0" type="line"/>
      <point x="1454.8181818181818" y="864.0" type="line"/>
      <point x="1094.6363636363635" y="170.6818181818182" type="line"/>
    </contour>
    <contour>
      <point x="1568.6818181818182" y="-136.0" type="line"/>
      <point x="1689.409090909091" y="-136.0" type="line"/>
      <point x="1689.409090909091" y="526.0" type="line"/>
      <point x="1592.7878787878788" y="526.0" type="line"/>
      <point x="1568.6818181818182" y="203.56060606060606" type="line"/>
    </contour>
  </outline>
</glyph>
<glyph name="questiondown" format="2">
  <advance width="903.7424242424242"/>
  <unicode hex="00BF"/>
  <outline>
    <contour>
      <point x="548.8939393939394" y="725.3939393939394" type="line"/>
      <point x="447.06060606060606" y="725.3939393939394" type="line"/>
      <point x="432.1666666666667" y="402.72727272727275" type="line"/>
      <point x="164.56060606060606" y="302.1515151515151"/>
      <point x="59.10606060606061" y="174.83333333333334"/>
      <point x="59.10606060606061" y="-30.772727272727273" type="curve" smooth="yes"/>
      <point x="59.10606060606061" y="-262.8787878787879"/>
      <point x="222.4090909090909" y="-400.0"/>
      <point x="527.0909090909091" y="-400.0" type="curve" smooth="yes"/>
      <point x="644.7272727272727" y="-400.0"/>
      <point x="770.8333333333334" y="-379.969696969697"/>
      <point x="864.3787878787879" y="-345.74242424242425" type="curve"/>
      <point x="864.3787878787879" y="-211.03030303030303" type="line"/>
      <point x="760.439393939394" y="-248.74242424242425"/>
      <point x="650.7424242424242" y="-266.77272727272725"/>
      <point x="541.2272727272727" y="-266.77272727272725" type="curve" smooth="yes"/>
      <point x="326.4848484848485" y="-266.77272727272725"/>
      <point x="217.45454545454544" y="-178.22727272727272"/>
      <point x="217.45454545454544" y="-20.984848484848484" type="curve" smooth="yes"/>
      <point x="217.45454545454544" y="134.96969696969697"/>
      <point x="303.5" y="234.3181818181818"/>
      <point x="576.6060606060606" y="318.3181818181818" type="curve"/>
    </contour>
    <contour>
      <point x="497.8484848484849" y="1097.7272727272727" type="curve" smooth="yes"/>
      <point x="427.6515151515151" y="1097.7272727272727"/>
      <point x="382.7878787878788" y="1053.9545454545455"/>
      <point x="382.7878787878788" y="990.9090909090909" type="curve" smooth="yes"/>
      <point x="382.7878787878788" y="926.3787878787879"/>
      <point x="428.1060606060606" y="882.6060606060606"/>
      <point x="497.8484848484849" y="882.6060606060606" type="curve" smooth="yes"/>
      <point x="567.5909090909091" y="882.6060606060606"/>
      <point x="612.9090909090909" y="925.3484848484849"/>
      <point x="612.9090909090909" y="990.9090909090909" type="curve" smooth="yes"/>
      <point x="612.9090909090909" y="1054.9848484848485"/>
      <point x="566.560606060606" y="1097.7272727272727"/>
    </contour>
  </outline>
</glyph>
<glyph name="Atilde" format="2">
  <advance width="1348.8484848484848"/>
  <unicode hex="00C3"/>
  <anchor x="674.9090909090909" y="1520.0" name="_top"/>
  <anchor x="675.1666666666666" y="0.0" name="bottom"/>
  <anchor x="1320.348484848485" y="0.0" name="ogonek"/>
  <anchor x="674.9090909090909" y="1520.0" name="top"/>
  <outline>
    <contour>
      <point x="28.5" y="0.0" type="line"/>
      <point x="190.87878787878788" y="0.0" type="line"/>
      <point x="686.7121212121212" y="1402.6515151515152" type="line"/>
      <point x="659.1060606060606" y="1402.6515151515152" type="line"/>
      <point x="1155.4545454545455" y="0.0" type="line"/>
      <point x="1320.348484848485" y="0.0" type="line"/>
      <point x="788.5151515151515" y="1480.0" type="line"/>
      <point x="560.3333333333334" y="1480.0" type="line"/>
    </contour>
    <contour>
      <point x="306.92424242424244" y="479.3181818181818" type="line"/>
      <point x="1041.1515151515152" y="479.3181818181818" type="line"/>
      <point x="1003.1212121212121" y="615.8939393939394" type="line"/>
      <point x="345.2121212121212" y="615.8939393939394" type="line"/>
    </contour>
    <contour>
      <point x="829.2121212121212" y="1668.409090909091" type="curve" smooth="yes"/>
      <point x="906.1969696969697" y="1668.409090909091"/>
      <point x="961.060606060606" y="1690.409090909091"/>
      <point x="1002.5" y="1733.0151515151515" type="curve"/>
      <point x="1002.5" y="1842.7727272727273" type="line"/>
      <point x="952.8030303030303" y="1795.030303030303"/>
      <point x="903.1969696969697" y="1772.030303030303"/>
      <point x="831.2727272727273" y="1772.030303030303" type="curve" smooth="yes"/>
      <point x="729.7424242424242" y="1772.030303030303"/>
      <point x="642.1363636363636" y="1848.5454545454545"/>
      <point x="520.6060606060606" y="1848.5454545454545" type="curve" smooth="yes"/>
      <point x="443.6212121212121" y="1848.5454545454545"/>
      <point x="388.75757575757575" y="1826.030303030303"/>
      <point x="347.3181818181818" y="1783.4242424242425" type="curve"/>
      <point x="347.3181818181818" y="1673.6666666666667" type="line"/>
      <point x="397.0151515151515" y="1721.409090909091"/>
      <point x="446.6212121212121" y="1744.409090909091"/>
      <point x="518.5454545454545" y="1744.409090909091" type="curve" smooth="yes"/>
      <point x="620.0757575757576" y="1744.409090909091"/>
      <point x="707.6818181818181" y="1668.409090909091"/>
    </contour>
  </outline>
</glyph>
<glyph name="Adieresis" format="2">
  <advance width="1348.8484848484848"/>
  <unicode hex="00C4"/>
  <anchor x="674.9090909090909" y="1520.0" name="_top"/>
  <anchor x="675.1666666666666" y="0.0" name="bottom"/>
  <anchor x="1320.348484848485" y="0.0" name="ogonek"/>
  <anchor x="674.9090909090909" y="1520.0" name="top"/>
  <outline>
    <contour>
      <point x="28.5" y="0.0" type="line"/>
      <point x="190.87878787878788" y="0.0" type="line"/>
      <point x="686.7121212121212" y="1402.6515151515152" type="line"/>
      <point x="659.1060606060606" y="1402.6515151515152" type="line"/>
      <point x="1155.4545454545455" y="0.0" type="line"/>
      <point x="1320.348484848485" y="0.0" type="line"/>
      <point x="788.5151515151515" y="1480.0" type="line"/>
      <point x="560.3333333333334" y="1480.0" type="line"/>
    </contour>
    <contour>
      <point x="306.92424242424244" y="479.3181818181818" type="line"/>
      <point x="1041.1515151515152" y="479.3181818181818" type="line"/>
      <point x="1003.1212121212121" y="615.8939393939394" type="line"/>
      <point x="345.2121212121212" y="615.8939393939394" type="line"/>
    </contour>
    <contour>
      <point x="908.560606060606" y="1659.090909090909" type="curve" smooth="yes"/>
      <point x="972.8939393939394" y="1659.090909090909"/>
      <point x="1010.7424242424242" y="1693.909090909091"/>
      <point x="1010.7424242424242" y="1751.4848484848485" type="curve" smooth="yes"/>
      <point x="1010.7424242424242" y="1809.060606060606"/>
      <point x="972.8939393939394" y="1845.3636363636363"/>
      <point x="908.560606060606" y="1845.3636363636363" type="curve" smooth="yes"/>
      <point x="844.2272727272727" y="1845.3636363636363"/>
      <point x="806.3787878787879" y="1809.060606060606"/>
      <point x="806.3787878787879" y="1751.4848484848485" type="curve" smooth="yes"/>
      <point x="806.3787878787879" y="1693.909090909091"/>
      <point x="844.2272727272727" y="1659.090909090909"/>
    </contour>
    <contour>
      <point x="441.25757575757575" y="1659.090909090909" type="curve" smooth="yes"/>
      <point x="505.5909090909091" y="1659.090909090909"/>
      <point x="543.439393939394" y="1693.909090909091"/>
      <point x="543.439393939394" y="1751.4848484848485" type="curve" smooth="yes"/>
      <point x="543.439393939394" y="1809.060606060606"/>
      <point x="505.5909090909091" y="1845.3636363636363"/>
      <point x="441.25757575757575" y="1845.3636363636363" type="curve" smooth="yes"/>
      <point x="376.92424242424244" y="1845.3636363636363"/>
      <point x="339.07575757575756" y="1809.060606060606"/>
      <point x="339.07575757575756" y="1751.4848484848485" type="curve" smooth="yes"/>
      <point x="339.07575757575756" y="1693.909090909091"/>
      <point x="376.92424242424244" y="1659.090909090909"/>
    </contour>
  </outline>
</glyph>
<glyph name="Aring" format="2">
  <advance width="1348.8484848484848"/>
  <unicode hex="00C5"/>
  <anchor x="677.1363636363636" y="1386.3636363636363" name="_top"/>
  <anchor x="675.1666666666666" y="0.0" name="bottom"/>
  <anchor x="1320.348484848485" y="0.0" name="ogonek"/>
  <anchor x="674.9090909090909" y="1520.0" name="top"/>
  <outline>
    <contour>
      <point x="28.5" y="0.0" type="line"/>
      <point x="190.87878787878788" y="0.0" type="line"/>
      <point x="686.7121212121212" y="1402.6515151515152" type="line"/>
      <point x="659.1060606060606" y="1402.6515151515152" type="line"/>
      <point x="1155.4545454545455" y="0.0" type="line"/>
      <point x="1320.348484848485" y="0.0" type="line"/>
      <point x="788.5151515151515" y="1480.0" type="line"/>
      <point x="560.3333333333334" y="1480.0" type="line"/>
    </contour>
    <contour>
      <point x="306.92424242424244" y="479.3181818181818" type="line"/>
      <point x="1041.1515151515152" y="479.3181818181818" type="line"/>
      <point x="1003.1212121212121" y="615.8939393939394" type="line"/>
      <point x="345.2121212121212" y="615.8939393939394" type="line"/>
    </contour>
    <contour>
      <point x="677.1363636363636" y="1466.8030303030303" type="curve" smooth="yes"/>
      <point x="789.8333333333334" y="1466.8030303030303"/>
      <point x="872.469696969697" y="1548.409090909091"/>
      <point x="872.469696969697" y="1660.0757575757575" type="curve" smooth="yes"/>
      <point x="872.469696969697" y="1771.7424242424242"/>
      <point x="789.8333333333334" y="1853.3484848484848"/>
      <point x="677.1363636363636" y="1853.3484848484848" type="curve" smooth="yes"/>
      <point x="564.439393939394" y="1853.3484848484848"/>
      <point x="481.8030303030303" y="1771.7424242424242"/>
      <point x="481.8030303030303" y="1660.0757575757575" type="curve" smooth="yes"/>
      <point x="481.8030303030303" y="1548.409090909091"/>
      <point x="564.439393939394" y="1466.8030303030303"/>
    </contour>
    <contour>
      <point x="677.1363636363636" y="1540.9545454545455" type="curve" smooth="yes"/>
      <point x="608.8636363636364" y="1540.9545454545455"/>
      <point x="560.530303030303" y="1586.3181818181818"/>
      <point x="560.530303030303" y="1660.0757575757575" type="curve" smooth="yes"/>
      <point x="560.530303030303" y="1733.8333333333333"/>
      <point x="608.8636363636364" y="1779.1969696969697"/>
      <point x="677.1363636363636" y="1779.1969696969697" type="curve" smooth="yes"/>
      <point x="745.4090909090909" y="1779.1969696969697"/>
      <point x="793.7424242424242" y="1733.8333333333333"/>
      <point x="793.7424242424242" y="1660.0757575757575" type="curve" smooth="yes"/>
      <point x="793.7424242424242" y="1586.3181818181818"/>
      <point x="745.4090909090909" y="1540.9545454545455"/>
    </contour>
  </outline>
</glyph>
<glyph name="AE" format="2">
  <advance width="1846.9545454545455"/>
  <unicode hex="00C6"/>
  <anchor x="988.0909090909091" y="0.0" name="bottom"/>
  <anchor x="920.530303030303" y="1520.0" name="top"/>
  <outline>
    <contour>
      <point x="28.5" y="0.0" type="line"/>
      <point x="191.65151515151516" y="0.0" type="line"/>
      <point x="677.4090909090909" y="1342.909090909091" type="line"/>
      <point x="915.7272727272727" y="1342.909090909091" type="line"/>
      <point x="917.2121212121212" y="1480.0" type="line"/>
      <point x="568.5" y="1480.0" type="line"/>
    </contour>
    <contour>
      <point x="311.3787878787879" y="479.06060606060606" type="line"/>
      <point x="959.439393939394" y="479.06060606060606" type="line"/>
      <point x="959.439393939394" y="616.1515151515151" type="line"/>
      <point x="349.66666666666663" y="616.1515151515151" type="line"/>
    </contour>
    <contour>
      <point x="939.8939393939394" y="0.0" type="line"/>
      <point x="1775.6969696969697" y="0.0" type="line"/>
      <point x="1775.6969696969697" y="137.0909090909091" type="line"/>
      <point x="1091.1818181818182" y="137.0909090909091" type="line"/>
      <point x="1006.7878787878788" y="1342.909090909091" type="line"/>
      <point x="1765.6969696969697" y="1342.909090909091" type="line"/>
      <point x="1765.6969696969697" y="1480.0" type="line"/>
      <point x="839.7121212121212" y="1480.0" type="line"/>
    </contour>
    <contour>
      <point x="982.560606060606" y="690.9090909090909" type="line"/>
      <point x="1668.121212121212" y="690.9090909090909" type="line"/>
      <point x="1668.121212121212" y="828.0" type="line"/>
      <point x="982.560606060606" y="828.0" type="line"/>
    </contour>
  </outline>
</glyph>
<glyph name="Ccedilla" format="2">
  <advance width="1150.969696969697"/>
  <unicode hex="00C7"/>
  <anchor x="713.469696969697" y="0.0" name="_bottom"/>
  <anchor x="713.469696969697" y="0.0" name="bottom"/>
  <anchor x="702.3333333333334" y="1520.0" name="top"/>
  <outline>
    <contour>
      <point x="775.3636363636364" y="-18.515151515151516" type="curve" smooth="yes"/>
      <point x="898.7878787878788" y="-18.515151515151516"/>
      <point x="1011.9090909090909" y="1.4545454545454546"/>
      <point x="1110.590909090909" y="35.878787878787875" type="curve"/>
      <point x="1110.590909090909" y="177.03030303030303" type="line"/>
      <point x="993.5757575757576" y="138.1818181818182"/>
      <point x="895.8030303030303" y="121.92424242424242"/>
      <point x="786.6969696969697" y="121.92424242424242" type="curve" smooth="yes"/>
      <point x="467.3939393939394" y="121.92424242424242"/>
      <point x="275.77272727272725" y="271.8484848484849"/>
      <point x="275.77272727272725" y="741.4848484848485" type="curve" smooth="yes"/>
      <point x="275.77272727272725" y="1194.2424242424242"/>
      <point x="461.0" y="1358.0757575757575"/>
      <point x="797.439393939394" y="1358.0757575757575" type="curve" smooth="yes"/>
      <point x="904.8636363636364" y="1358.0757575757575"/>
      <point x="1006.5151515151515" y="1344.8484848484848"/>
      <point x="1110.590909090909" y="1314.4848484848485" type="curve"/>
      <point x="1110.590909090909" y="1455.6363636363637" type="line"/>
      <point x="1007.8787878787879" y="1484.060606060606"/>
      <point x="904.5909090909091" y="1498.5151515151515"/>
      <point x="791.3636363636364" y="1498.5151515151515" type="curve" smooth="yes"/>
      <point x="361.6060606060606" y="1498.5151515151515"/>
      <point x="105.37878787878788" y="1272.5454545454545"/>
      <point x="105.37878787878788" y="737.4848484848485" type="curve" smooth="yes"/>
      <point x="105.37878787878788" y="182.87878787878788"/>
      <point x="366.71212121212125" y="-18.515151515151516"/>
    </contour>
    <contour>
      <point x="709.7575757575758" y="-415.45454545454544" type="curve" smooth="yes"/>
      <point x="849.5151515151515" y="-415.45454545454544"/>
      <point x="930.6363636363636" y="-359.72727272727275"/>
      <point x="930.6363636363636" y="-257.2878787878788" type="curve" smooth="yes"/>
      <point x="930.6363636363636" y="-154.84848484848484"/>
      <point x="850.030303030303" y="-100.92424242424242"/>
      <point x="718.939393939394" y="-100.92424242424242" type="curve"/>
      <point x="752.2878787878788" y="-136.84848484848484" type="line"/>
      <point x="752.2878787878788" y="20.0" type="line"/>
      <point x="660.7424242424242" y="20.0" type="line"/>
      <point x="660.7424242424242" y="-168.37878787878788" type="line"/>
      <point x="702.3484848484849" y="-168.37878787878788" type="line" smooth="yes"/>
      <point x="785.5151515151515" y="-168.37878787878788"/>
      <point x="833.6818181818182" y="-194.06060606060606"/>
      <point x="833.6818181818182" y="-253.42424242424244" type="curve" smooth="yes"/>
      <point x="833.6818181818182" y="-312.530303030303"/>
      <point x="786.030303030303" y="-337.43939393939394"/>
      <point x="704.0909090909091" y="-337.43939393939394" type="curve" smooth="yes"/>
      <point x="646.8636363636364" y="-337.43939393939394"/>
      <point x="586.969696969697" y="-326.95454545454544"/>
      <point x="517.0909090909091" y="-298.3030303030303" type="curve"/>
      <point x="517.0909090909091" y="-379.030303030303" type="line"/>
      <point x="574.1212121212121" y="-402.969696969697"/>
      <point x="643.3484848484849" y="-415.45454545454544"/>
    </contour>
  </outline>
</glyph>
<glyph name="Egrave" format="2">
  <advance width="1166.0"/>
  <unicode hex="00C8"/>
  <anchor x="648.939393939394" y="1520.0" name="_top"/>
  <anchor x="650.4242424242424" y="0.0" name="bottom"/>
  <anchor x="1012.1666666666666" y="0.0" name="ogonek"/>
  <anchor x="648.939393939394" y="1520.0" name="top"/>
  <anchor x="40.22727272727273" y="1480.0" name="topleft"/>
  <outline>
    <contour>
      <point x="169.13636363636363" y="0.0" type="line"/>
      <point x="1094.7424242424242" y="0.0" type="line"/>
      <point x="1094.7424242424242" y="137.0909090909091" type="line"/>
      <point x="329.8636363636364" y="137.0909090909091" type="line"/>
      <point x="329.8636363636364" y="1342.909090909091" type="line"/>
      <point x="1084.7424242424242" y="1342.909090909091" type="line"/>
      <point x="1084.7424242424242" y="1480.0" type="line"/>
      <point x="169.13636363636363" y="1480.0" type="line"/>
    </contour>
    <contour>
      <point x="271.42424242424244" y="690.9090909090909" type="line"/>
      <point x="987.1666666666666" y="690.9090909090909" type="line"/>
      <point x="987.1666666666666" y="828.0" type="line"/>
      <point x="271.42424242424244" y="828.0" type="line"/>
    </contour>
    <contour>
      <point x="575.9848484848485" y="1608.2727272727273" type="line"/>
      <point x="721.8939393939394" y="1608.2727272727273" type="line"/>
      <point x="544.8333333333334" y="1891.6060606060605" type="line"/>
      <point x="371.8181818181818" y="1891.6060606060605" type="line"/>
    </contour>
  </outline>
</glyph>
<glyph name="Edieresis" format="2">
  <advance width="1166.0"/>
  <unicode hex="00CB"/>
  <anchor x="648.939393939394" y="1520.0" name="_top"/>
  <anchor x="650.4242424242424" y="0.0" name="bottom"/>
  <anchor x="1012.1666666666666" y="0.0" name="ogonek"/>
  <anchor x="648.939393939394" y="1520.0" name="top"/>
  <anchor x="40.22727272727273" y="1480.0" name="topleft"/>
  <outline>
    <contour>
      <point x="169.13636363636363" y="0.0" type="line"/>
      <point x="1094.7424242424242" y="0.0" type="line"/>
      <point x="1094.7424242424242" y="137.0909090909091" type="line"/>
      <point x="329.8636363636364" y="137.0909090909091" type="line"/>
      <point x="329.8636363636364" y="1342.909090909091" type="line"/>
      <point x="1084.7424242424242" y="1342.909090909091" type="line"/>
      <point x="1084.7424242424242" y="1480.0" type="line"/>
      <point x="169.13636363636363" y="1480.0" type="line"/>
    </contour>
    <contour>
      <point x="271.42424242424244" y="690.9090909090909" type="line"/>
      <point x="987.1666666666666" y="690.9090909090909" type="line"/>
      <point x="987.1666666666666" y="828.0" type="line"/>
      <point x="271.42424242424244" y="828.0" type="line"/>
    </contour>
    <contour>
      <point x="882.5909090909091" y="1659.090909090909" type="curve" smooth="yes"/>
      <point x="946.9242424242425" y="1659.090909090909"/>
      <point x="984.7727272727273" y="1693.909090909091"/>
      <point x="984.7727272727273" y="1751.4848484848485" type="curve" smooth="yes"/>
      <point x="984.7727272727273" y="1809.060606060606"/>
      <point x="946.9242424242425" y="1845.3636363636363"/>
      <point x="882.5909090909091" y="1845.3636363636363" type="curve" smooth="yes"/>
      <point x="818.2575757575758" y="1845.3636363636363"/>
      <point x="780.4090909090909" y="1809.060606060606"/>
      <point x="780.4090909090909" y="1751.4848484848485" type="curve" smooth="yes"/>
      <point x="780.4090909090909" y="1693.909090909091"/>
      <point x="818.2575757575758" y="1659.090909090909"/>
    </contour>
    <contour>
      <point x="415.2878787878788" y="1659.090909090909" type="curve" smooth="yes"/>
      <point x="479.6212121212121" y="1659.090909090909"/>
      <point x="517.469696969697" y="1693.909090909091"/>
      <point x="517.469696969697" y="1751.4848484848485" type="curve" smooth="yes"/>
      <point x="517.469696969697" y="1809.060606060606"/>
      <point x="479.6212121212121" y="1845.3636363636363"/>
      <point x="415.2878787878788" y="1845.3636363636363" type="curve" smooth="yes"/>
      <point x="350.95454545454544" y="1845.3636363636363"/>
      <point x="313.1060606060606" y="1809.060606060606"/>
      <point x="313.1060606060606" y="1751.4848484848485" type="curve" smooth="yes"/>
      <point x="313.1060606060606" y="1693.909090909091"/>
      <point x="350.95454545454544" y="1659.090909090909"/>
    </contour>
  </outline>
</glyph>
<glyph name="Igrave" format="2">
  <advance width="500.54545454545456"/>
  <unicode hex="00CC"/>
  <anchor x="250.27272727272728" y="1520.0" name="_top"/>
  <anchor x="250.0151515151515" y="0.0" name="bottom"/>
  <anchor x="331.4090909090909" y="0.0" name="ogonek"/>
  <anchor x="250.27272727272728" y="1520.0" name="top"/>
  <outline>
    <contour>
      <point x="169.13636363636363" y="0.0" type="line"/>
      <point x="331.4090909090909" y="0.0" type="line"/>
      <point x="331.4090909090909" y="1480.0" type="line"/>
      <point x="169.13636363636363" y="1480.0" type="line"/>
    </contour>
    <contour>
      <point x="177.3181818181818" y="1608.2727272727273" type="line"/>
      <point x="323.22727272727275" y="1608.2727272727273" type="line"/>
      <point x="146.16666666666666" y="1891.6060606060605" type="line"/>
      <point x="-26.84848484848485" y="1891.6060606060605" type="line"/>
    </contour>
  </outline>
</glyph>
<glyph name="Iacute" format="2">
  <advance width="500.54545454545456"/>
  <unicode hex="00CD"/>
  <anchor x="250.27272727272728" y="1520.0" name="_top"/>
  <anchor x="250.0151515151515" y="0.0" name="bottom"/>
  <anchor x="331.4090909090909" y="0.0" name="ogonek"/>
  <anchor x="250.27272727272728" y="1520.0" name="top"/>
  <outline>
    <contour>
      <point x="169.13636363636363" y="0.0" type="line"/>
      <point x="331.4090909090909" y="0.0" type="line"/>
      <point x="331.4090909090909" y="1480.0" type="line"/>
      <point x="169.13636363636363" y="1480.0" type="line"/>
    </contour>
    <contour>
      <point x="176.8030303030303" y="1608.2727272727273" type="line"/>
      <point x="322.71212121212125" y="1608.2727272727273" type="line"/>
      <point x="526.8787878787879" y="1891.6060606060605" type="line"/>
      <point x="353.8636363636364" y="1891.6060606060605" type="line"/>
    </contour>
  </outline>
</glyph>
<glyph name="Icircumflex" format="2">
  <advance width="500.54545454545456"/>
  <unicode hex="00CE"/>
  <anchor x="250.27272727272728" y="1520.0" name="_top"/>
  <anchor x="250.0151515151515" y="0.0" name="bottom"/>
  <anchor x="331.4090909090909" y="0.0" name="ogonek"/>
  <anchor x="250.27272727272728" y="1520.0" name="top"/>
  <outline>
    <contour>
      <point x="169.13636363636363" y="0.0" type="line"/>
      <point x="331.4090909090909" y="0.0" type="line"/>
      <point x="331.4090909090909" y="1480.0" type="line"/>
      <point x="169.13636363636363" y="1480.0" type="line"/>
    </contour>
    <contour>
      <point x="-69.19696969696969" y="1608.2727272727273" type="line"/>
      <point x="70.78787878787878" y="1608.2727272727273" type="line"/>
      <point x="267.6515151515151" y="1841.4848484848485" type="line"/>
      <point x="232.8939393939394" y="1841.4848484848485" type="line"/>
      <point x="429.75757575757575" y="1608.2727272727273" type="line"/>
      <point x="569.7424242424242" y="1608.2727272727273" type="line"/>
      <point x="324.07575757575756" y="1891.6060606060605" type="line"/>
      <point x="176.46969696969697" y="1891.6060606060605" type="line"/>
    </contour>
  </outline>
</glyph>
<glyph name="Idieresis" format="2">
  <advance width="500.54545454545456"/>
  <unicode hex="00CF"/>
  <anchor x="250.27272727272728" y="1520.0" name="_top"/>
  <anchor x="250.0151515151515" y="0.0" name="bottom"/>
  <anchor x="331.4090909090909" y="0.0" name="ogonek"/>
  <anchor x="250.27272727272728" y="1520.0" name="top"/>
  <outline>
    <contour>
      <point x="169.13636363636363" y="0.0" type="line"/>
      <point x="331.4090909090909" y="0.0" type="line"/>
      <point x="331.4090909090909" y="1480.0" type="line"/>
      <point x="169.13636363636363" y="1480.0" type="line"/>
    </contour>
    <contour>
      <point x="483.92424242424244" y="1659.090909090909" type="curve" smooth="yes"/>
      <point x="548.2575757575758" y="1659.090909090909"/>
      <point x="586.1060606060606" y="1693.909090909091"/>
      <point x="586.1060606060606" y="1751.4848484848485" type="curve" smooth="yes"/>
      <point x="586.1060606060606" y="1809.060606060606"/>
      <point x="548.2575757575758" y="1845.3636363636363"/>
      <point x="483.92424242424244" y="1845.3636363636363" type="curve" smooth="yes"/>
      <point x="419.5909090909091" y="1845.3636363636363"/>
      <point x="381.74242424242425" y="1809.060606060606"/>
      <point x="381.74242424242425" y="1751.4848484848485" type="curve" smooth="yes"/>
      <point x="381.74242424242425" y="1693.909090909091"/>
      <point x="419.5909090909091" y="1659.090909090909"/>
    </contour>
    <contour>
      <point x="16.62121212121212" y="1659.090909090909" type="curve" smooth="yes"/>
      <point x="80.95454545454545" y="1659.090909090909"/>
      <point x="118.80303030303031" y="1693.909090909091"/>
      <point x="118.80303030303031" y="1751.4848484848485" type="curve" smooth="yes"/>
      <point x="118.80303030303031" y="1809.060606060606"/>
      <point x="80.95454545454545" y="1845.3636363636363"/>
      <point x="16.62121212121212" y="1845.3636363636363" type="curve" smooth="yes"/>
      <point x="-47.71212121212122" y="1845.3636363636363"/>
      <point x="-85.56060606060606" y="1809.060606060606"/>
      <point x="-85.56060606060606" y="1751.4848484848485" type="curve" smooth="yes"/>
      <point x="-85.56060606060606" y="1693.909090909091"/>
      <point x="-47.71212121212122" y="1659.090909090909"/>
    </contour>
  </outline>
</glyph>
<glyph name="Eth" format="2">
  <advance width="1400.439393939394"/>
  <unicode hex="00D0"/>
  <anchor x="169.13636363636363" y="762.0" name="_stroke"/>
  <anchor x="638.0454545454545" y="0.0" name="bottom"/>
  <anchor x="696.2424242424242" y="740.0" name="center"/>
  <anchor x="169.13636363636363" y="762.0" name="stroke"/>
  <anchor x="632.8939393939394" y="1520.0" name="top"/>
  <outline>
    <contour>
      <point x="519.3333333333334" y="-11.803030303030303" type="curve" smooth="yes"/>
      <point x="1032.8333333333333" y="-11.803030303030303"/>
      <point x="1295.060606060606" y="217.62121212121212"/>
      <point x="1295.060606060606" y="740.0" type="curve" smooth="yes"/>
      <point x="1295.060606060606" y="1252.8333333333333"/>
      <point x="1043.6363636363635" y="1494.7727272727273"/>
      <point x="555.7878787878788" y="1494.7727272727273" type="curve" smooth="yes"/>
      <point x="429.75757575757575" y="1494.7727272727273"/>
      <point x="289.1818181818182" y="1480.1969696969697"/>
      <point x="169.13636363636363" y="1455.8484848484848" type="curve"/>
      <point x="169.13636363636363" y="9.484848484848484" type="line"/>
      <point x="300.969696969697" y="-6.03030303030303"/>
      <point x="407.6363636363636" y="-11.803030303030303"/>
    </contour>
    <contour>
      <point x="551.469696969697" y="126.83333333333333" type="curve" smooth="yes"/>
      <point x="466.1818181818182" y="126.83333333333333"/>
      <point x="399.6818181818182" y="130.54545454545456"/>
      <point x="331.4090909090909" y="139.4848484848485" type="curve"/>
      <point x="331.4090909090909" y="1337.2272727272727" type="line"/>
      <point x="409.95454545454544" y="1349.4242424242425"/>
      <point x="489.1969696969697" y="1356.6515151515152"/>
      <point x="561.0909090909091" y="1356.6515151515152" type="curve" smooth="yes"/>
      <point x="940.530303030303" y="1356.6515151515152"/>
      <point x="1127.2424242424242" y="1171.6969696969697"/>
      <point x="1127.2424242424242" y="740.5151515151515" type="curve" smooth="yes"/>
      <point x="1127.2424242424242" y="304.8484848484849"/>
      <point x="936.1666666666667" y="126.83333333333333"/>
    </contour>
    <contour>
      <point x="2.5151515151515156" y="704.9545454545455" type="line"/>
      <point x="662.1818181818182" y="704.9545454545455" type="line"/>
      <point x="662.1818181818182" y="819.0454545454545" type="line"/>
      <point x="2.5151515151515156" y="819.0454545454545" type="line"/>
    </contour>
  </outline>
</glyph>
<glyph name="Ntilde" format="2">
  <advance width="1469.5"/>
  <unicode hex="00D1"/>
  <anchor x="735.1212121212121" y="1520.0" name="_top"/>
  <anchor x="735.1212121212121" y="0.0" name="bottom"/>
  <anchor x="735.1212121212121" y="1520.0" name="top"/>
  <outline>
    <contour>
      <point x="169.13636363636363" y="0.0" type="line"/>
      <point x="322.969696969697" y="0.0" type="line"/>
      <point x="322.969696969697" y="1294.3030303030303" type="line"/>
      <point x="282.95454545454544" y="1294.3030303030303" type="line"/>
      <point x="1133.1515151515152" y="0.0" type="line"/>
      <point x="1300.3636363636363" y="0.0" type="line"/>
      <point x="1300.3636363636363" y="1480.0" type="line"/>
      <point x="1146.530303030303" y="1480.0" type="line"/>
      <point x="1146.530303030303" y="185.6969696969697" type="line"/>
      <point x="1186.5454545454545" y="185.6969696969697" type="line"/>
      <point x="336.3484848484849" y="1480.0" type="line"/>
      <point x="169.13636363636363" y="1480.0" type="line"/>
    </contour>
    <contour>
      <point x="889.4242424242424" y="1668.409090909091" type="curve" smooth="yes"/>
      <point x="966.4090909090909" y="1668.409090909091"/>
      <point x="1021.2727272727273" y="1690.409090909091"/>
      <point x="1062.7121212121212" y="1733.0151515151515" type="curve"/>
      <point x="1062.7121212121212" y="1842.7727272727273" type="line"/>
      <point x="1013.0151515151515" y="1795.030303030303"/>
      <point x="963.4090909090909" y="1772.030303030303"/>
      <point x="891.4848484848485" y="1772.030303030303" type="curve" smooth="yes"/>
      <point x="789.9545454545455" y="1772.030303030303"/>
      <point x="702.3484848484849" y="1848.5454545454545"/>
      <point x="580.8181818181819" y="1848.5454545454545" type="curve" smooth="yes"/>
      <point x="503.8333333333333" y="1848.5454545454545"/>
      <point x="448.969696969697" y="1826.030303030303"/>
      <point x="407.530303030303" y="1783.4242424242425" type="curve"/>
      <point x="407.530303030303" y="1673.6666666666667" type="line"/>
      <point x="457.22727272727275" y="1721.409090909091"/>
      <point x="506.8333333333333" y="1744.409090909091"/>
      <point x="578.7575757575758" y="1744.409090909091" type="curve" smooth="yes"/>
      <point x="680.2878787878788" y="1744.409090909091"/>
      <point x="767.8939393939394" y="1668.409090909091"/>
    </contour>
  </outline>
</glyph>
<glyph name="Otilde" format="2">
  <advance width="1439.090909090909"/>
  <unicode hex="00D5"/>
  <anchor x="719.5454545454545" y="1520.0" name="_top"/>
  <anchor x="719.5454545454545" y="0.0" name="bottom"/>
  <anchor x="719.5454545454545" y="740.0" name="center"/>
  <anchor x="883.4090909090909" y="0.0" name="ogonek"/>
  <anchor x="719.5454545454545" y="1520.0" name="top"/>
  <anchor x="45.803030303030305" y="1480.0" name="topleft"/>
  <anchor x="890.9090909090909" y="1480.0" name="topright"/>
  <outline>
    <contour>
      <point x="719.5454545454545" y="-18.515151515151516" type="curve" smooth="yes"/>
      <point x="1086.7121212121212" y="-18.515151515151516"/>
      <point x="1333.7121212121212" y="206.33333333333331"/>
      <point x="1333.7121212121212" y="740.0" type="curve" smooth="yes"/>
      <point x="1333.7121212121212" y="1273.6666666666667"/>
      <point x="1089.1969696969697" y="1498.5151515151515"/>
      <point x="719.5454545454545" y="1498.5151515151515" type="curve" smooth="yes"/>
      <point x="352.1212121212121" y="1498.5151515151515"/>
      <point x="105.37878787878788" y="1274.1818181818182"/>
      <point x="105.37878787878788" y="740.0" type="curve" smooth="yes"/>
      <point x="105.37878787878788" y="205.8181818181818"/>
      <point x="350.1515151515151" y="-18.515151515151516"/>
    </contour>
    <contour>
      <point x="719.5454545454545" y="120.34848484848484" type="curve" smooth="yes"/>
      <point x="449.75757575757575" y="120.34848484848484"/>
      <point x="273.1969696969697" y="281.43939393939394"/>
      <point x="273.1969696969697" y="745.030303030303" type="curve" smooth="yes"/>
      <point x="273.1969696969697" y="1198.560606060606"/>
      <point x="450.530303030303" y="1359.6515151515152"/>
      <point x="719.5454545454545" y="1359.6515151515152" type="curve" smooth="yes"/>
      <point x="988.560606060606" y="1359.6515151515152"/>
      <point x="1165.8939393939395" y="1197.7878787878788"/>
      <point x="1165.8939393939395" y="734.969696969697" type="curve" smooth="yes"/>
      <point x="1165.8939393939395" y="282.21212121212125"/>
      <point x="989.3333333333333" y="120.34848484848484"/>
    </contour>
    <contour>
      <point x="873.8484848484849" y="1668.409090909091" type="curve" smooth="yes"/>
      <point x="950.8333333333333" y="1668.409090909091"/>
      <point x="1005.6969696969697" y="1690.409090909091"/>
      <point x="1047.1363636363637" y="1733.0151515151515" type="curve"/>
      <point x="1047.1363636363637" y="1842.7727272727273" type="line"/>
      <point x="997.439393939394" y="1795.030303030303"/>
      <point x="947.8333333333334" y="1772.030303030303"/>
      <point x="875.9090909090909" y="1772.030303030303" type="curve" smooth="yes"/>
      <point x="774.3787878787879" y="1772.030303030303"/>
      <point x="686.7727272727273" y="1848.5454545454545"/>
      <point x="565.2424242424242" y="1848.5454545454545" type="curve" smooth="yes"/>
      <point x="488.25757575757575" y="1848.5454545454545"/>
      <point x="433.3939393939394" y="1826.030303030303"/>
      <point x="391.95454545454544" y="1783.4242424242425" type="curve"/>
      <point x="391.95454545454544" y="1673.6666666666667" type="line"/>
      <point x="441.6515151515151" y="1721.409090909091"/>
      <point x="491.25757575757575" y="1744.409090909091"/>
      <point x="563.1818181818182" y="1744.409090909091" type="curve" smooth="yes"/>
      <point x="664.7121212121212" y="1744.409090909091"/>
      <point x="752.3181818181818" y="1668.409090909091"/>
    </contour>
  </outline>
</glyph>
<glyph name="Odieresis" format="2">
  <advance width="1439.090909090909"/>
  <unicode hex="00D6"/>
  <anchor x="719.5454545454545" y="1520.0" name="_top"/>
  <anchor x="719.5454545454545" y="0.0" name="bottom"/>
  <anchor x="719.5454545454545" y="740.0" name="center"/>
  <anchor x="883.4090909090909" y="0.0" name="ogonek"/>
  <anchor x="719.5454545454545" y="1520.0" name="top"/>
  <anchor x="45.803030303030305" y="1480.0" name="topleft"/>
  <anchor x="890.9090909090909" y="1480.0" name="topright"/>
  <outline>
    <contour>
      <point x="719.5454545454545" y="-18.515151515151516" type="curve" smooth="yes"/>
      <point x="1086.7121212121212" y="-18.515151515151516"/>
      <point x="1333.7121212121212" y="206.33333333333331"/>
      <point x="1333.7121212121212" y="740.0" type="curve" smooth="yes"/>
      <point x="1333.7121212121212" y="1273.6666666666667"/>
      <point x="1089.1969696969697" y="1498.5151515151515"/>
      <point x="719.5454545454545" y="1498.5151515151515" type="curve" smooth="yes"/>
      <point x="352.1212121212121" y="1498.5151515151515"/>
      <point x="105.37878787878788" y="1274.1818181818182"/>
      <point x="105.37878787878788" y="740.0" type="curve" smooth="yes"/>
      <point x="105.37878787878788" y="205.8181818181818"/>
      <point x="350.1515151515151" y="-18.515151515151516"/>
    </contour>
    <contour>
      <point x="719.5454545454545" y="120.34848484848484" type="curve" smooth="yes"/>
      <point x="449.75757575757575" y="120.34848484848484"/>
      <point x="273.1969696969697" y="281.43939393939394"/>
      <point x="273.1969696969697" y="745.030303030303" type="curve" smooth="yes"/>
      <point x="273.1969696969697" y="1198.560606060606"/>
      <point x="450.530303030303" y="1359.6515151515152"/>
      <point x="719.5454545454545" y="1359.6515151515152" type="curve" smooth="yes"/>
      <point x="988.560606060606" y="1359.6515151515152"/>
      <point x="1165.8939393939395" y="1197.7878787878788"/>
      <point x="1165.8939393939395" y="734.969696969697" type="curve" smooth="yes"/>
      <point x="1165.8939393939395" y="282.21212121212125"/>
      <point x="989.3333333333333" y="120.34848484848484"/>
    </contour>
    <contour>
      <point x="953.1969696969697" y="1659.090909090909" type="curve" smooth="yes"/>
      <point x="1017.530303030303" y="1659.090909090909"/>
      <point x="1055.378787878788" y="1693.909090909091"/>
      <point x="1055.378787878788" y="1751.4848484848485" type="curve" smooth="yes"/>
      <point x="1055.378787878788" y="1809.060606060606"/>
      <point x="1017.530303030303" y="1845.3636363636363"/>
      <point x="953.1969696969697" y="1845.3636363636363" type="curve" smooth="yes"/>
      <point x="888.8636363636364" y="1845.3636363636363"/>
      <point x="851.0151515151515" y="1809.060606060606"/>
      <point x="851.0151515151515" y="1751.4848484848485" type="curve" smooth="yes"/>
      <point x="851.0151515151515" y="1693.909090909091"/>
      <point x="888.8636363636364" y="1659.090909090909"/>
    </contour>
    <contour>
      <point x="485.8939393939394" y="1659.090909090909" type="curve" smooth="yes"/>
      <point x="550.2272727272727" y="1659.090909090909"/>
      <point x="588.0757575757576" y="1693.909090909091"/>
      <point x="588.0757575757576" y="1751.4848484848485" type="curve" smooth="yes"/>
      <point x="588.0757575757576" y="1809.060606060606"/>
      <point x="550.2272727272727" y="1845.3636363636363"/>
      <point x="485.8939393939394" y="1845.3636363636363" type="curve" smooth="yes"/>
      <point x="421.56060606060606" y="1845.3636363636363"/>
      <point x="383.7121212121212" y="1809.060606060606"/>
      <point x="383.7121212121212" y="1751.4848484848485" type="curve" smooth="yes"/>
      <point x="383.7121212121212" y="1693.909090909091"/>
      <point x="421.56060606060606" y="1659.090909090909"/>
    </contour>
  </outline>
</glyph>
<glyph name="multiply" format="2">
  <advance width="999.6969696969697"/>
  <unicode hex="00D7"/>
  <outline>
    <contour>
      <point x="208.84848484848484" y="378.1212121212121" type="line"/>
      <point x="499.8484848484849" y="669.1212121212121" type="line"/>
      <point x="790.8484848484849" y="378.1212121212121" type="line"/>
      <point x="881.7272727272727" y="469.0" type="line"/>
      <point x="590.7272727272727" y="760.0" type="line"/>
      <point x="881.7272727272727" y="1051.0" type="line"/>
      <point x="790.8484848484849" y="1141.878787878788" type="line"/>
      <point x="499.8484848484849" y="850.8787878787879" type="line"/>
      <point x="208.84848484848484" y="1141.878787878788" type="line"/>
      <point x="117.96969696969697" y="1051.0" type="line"/>
      <point x="408.969696969697" y="760.0" type="line"/>
      <point x="117.96969696969697" y="469.0" type="line"/>
    </contour>
  </outline>
</glyph>
<glyph name="Uacute" format="2">
  <advance width="1417.0757575757575"/>
  <unicode hex="00DA"/>
  <anchor x="710.439393939394" y="1520.0" name="_top"/>
  <anchor x="710.439393939394" y="0.0" name="bottom"/>
  <anchor x="876.3484848484849" y="1.4848484848484849" name="ogonek"/>
  <anchor x="710.439393939394" y="1520.0" name="top"/>
  <anchor x="1105.4545454545455" y="1480.0" name="topright"/>
  <outline>
    <contour>
      <point x="710.439393939394" y="-18.515151515151516" type="curve" smooth="yes"/>
      <point x="1086.8030303030303" y="-18.515151515151516"/>
      <point x="1255.4242424242425" y="163.3939393939394"/>
      <point x="1255.4242424242425" y="559.9090909090909" type="curve" smooth="yes"/>
      <point x="1255.4242424242425" y="1480.0" type="line"/>
      <point x="1096.6969696969697" y="1480.0" type="line"/>
      <point x="1096.6969696969697" y="541.9242424242424" type="line" smooth="yes"/>
      <point x="1096.6969696969697" y="249.63636363636363"/>
      <point x="977.060606060606" y="121.15151515151516"/>
      <point x="710.439393939394" y="121.15151515151516" type="curve" smooth="yes"/>
      <point x="443.8181818181818" y="121.15151515151516"/>
      <point x="323.92424242424244" y="249.63636363636363"/>
      <point x="323.92424242424244" y="541.9242424242424" type="curve" smooth="yes"/>
      <point x="323.92424242424244" y="1480.0" type="line"/>
      <point x="161.65151515151516" y="1480.0" type="line"/>
      <point x="161.65151515151516" y="559.9090909090909" type="line" smooth="yes"/>
      <point x="161.65151515151516" y="163.3939393939394"/>
      <point x="332.27272727272725" y="-18.515151515151516"/>
    </contour>
    <contour>
      <point x="636.969696969697" y="1608.2727272727273" type="line"/>
      <point x="782.8787878787879" y="1608.2727272727273" type="line"/>
      <point x="987.0454545454545" y="1891.6060606060605" type="line"/>
      <point x="814.030303030303" y="1891.6060606060605" type="line"/>
    </contour>
  </outline>
</glyph>
<glyph name="Ucircumflex" format="2">
  <advance width="1417.0757575757575"/>
  <unicode hex="00DB"/>
  <anchor x="710.439393939394" y="1520.0" name="_top"/>
  <anchor x="710.439393939394" y="0.0" name="bottom"/>
  <anchor x="876.3484848484849" y="1.4848484848484849" name="ogonek"/>
  <anchor x="710.439393939394" y="1520.0" name="top"/>
  <anchor x="1105.4545454545455" y="1480.0" name="topright"/>
  <outline>
    <contour>
      <point x="710.439393939394" y="-18.515151515151516" type="curve" smooth="yes"/>
      <point x="1086.8030303030303" y="-18.515151515151516"/>
      <point x="1255.4242424242425" y="163.3939393939394"/>
      <point x="1255.4242424242425" y="559.9090909090909" type="curve" smooth="yes"/>
      <point x="1255.4242424242425" y="1480.0" type="line"/>
      <point x="1096.6969696969697" y="1480.0" type="line"/>
      <point x="1096.6969696969697" y="541.9242424242424" type="line" smooth="yes"/>
      <point x="1096.6969696969697" y="249.63636363636363"/>
      <point x="977.060606060606" y="121.15151515151516"/>
      <point x="710.439393939394" y="121.15151515151516" type="curve" smooth="yes"/>
      <point x="443.8181818181818" y="121.15151515151516"/>
      <point x="323.92424242424244" y="249.63636363636363"/>
      <point x="323.92424242424244" y="541.9242424242424" type="curve" smooth="yes"/>
      <point x="323.92424242424244" y="1480.0" type="line"/>
      <point x="161.65151515151516" y="1480.0" type="line"/>
      <point x="161.65151515151516" y="559.9090909090909" type="line" smooth="yes"/>
      <point x="161.65151515151516" y="163.3939393939394"/>
      <point x="332.27272727272725" y="-18.515151515151516"/>
    </contour>
    <contour>
      <point x="390.969696969697" y="1608.2727272727273" type="line"/>
      <point x="530.9545454545455" y="1608.2727272727273" type="line"/>
      <point x="727.8181818181818" y="1841.4848484848485" type="line"/>
      <point x="693.060606060606" y="1841.4848484848485" type="line"/>
      <point x="889.9242424242424" y="1608.2727272727273" type="line"/>
      <point x="1029.909090909091" y="1608.2727272727273" type="line"/>
      <point x="784.2424242424242" y="1891.6060606060605" type="line"/>
      <point x="636.6363636363636" y="1891.6060606060605" type="line"/>
    </contour>
  </outline>
</glyph>
